{
classes = (
{
automatic = 1;
code = "A B C D E F G H I J K L M N O P Q R S T U V W X Y Z Agrave Aacute Acircumflex Atilde Adieresis Aring AE Ccedilla Egrave Eacute Ecircumflex Edieresis Igrave Iacute Icircumflex Idieresis Eth Ntilde Ograve Oacute Ocircumflex Otilde Odieresis Oslash Ugrave Uacute Ucircumflex Udieresis Yacute Thorn Cacute Ccaron Gbreve Idotaccent Lslash OE Scedilla Scaron Ydieresis Zcaron Omega Delta Abreve Abreveacute Abrevedotbelow Abrevegrave Abrevehookabove Abrevetilde Acaron Acircumflexacute Acircumflexdotbelow Acircumflexgrave Acircumflexhookabove Acircumflextilde Adieresismacron Adotbelow Ahookabove Amacron Aogonek Bdotbelow Cdotaccent Dcaron Dcircumflexbelow Dcroat Ddotbelow Dlinebelow Ecaron Ecedilla Ecircumflexacute Ecircumflexdotbelow Ecircumflexgrave Ecircumflexhookabove Ecircumflextilde Edotaccent Edotbelow Ehookabove Emacron Eogonek Etilde Gcaron Gcommaaccent Gdotaccent Hbar Hdotbelow IJ Icaron Idieresisacute Idotbelow Ihookabove Imacron Iogonek Itilde Kcommaaccent Lacute Lcaron Lcircumflexbelow Lcommaaccent Ldot Ldotbelow Macute Nacute Ncaron Ncircumflexbelow Ncommaaccent Ndotaccent Ndotbelow Eng Ocaron Ocircumflexacute Ocircumflexdotbelow Ocircumflexgrave Ocircumflexhookabove Ocircumflextilde Odiaeresismacron Odotbelow Ohookabove Ohorn Ohornacute Ohorndotbelow Ohorngrave Ohornhookabove Ohorntilde Ohungarumlaut Omacron Omacronacute Omacrongrave Oslashacute Otildeacute Racute Rcaron Rcommaaccent Sacute Scommaaccent Sdotbelow Tbar Tcaron Tcedilla Tcircumflexbelow Tcommaaccent Tdotbelow Tlinebelow Ucaron Udieresisacute Udieresiscaron Udieresisgrave Udieresismacron Udotbelow Uhookabove Uhorn Uhornacute Uhorndotbelow Uhorngrave Uhornhookabove Uhorntilde Uhungarumlaut Umacron Uogonek Uring Utilde Wacute Wcircumflex Wdieresis Wgrave Ycircumflex Ydotbelow Ygrave Yhookabove Ytilde Zacute Zdotaccent Zdotbelow";
name = Uppercase;
}
);

glyphs = (
{
glyphname = .notdef;
lastChange = "2014-11-05 03:29:49 -0500";
layers = (
{
layerId = "16808965-E153-4B2B-ADB3-00196C646C32";
name = "Regular Italic";
paths = (
{
closed = 1;
nodes = (
"135 120 OFFCURVE",
"159 409 OFFCURVE",
"165 700 CURVE",
"243 688 OFFCURVE",
"321 682 OFFCURVE",
"403 682 CURVE SMOOTH",
"487 682 OFFCURVE",
"570 688 OFFCURVE",
"655 700 CURVE",
"608 409 OFFCURVE",
"581 120 OFFCURVE",
"579 -172 CURVE",
"498 -161 OFFCURVE",
"417 -155 OFFCURVE",
"335 -155 CURVE SMOOTH",
"252 -155 OFFCURVE",
"171 -161 OFFCURVE",
"88 -172 CURVE"
);
},
{
closed = 1;
nodes = (
"218 -29 OFFCURVE",
"283 -26 OFFCURVE",
"348 -26 CURVE SMOOTH",
"411 -26 OFFCURVE",
"474 -29 OFFCURVE",
"537 -34 CURVE",
"548 195 OFFCURVE",
"568 419 OFFCURVE",
"602 647 CURVE",
"534 641 OFFCURVE",
"466 637 OFFCURVE",
"399 637 CURVE SMOOTH",
"334 637 OFFCURVE",
"271 640 OFFCURVE",
"208 647 CURVE",
"200 420 OFFCURVE",
"182 193 OFFCURVE",
"153 -34 CURVE"
);
}
);
width = 746;
}
);
},
{
glyphname = exclam;
lastChange = "2014-11-05 03:29:49 -0500";
layers = (
{
layerId = "16808965-E153-4B2B-ADB3-00196C646C32";
name = "Regular Italic";
paths = (
{
closed = 1;
nodes = (
"129 127 OFFCURVE",
"145 129 OFFCURVE",
"160 129 CURVE SMOOTH",
"174 129 OFFCURVE",
"189 127 OFFCURVE",
"205 124 CURVE",
"205 107 LINE SMOOTH",
"205 90 OFFCURVE",
"205 74 OFFCURVE",
"205 57 CURVE SMOOTH",
"206 41 OFFCURVE",
"206 24 OFFCURVE",
"206 7 CURVE",
"189 15 OFFCURVE",
"170 19 OFFCURVE",
"150 19 CURVE SMOOTH",
"130 19 OFFCURVE",
"110 15 OFFCURVE",
"92 7 CURVE",
"95 26 OFFCURVE",
"99 46 OFFCURVE",
"103 65 CURVE SMOOTH",
"106 84 OFFCURVE",
"109 104 OFFCURVE",
"113 124 CURVE"
);
},
{
closed = 1;
nodes = (
"181 712 OFFCURVE",
"194 710 OFFCURVE",
"208 710 CURVE SMOOTH",
"223 710 OFFCURVE",
"238 711 OFFCURVE",
"253 717 CURVE",
"244 613 OFFCURVE",
"236 512 OFFCURVE",
"229 408 CURVE",
"229 384 OFFCURVE",
"229 360 OFFCURVE",
"228 336 CURVE SMOOTH",
"228 312 OFFCURVE",
"228 288 OFFCURVE",
"228 264 CURVE SMOOTH",
"228 240 LINE",
"209 243 OFFCURVE",
"190 245 OFFCURVE",
"171 245 CURVE SMOOTH",
"151 245 OFFCURVE",
"131 243 OFFCURVE",
"111 240 CURVE",
"135 399 OFFCURVE",
"151 556 OFFCURVE",
"168 716 CURVE"
);
}
);
width = 335;
}
);
unicode = 0021;
},
{
glyphname = quotedbl;
lastChange = "2014-11-05 03:29:49 -0500";
layers = (
{
layerId = "16808965-E153-4B2B-ADB3-00196C646C32";
name = "Regular Italic";
paths = (
{
closed = 1;
nodes = (
"245 630 OFFCURVE",
"240 542 OFFCURVE",
"229 452 CURVE",
"199 451 OFFCURVE",
"169 450 OFFCURVE",
"140 447 CURVE",
"160 533 OFFCURVE",
"169 619 OFFCURVE",
"169 706 CURVE SMOOTH",
"169 724 LINE",
"183 723 OFFCURVE",
"195 722 OFFCURVE",
"208 722 CURVE SMOOTH",
"221 721 OFFCURVE",
"233 720 OFFCURVE",
"246 720 CURVE"
);
},
{
closed = 1;
nodes = (
"429 655 OFFCURVE",
"422 585 OFFCURVE",
"422 516 CURVE SMOOTH",
"422 493 OFFCURVE",
"422 470 OFFCURVE",
"424 447 CURVE",
"410 449 OFFCURVE",
"395 450 OFFCURVE",
"380 450 CURVE SMOOTH",
"366 451 OFFCURVE",
"351 452 OFFCURVE",
"336 452 CURVE",
"340 542 OFFCURVE",
"350 630 OFFCURVE",
"365 720 CURVE",
"378 720 OFFCURVE",
"391 721 OFFCURVE",
"404 722 CURVE SMOOTH",
"417 723 OFFCURVE",
"430 724 OFFCURVE",
"443 724 CURVE"
);
}
);
width = 460;
}
);
unicode = 0022;
},
{
glyphname = numbersign;
lastChange = "2014-11-05 03:29:49 -0500";
layers = (
{
layerId = "16808965-E153-4B2B-ADB3-00196C646C32";
name = "Regular Italic";
paths = (
{
closed = 1;
nodes = (
"474 441 OFFCURVE",
"450 441 OFFCURVE",
"426 441 CURVE SMOOTH",
"402 441 OFFCURVE",
"378 441 OFFCURVE",
"354 440 CURVE",
"336 385 OFFCURVE",
"318 330 OFFCURVE",
"299 274 CURVE",
"318 274 OFFCURVE",
"338 274 OFFCURVE",
"357 275 CURVE SMOOTH",
"376 275 OFFCURVE",
"395 275 OFFCURVE",
"415 275 CURVE SMOOTH",
"443 275 LINE",
"452 303 OFFCURVE",
"461 331 OFFCURVE",
"471 358 CURVE SMOOTH",
"480 386 OFFCURVE",
"489 413 OFFCURVE",
"498 441 CURVE"
);
},
{
closed = 1;
nodes = (
"441 699 LINE",
"418 634 OFFCURVE",
"396 569 OFFCURVE",
"375 503 CURVE",
"399 503 OFFCURVE",
"423 503 OFFCURVE",
"447 503 CURVE SMOOTH",
"471 503 OFFCURVE",
"495 503 OFFCURVE",
"520 504 CURVE",
"543 571 OFFCURVE",
"567 636 OFFCURVE",
"595 702 CURVE",
"606 702 OFFCURVE",
"618 703 OFFCURVE",
"629 704 CURVE SMOOTH",
"640 704 OFFCURVE",
"652 705 OFFCURVE",
"663 705 CURVE",
"635 639 OFFCURVE",
"608 573 OFFCURVE",
"585 505 CURVE",
"634 506 OFFCURVE",
"683 507 OFFCURVE",
"731 509 CURVE",
"729 499 OFFCURVE",
"728 488 OFFCURVE",
"727 477 CURVE SMOOTH",
"725 466 OFFCURVE",
"724 455 OFFCURVE",
"722 444 CURVE",
"669 443 OFFCURVE",
"615 442 OFFCURVE",
"562 442 CURVE",
"543 386 OFFCURVE",
"525 331 OFFCURVE",
"508 275 CURVE",
"557 274 OFFCURVE",
"605 273 OFFCURVE",
"654 273 CURVE",
"654 263 OFFCURVE",
"653 252 OFFCURVE",
"652 241 CURVE SMOOTH",
"652 230 OFFCURVE",
"651 220 OFFCURVE",
"650 209 CURVE",
"623 210 OFFCURVE",
"596 210 OFFCURVE",
"569 211 CURVE SMOOTH",
"542 211 OFFCURVE",
"515 212 OFFCURVE",
"487 212 CURVE",
"477 180 OFFCURVE",
"467 147 OFFCURVE",
"457 115 CURVE SMOOTH",
"446 83 OFFCURVE",
"436 50 OFFCURVE",
"426 18 CURVE",
"421 18 OFFCURVE",
"415 18 OFFCURVE",
"410 18 CURVE SMOOTH",
"404 18 OFFCURVE",
"398 18 OFFCURVE",
"392 18 CURVE SMOOTH",
"358 18 LINE",
"369 51 OFFCURVE",
"379 83 OFFCURVE",
"391 116 CURVE SMOOTH",
"401 148 OFFCURVE",
"412 180 OFFCURVE",
"422 213 CURVE",
"398 213 OFFCURVE",
"374 213 OFFCURVE",
"350 213 CURVE SMOOTH",
"326 213 OFFCURVE",
"301 212 OFFCURVE",
"277 212 CURVE",
"254 145 OFFCURVE",
"229 81 OFFCURVE",
"204 15 CURVE",
"192 15 OFFCURVE",
"181 14 OFFCURVE",
"169 14 CURVE SMOOTH",
"158 13 OFFCURVE",
"146 13 OFFCURVE",
"135 12 CURVE",
"163 78 OFFCURVE",
"188 145 OFFCURVE",
"212 211 CURVE",
"188 211 OFFCURVE",
"163 210 OFFCURVE",
"139 209 CURVE SMOOTH",
"115 209 OFFCURVE",
"90 208 OFFCURVE",
"66 208 CURVE",
"67 218 OFFCURVE",
"69 229 OFFCURVE",
"70 240 CURVE SMOOTH",
"71 250 OFFCURVE",
"72 261 OFFCURVE",
"74 272 CURVE",
"101 272 OFFCURVE",
"127 273 OFFCURVE",
"154 273 CURVE SMOOTH",
"180 273 OFFCURVE",
"207 273 OFFCURVE",
"234 274 CURVE",
"253 330 OFFCURVE",
"271 385 OFFCURVE",
"290 441 CURVE",
"239 441 OFFCURVE",
"191 442 OFFCURVE",
"141 443 CURVE",
"141 454 OFFCURVE",
"142 465 OFFCURVE",
"143 476 CURVE SMOOTH",
"143 486 OFFCURVE",
"144 497 OFFCURVE",
"144 507 CURVE",
"172 506 OFFCURVE",
"199 505 OFFCURVE",
"227 505 CURVE SMOOTH",
"255 504 OFFCURVE",
"282 504 OFFCURVE",
"310 504 CURVE",
"320 537 OFFCURVE",
"331 569 OFFCURVE",
"341 602 CURVE SMOOTH",
"351 634 OFFCURVE",
"362 666 OFFCURVE",
"372 699 CURVE"
);
}
);
width = 758;
}
);
unicode = 0023;
},
{
glyphname = dollar;
lastChange = "2014-11-05 03:29:49 -0500";
layers = (
{
layerId = "16808965-E153-4B2B-ADB3-00196C646C32";
name = "Regular Italic";
paths = (
{
closed = 1;
nodes = (
"287 -121 OFFCURVE",
"261 -121 OFFCURVE",
"235 -121 CURVE",
"244 -73 OFFCURVE",
"252 -26 OFFCURVE",
"260 21 CURVE",
"195 23 OFFCURVE",
"131 33 OFFCURVE",
"73 57 CURVE",
"75 74 OFFCURVE",
"78 92 OFFCURVE",
"80 109 CURVE SMOOTH",
"83 126 OFFCURVE",
"84 144 OFFCURVE",
"86 162 CURVE",
"139 126 OFFCURVE",
"203 108 OFFCURVE",
"270 106 CURVE",
"273 139 OFFCURVE",
"277 171 OFFCURVE",
"280 203 CURVE SMOOTH",
"284 235 OFFCURVE",
"287 267 OFFCURVE",
"290 300 CURVE",
"265 304 OFFCURVE",
"240 311 OFFCURVE",
"217 320 CURVE SMOOTH",
"193 330 OFFCURVE",
"172 342 OFFCURVE",
"154 360 CURVE SMOOTH",
"126 390 OFFCURVE",
"118 433 OFFCURVE",
"118 474 CURVE",
"120 499 OFFCURVE",
"128 525 OFFCURVE",
"142 548 CURVE SMOOTH",
"156 570 OFFCURVE",
"175 589 OFFCURVE",
"200 601 CURVE SMOOTH",
"247 622 OFFCURVE",
"288 627 OFFCURVE",
"329 630 CURVE",
"331 648 OFFCURVE",
"333 667 OFFCURVE",
"335 686 CURVE SMOOTH",
"337 705 OFFCURVE",
"339 723 OFFCURVE",
"340 742 CURVE",
"347 742 OFFCURVE",
"354 742 OFFCURVE",
"360 741 CURVE SMOOTH",
"366 741 OFFCURVE",
"373 741 OFFCURVE",
"379 741 CURVE",
"367 631 LINE",
"422 629 OFFCURVE",
"477 624 OFFCURVE",
"529 609 CURVE",
"528 599 OFFCURVE",
"526 588 OFFCURVE",
"525 577 CURVE SMOOTH",
"523 566 OFFCURVE",
"521 556 OFFCURVE",
"520 545 CURVE",
"472 570 OFFCURVE",
"417 579 OFFCURVE",
"361 582 CURVE",
"353 505 OFFCURVE",
"345 430 OFFCURVE",
"337 354 CURVE",
"363 349 OFFCURVE",
"390 344 OFFCURVE",
"415 335 CURVE SMOOTH",
"440 327 OFFCURVE",
"464 316 OFFCURVE",
"484 298 CURVE SMOOTH",
"513 272 OFFCURVE",
"522 231 OFFCURVE",
"522 192 CURVE SMOOTH",
"522 169 OFFCURVE",
"517 145 OFFCURVE",
"506 123 CURVE SMOOTH",
"496 101 OFFCURVE",
"480 80 OFFCURVE",
"461 65 CURVE SMOOTH",
"418 35 OFFCURVE",
"367 23 OFFCURVE",
"316 21 CURVE",
"316 -3 OFFCURVE",
"315 -27 OFFCURVE",
"314 -51 CURVE SMOOTH",
"314 -75 OFFCURVE",
"313 -98 OFFCURVE",
"313 -122 CURVE"
);
},
{
closed = 1;
nodes = (
"293 363 LINE",
"297 399 OFFCURVE",
"301 436 OFFCURVE",
"305 471 CURVE SMOOTH",
"309 507 OFFCURVE",
"313 542 OFFCURVE",
"316 579 CURVE",
"280 575 OFFCURVE",
"242 567 OFFCURVE",
"213 543 CURVE SMOOTH",
"186 522 OFFCURVE",
"173 492 OFFCURVE",
"173 459 CURVE SMOOTH",
"173 430 OFFCURVE",
"188 406 OFFCURVE",
"210 389 CURVE SMOOTH",
"231 372 OFFCURVE",
"260 361 OFFCURVE",
"287 358 CURVE"
);
},
{
closed = 1;
nodes = (
"327 283 LINE",
"325 252 OFFCURVE",
"323 223 OFFCURVE",
"322 193 CURVE SMOOTH",
"320 163 OFFCURVE",
"318 133 OFFCURVE",
"316 103 CURVE",
"346 107 OFFCURVE",
"375 112 OFFCURVE",
"403 123 CURVE",
"418 127 OFFCURVE",
"428 138 OFFCURVE",
"434 151 CURVE SMOOTH",
"439 165 OFFCURVE",
"441 179 OFFCURVE",
"441 192 CURVE SMOOTH",
"441 220 OFFCURVE",
"427 242 OFFCURVE",
"406 258 CURVE SMOOTH",
"385 274 OFFCURVE",
"358 283 OFFCURVE",
"333 287 CURVE"
);
}
);
width = 616;
}
);
unicode = 0024;
},
{
glyphname = percent;
lastChange = "2014-11-05 03:29:49 -0500";
layers = (
{
layerId = "16808965-E153-4B2B-ADB3-00196C646C32";
name = "Regular Italic";
paths = (
{
closed = 1;
nodes = (
"710 327 OFFCURVE",
"685 305 OFFCURVE",
"670 276 CURVE SMOOTH",
"654 247 OFFCURVE",
"648 211 OFFCURVE",
"648 182 CURVE SMOOTH",
"648 153 OFFCURVE",
"656 125 OFFCURVE",
"671 104 CURVE SMOOTH",
"687 83 OFFCURVE",
"710 70 OFFCURVE",
"742 70 CURVE SMOOTH",
"779 70 OFFCURVE",
"800 93 OFFCURVE",
"813 122 CURVE SMOOTH",
"827 151 OFFCURVE",
"830 187 OFFCURVE",
"830 212 CURVE SMOOTH",
"830 238 OFFCURVE",
"825 268 OFFCURVE",
"812 290 CURVE SMOOTH",
"799 311 OFFCURVE",
"778 327 OFFCURVE",
"749 327 CURVE SMOOTH"
);
},
{
closed = 1;
nodes = (
"795 378 OFFCURVE",
"836 362 OFFCURVE",
"859 327 CURVE",
"887 290 OFFCURVE",
"894 242 OFFCURVE",
"894 194 CURVE SMOOTH",
"894 169 OFFCURVE",
"892 143 OFFCURVE",
"886 117 CURVE SMOOTH",
"880 91 OFFCURVE",
"869 66 OFFCURVE",
"852 45 CURVE",
"839 28 OFFCURVE",
"822 17 OFFCURVE",
"804 10 CURVE SMOOTH",
"785 2 OFFCURVE",
"765 0 OFFCURVE",
"746 0 CURVE SMOOTH",
"722 0 OFFCURVE",
"697 4 OFFCURVE",
"676 13 CURVE SMOOTH",
"654 21 OFFCURVE",
"633 35 OFFCURVE",
"619 54 CURVE",
"592 85 OFFCURVE",
"583 127 OFFCURVE",
"583 170 CURVE SMOOTH",
"583 197 OFFCURVE",
"586 226 OFFCURVE",
"595 253 CURVE SMOOTH",
"603 280 OFFCURVE",
"617 306 OFFCURVE",
"637 328 CURVE",
"637 327 LINE",
"667 362 OFFCURVE",
"710 378 OFFCURVE",
"753 378 CURVE SMOOTH"
);
},
{
closed = 1;
nodes = (
"290 676 LINE SMOOTH",
"258 676 OFFCURVE",
"236 658 OFFCURVE",
"222 633 CURVE SMOOTH",
"208 607 OFFCURVE",
"201 576 OFFCURVE",
"201 549 CURVE SMOOTH",
"201 543 LINE",
"200 541 OFFCURVE",
"200 539 OFFCURVE",
"200 537 CURVE SMOOTH",
"200 535 OFFCURVE",
"200 533 OFFCURVE",
"200 530 CURVE SMOOTH",
"200 502 OFFCURVE",
"205 471 OFFCURVE",
"218 448 CURVE SMOOTH",
"231 424 OFFCURVE",
"251 407 OFFCURVE",
"285 407 CURVE SMOOTH",
"311 407 OFFCURVE",
"330 418 OFFCURVE",
"345 435 CURVE SMOOTH",
"359 451 OFFCURVE",
"369 473 OFFCURVE",
"375 496 CURVE SMOOTH",
"380 518 OFFCURVE",
"383 541 OFFCURVE",
"383 559 CURVE SMOOTH",
"383 586 OFFCURVE",
"376 615 OFFCURVE",
"362 637 CURVE SMOOTH",
"348 660 OFFCURVE",
"325 675 OFFCURVE",
"295 676 CURVE"
);
},
{
closed = 1;
nodes = (
"756 726 OFFCURVE",
"768 727 OFFCURVE",
"779 727 CURVE SMOOTH",
"790 728 OFFCURVE",
"801 728 OFFCURVE",
"812 729 CURVE",
"720 611 OFFCURVE",
"635 489 OFFCURVE",
"551 366 CURVE SMOOTH",
"467 243 OFFCURVE",
"383 120 OFFCURVE",
"292 2 CURVE",
"270 1 OFFCURVE",
"248 1 OFFCURVE",
"225 0 CURVE",
"317 117 OFFCURVE",
"401 240 OFFCURVE",
"485 363 CURVE SMOOTH",
"569 485 OFFCURVE",
"653 608 OFFCURVE",
"745 726 CURVE"
);
},
{
closed = 1;
nodes = (
"342 726 OFFCURVE",
"383 708 OFFCURVE",
"412 673 CURVE SMOOTH",
"438 641 OFFCURVE",
"448 599 OFFCURVE",
"448 556 CURVE SMOOTH",
"448 529 OFFCURVE",
"444 501 OFFCURVE",
"436 474 CURVE SMOOTH",
"427 447 OFFCURVE",
"414 421 OFFCURVE",
"394 399 CURVE SMOOTH",
"365 368 OFFCURVE",
"324 350 OFFCURVE",
"283 350 CURVE SMOOTH",
"261 350 OFFCURVE",
"239 354 OFFCURVE",
"219 362 CURVE SMOOTH",
"200 370 OFFCURVE",
"183 383 OFFCURVE",
"171 401 CURVE SMOOTH",
"145 439 OFFCURVE",
"138 488 OFFCURVE",
"138 535 CURVE SMOOTH",
"138 560 OFFCURVE",
"140 586 OFFCURVE",
"146 612 CURVE SMOOTH",
"152 637 OFFCURVE",
"162 662 OFFCURVE",
"179 683 CURVE SMOOTH",
"205 714 OFFCURVE",
"246 728 OFFCURVE",
"284 728 CURVE SMOOTH",
"286 728 OFFCURVE",
"288 728 OFFCURVE",
"290 728 CURVE",
"292 728 OFFCURVE",
"293 728 OFFCURVE",
"295 728 CURVE SMOOTH"
);
}
);
width = 992;
}
);
unicode = 0025;
},
{
glyphname = ampersand;
lastChange = "2014-11-05 03:29:49 -0500";
layers = (
{
layerId = "16808965-E153-4B2B-ADB3-00196C646C32";
name = "Regular Italic";
paths = (
{
closed = 1;
nodes = (
"195 392 OFFCURVE",
"169 364 OFFCURVE",
"151 333 CURVE SMOOTH",
"133 301 OFFCURVE",
"122 266 OFFCURVE",
"122 228 CURVE SMOOTH",
"122 179 OFFCURVE",
"141 145 OFFCURVE",
"171 122 CURVE SMOOTH",
"200 98 OFFCURVE",
"240 87 OFFCURVE",
"283 87 CURVE SMOOTH",
"344 87 OFFCURVE",
"406 111 OFFCURVE",
"455 152 CURVE",
"416 196 OFFCURVE",
"377 240 OFFCURVE",
"339 284 CURVE SMOOTH",
"301 328 OFFCURVE",
"263 372 OFFCURVE",
"225 416 CURVE"
);
},
{
closed = 1;
nodes = (
"319 416 OFFCURVE",
"358 373 OFFCURVE",
"397 330 CURVE SMOOTH",
"436 287 OFFCURVE",
"474 244 OFFCURVE",
"514 201 CURVE",
"535 229 OFFCURVE",
"548 258 OFFCURVE",
"558 290 CURVE SMOOTH",
"568 321 OFFCURVE",
"574 353 OFFCURVE",
"579 386 CURVE",
"591 386 OFFCURVE",
"604 386 OFFCURVE",
"616 386 CURVE SMOOTH",
"629 386 OFFCURVE",
"642 386 OFFCURVE",
"654 386 CURVE",
"647 346 OFFCURVE",
"639 306 OFFCURVE",
"629 267 CURVE SMOOTH",
"618 222 OFFCURVE",
"596 182 OFFCURVE",
"568 145 CURVE",
"589 121 OFFCURVE",
"610 98 OFFCURVE",
"631 75 CURVE SMOOTH",
"652 52 OFFCURVE",
"673 28 OFFCURVE",
"694 5 CURVE",
"659 8 OFFCURVE",
"623 11 OFFCURVE",
"586 13 CURVE",
"575 25 OFFCURVE",
"563 38 OFFCURVE",
"552 50 CURVE",
"540 63 OFFCURVE",
"528 75 OFFCURVE",
"517 88 CURVE",
"447 31 OFFCURVE",
"365 4 OFFCURVE",
"278 4 CURVE SMOOTH",
"247 4 OFFCURVE",
"216 8 OFFCURVE",
"187 17 CURVE SMOOTH",
"158 26 OFFCURVE",
"131 40 OFFCURVE",
"110 62 CURVE SMOOTH",
"77 95 OFFCURVE",
"62 143 OFFCURVE",
"62 191 CURVE SMOOTH",
"62 243 OFFCURVE",
"78 291 OFFCURVE",
"104 334 CURVE SMOOTH",
"129 376 OFFCURVE",
"166 413 OFFCURVE",
"208 442 CURVE",
"187 477 OFFCURVE",
"168 514 OFFCURVE",
"168 557 CURVE SMOOTH",
"168 579 OFFCURVE",
"173 603 OFFCURVE",
"182 625 CURVE SMOOTH",
"191 646 OFFCURVE",
"205 666 OFFCURVE",
"224 681 CURVE SMOOTH",
"265 714 OFFCURVE",
"316 723 OFFCURVE",
"366 723 CURVE SMOOTH",
"419 723 OFFCURVE",
"471 710 OFFCURVE",
"518 691 CURVE",
"506 672 OFFCURVE",
"494 652 OFFCURVE",
"482 633 CURVE",
"437 657 OFFCURVE",
"388 677 OFFCURVE",
"333 677 CURVE SMOOTH",
"302 677 OFFCURVE",
"273 667 OFFCURVE",
"251 650 CURVE SMOOTH",
"230 633 OFFCURVE",
"216 607 OFFCURVE",
"216 574 CURVE SMOOTH",
"216 551 OFFCURVE",
"225 531 OFFCURVE",
"237 512 CURVE SMOOTH",
"249 493 OFFCURVE",
"266 475 OFFCURVE",
"280 458 CURVE SMOOTH"
);
}
);
width = 824;
}
);
unicode = 0026;
},
{
glyphname = quotesingle;
lastChange = "2014-11-05 03:29:49 -0500";
layers = (
{
layerId = "16808965-E153-4B2B-ADB3-00196C646C32";
name = "Regular Italic";
paths = (
{
closed = 1;
nodes = (
"232 637 OFFCURVE",
"225 551 OFFCURVE",
"220 463 CURVE",
"209 466 OFFCURVE",
"198 468 OFFCURVE",
"186 468 CURVE SMOOTH",
"173 468 OFFCURVE",
"160 466 OFFCURVE",
"147 463 CURVE",
"158 551 OFFCURVE",
"166 637 OFFCURVE",
"170 725 CURVE",
"180 721 OFFCURVE",
"192 719 OFFCURVE",
"205 719 CURVE SMOOTH",
"218 719 OFFCURVE",
"230 721 OFFCURVE",
"243 725 CURVE"
);
}
);
width = 252;
}
);
unicode = 0027;
},
{
glyphname = parenleft;
lastChange = "2014-11-05 03:29:49 -0500";
layers = (
{
layerId = "16808965-E153-4B2B-ADB3-00196C646C32";
name = "Regular Italic";
paths = (
{
closed = 1;
nodes = (
"344 686 OFFCURVE",
"299 618 OFFCURVE",
"264 547 CURVE SMOOTH",
"229 476 OFFCURVE",
"203 400 OFFCURVE",
"195 322 CURVE",
"193 288 OFFCURVE",
"192 253 OFFCURVE",
"192 220 CURVE SMOOTH",
"192 181 OFFCURVE",
"194 144 OFFCURVE",
"197 105 CURVE SMOOTH",
"202 29 OFFCURVE",
"220 -43 OFFCURVE",
"247 -113 CURVE",
"217 -107 OFFCURVE",
"188 -105 OFFCURVE",
"156 -104 CURVE",
"121 -1 OFFCURVE",
"107 107 OFFCURVE",
"107 219 CURVE SMOOTH",
"107 256 OFFCURVE",
"109 293 OFFCURVE",
"112 331 CURVE",
"124 407 OFFCURVE",
"151 480 OFFCURVE",
"188 549 CURVE SMOOTH",
"225 618 OFFCURVE",
"271 683 OFFCURVE",
"322 743 CURVE",
"345 743 OFFCURVE",
"366 747 OFFCURVE",
"389 751 CURVE"
);
}
);
width = 368;
}
);
unicode = 0028;
},
{
glyphname = parenright;
lastChange = "2014-11-05 03:29:49 -0500";
layers = (
{
layerId = "16808965-E153-4B2B-ADB3-00196C646C32";
name = "Regular Italic";
paths = (
{
closed = 1;
nodes = (
"176 755 LINE",
"201 750 OFFCURVE",
"226 748 OFFCURVE",
"251 746 CURVE",
"297 644 OFFCURVE",
"314 537 OFFCURVE",
"314 417 CURVE SMOOTH",
"314 362 OFFCURVE",
"311 309 OFFCURVE",
"302 256 CURVE SMOOTH",
"292 204 OFFCURVE",
"276 153 OFFCURVE",
"251 104 CURVE SMOOTH",
"216 34 OFFCURVE",
"177 -33 OFFCURVE",
"134 -98 CURVE",
"101 -98 OFFCURVE",
"66 -101 OFFCURVE",
"33 -108 CURVE",
"80 -43 OFFCURVE",
"123 25 OFFCURVE",
"158 97 CURVE SMOOTH",
"193 168 OFFCURVE",
"220 242 OFFCURVE",
"231 320 CURVE",
"235 363 OFFCURVE",
"237 405 OFFCURVE",
"237 448 CURVE SMOOTH",
"237 562 OFFCURVE",
"221 662 OFFCURVE",
"182 762 CURVE",
"178 757 LINE"
);
}
);
width = 378;
}
);
unicode = 0029;
},
{
glyphname = asterisk;
lastChange = "2014-11-05 03:29:49 -0500";
layers = (
{
layerId = "16808965-E153-4B2B-ADB3-00196C646C32";
name = "Regular Italic";
paths = (
{
closed = 1;
nodes = (
"490 577 OFFCURVE",
"430 545 OFFCURVE",
"371 514 CURVE",
"426 482 OFFCURVE",
"479 451 OFFCURVE",
"532 417 CURVE",
"524 404 OFFCURVE",
"517 392 OFFCURVE",
"508 379 CURVE",
"458 413 OFFCURVE",
"408 447 OFFCURVE",
"357 480 CURVE",
"355 450 OFFCURVE",
"352 419 OFFCURVE",
"350 390 CURVE SMOOTH",
"347 360 OFFCURVE",
"345 330 OFFCURVE",
"343 299 CURVE",
"297 299 LINE",
"300 330 OFFCURVE",
"303 360 OFFCURVE",
"306 390 CURVE SMOOTH",
"309 419 OFFCURVE",
"312 450 OFFCURVE",
"314 480 CURVE",
"285 463 OFFCURVE",
"257 447 OFFCURVE",
"229 430 CURVE SMOOTH",
"202 413 OFFCURVE",
"173 396 OFFCURVE",
"145 379 CURVE",
"142 386 OFFCURVE",
"139 392 OFFCURVE",
"137 398 CURVE SMOOTH",
"134 405 OFFCURVE",
"131 411 OFFCURVE",
"128 417 CURVE",
"188 451 OFFCURVE",
"246 482 OFFCURVE",
"307 514 CURVE",
"252 544 OFFCURVE",
"198 577 OFFCURVE",
"146 610 CURVE",
"150 617 OFFCURVE",
"153 623 OFFCURVE",
"157 629 CURVE SMOOTH",
"160 636 OFFCURVE",
"164 642 OFFCURVE",
"168 648 CURVE",
"193 631 OFFCURVE",
"218 614 OFFCURVE",
"244 598 CURVE SMOOTH",
"270 581 OFFCURVE",
"295 564 OFFCURVE",
"320 548 CURVE",
"323 578 OFFCURVE",
"325 608 OFFCURVE",
"328 638 CURVE SMOOTH",
"330 668 OFFCURVE",
"333 698 OFFCURVE",
"335 729 CURVE",
"381 729 LINE",
"375 668 OFFCURVE",
"369 608 OFFCURVE",
"363 548 CURVE",
"420 581 OFFCURVE",
"476 614 OFFCURVE",
"533 649 CURVE",
"538 636 OFFCURVE",
"543 624 OFFCURVE",
"549 610 CURVE"
);
}
);
width = 574;
}
);
unicode = 002A;
},
{
glyphname = plus;
lastChange = "2014-11-05 03:29:49 -0500";
layers = (
{
layerId = "16808965-E153-4B2B-ADB3-00196C646C32";
name = "Regular Italic";
paths = (
{
closed = 1;
nodes = (
"438 609 LINE",
"428 522 OFFCURVE",
"420 436 OFFCURVE",
"413 348 CURVE",
"498 348 OFFCURVE",
"582 348 OFFCURVE",
"667 350 CURVE",
"661 277 LINE",
"618 277 OFFCURVE",
"576 278 OFFCURVE",
"534 278 CURVE SMOOTH",
"491 278 OFFCURVE",
"449 278 OFFCURVE",
"406 278 CURVE",
"403 234 OFFCURVE",
"399 191 OFFCURVE",
"396 147 CURVE SMOOTH",
"392 104 OFFCURVE",
"389 60 OFFCURVE",
"386 17 CURVE",
"314 17 LINE",
"318 60 OFFCURVE",
"322 104 OFFCURVE",
"327 147 CURVE SMOOTH",
"331 191 OFFCURVE",
"335 234 OFFCURVE",
"338 278 CURVE",
"296 278 OFFCURVE",
"253 278 OFFCURVE",
"211 277 CURVE SMOOTH",
"169 277 OFFCURVE",
"126 277 OFFCURVE",
"84 277 CURVE",
"90 350 LINE",
"176 348 OFFCURVE",
"259 348 OFFCURVE",
"345 348 CURVE",
"349 392 OFFCURVE",
"353 436 OFFCURVE",
"356 479 CURVE SMOOTH",
"359 522 OFFCURVE",
"363 566 OFFCURVE",
"366 609 CURVE"
);
}
);
width = 732;
}
);
unicode = 002B;
},
{
glyphname = comma;
lastChange = "2014-11-05 03:29:49 -0500";
layers = (
{
layerId = "16808965-E153-4B2B-ADB3-00196C646C32";
name = "Regular Italic";
paths = (
{
closed = 1;
nodes = (
"60 109 OFFCURVE",
"65 109 OFFCURVE",
"70 109 CURVE SMOOTH",
"75 109 OFFCURVE",
"80 109 OFFCURVE",
"85 109 CURVE SMOOTH",
"113 109 OFFCURVE",
"140 111 OFFCURVE",
"169 114 CURVE",
"163 82 OFFCURVE",
"159 50 OFFCURVE",
"155 17 CURVE",
"136 -8 OFFCURVE",
"118 -33 OFFCURVE",
"99 -58 CURVE SMOOTH",
"80 -83 OFFCURVE",
"61 -107 OFFCURVE",
"40 -131 CURVE",
"31 -132 OFFCURVE",
"22 -132 OFFCURVE",
"14 -133 CURVE SMOOTH",
"5 -133 OFFCURVE",
"-4 -134 OFFCURVE",
"-13 -136 CURVE",
"-2 -111 OFFCURVE",
"9 -86 OFFCURVE",
"19 -62 CURVE SMOOTH",
"29 -37 OFFCURVE",
"39 -12 OFFCURVE",
"49 13 CURVE",
"51 46 OFFCURVE",
"53 77 OFFCURVE",
"55 110 CURVE"
);
}
);
width = 282;
}
);
unicode = 002C;
},
{
glyphname = hyphen;
lastChange = "2014-11-05 03:29:49 -0500";
layers = (
{
layerId = "16808965-E153-4B2B-ADB3-00196C646C32";
name = "Regular Italic";
paths = (
{
closed = 1;
nodes = (
"87 309 OFFCURVE",
"93 309 OFFCURVE",
"99 309 CURVE",
"104 309 OFFCURVE",
"110 309 OFFCURVE",
"115 309 CURVE SMOOTH",
"188 309 OFFCURVE",
"260 312 OFFCURVE",
"333 314 CURVE",
"324 299 OFFCURVE",
"319 281 OFFCURVE",
"319 264 CURVE SMOOTH",
"319 257 OFFCURVE",
"320 250 OFFCURVE",
"322 243 CURVE",
"237 243 OFFCURVE",
"155 242 OFFCURVE",
"70 239 CURVE",
"79 254 OFFCURVE",
"83 272 OFFCURVE",
"83 289 CURVE SMOOTH",
"83 296 OFFCURVE",
"83 303 OFFCURVE",
"82 309 CURVE"
);
}
);
width = 401;
}
);
unicode = 002D;
},
{
glyphname = period;
lastChange = "2014-11-05 03:29:49 -0500";
layers = (
{
layerId = "16808965-E153-4B2B-ADB3-00196C646C32";
name = "Regular Italic";
paths = (
{
closed = 1;
nodes = (
"48 153 LINE",
"69 151 OFFCURVE",
"90 150 OFFCURVE",
"112 150 CURVE SMOOTH",
"136 150 OFFCURVE",
"161 151 OFFCURVE",
"185 153 CURVE",
"176 111 OFFCURVE",
"171 68 OFFCURVE",
"171 25 CURVE SMOOTH",
"171 21 OFFCURVE",
"171 18 OFFCURVE",
"171 15 CURVE SMOOTH",
"171 11 OFFCURVE",
"171 8 OFFCURVE",
"172 5 CURVE",
"149 7 OFFCURVE",
"127 8 OFFCURVE",
"104 8 CURVE SMOOTH",
"81 8 OFFCURVE",
"58 7 OFFCURVE",
"35 5 CURVE",
"44 48 OFFCURVE",
"48 91 OFFCURVE",
"48 135 CURVE SMOOTH"
);
}
);
width = 302;
}
);
unicode = 002E;
},
{
glyphname = slash;
lastChange = "2014-11-05 03:29:49 -0500";
layers = (
{
layerId = "16808965-E153-4B2B-ADB3-00196C646C32";
name = "Regular Italic";
paths = (
{
closed = 1;
nodes = (
"367 707 OFFCURVE",
"388 709 OFFCURVE",
"409 712 CURVE",
"354 582 OFFCURVE",
"303 450 OFFCURVE",
"253 317 CURVE SMOOTH",
"203 185 OFFCURVE",
"153 52 OFFCURVE",
"99 -79 CURVE",
"65 -81 OFFCURVE",
"31 -83 OFFCURVE",
"-3 -88 CURVE",
"58 43 OFFCURVE",
"114 176 OFFCURVE",
"171 309 CURVE SMOOTH",
"228 441 OFFCURVE",
"285 574 OFFCURVE",
"346 705 CURVE"
);
}
);
width = 389;
}
);
unicode = 002F;
},
{
glyphname = zero;
lastChange = "2014-11-05 03:29:49 -0500";
layers = (
{
layerId = "16808965-E153-4B2B-ADB3-00196C646C32";
name = "Regular Italic";
paths = (
{
closed = 1;
nodes = (
"376 324 OFFCURVE",
"391 373 OFFCURVE",
"395 410 CURVE SMOOTH",
"402 480 OFFCURVE",
"396 523 OFFCURVE",
"355 523 CURVE SMOOTH",
"309 523 OFFCURVE",
"297 467 OFFCURVE",
"292 410 CURVE SMOOTH",
"288 373 OFFCURVE",
"293 324 OFFCURVE",
"334 324 CURVE SMOOTH"
);
},
{
closed = 1;
nodes = (
"554 725 OFFCURVE",
"582 557 OFFCURVE",
"575 408 CURVE SMOOTH",
"568 247 OFFCURVE",
"517 5 OFFCURVE",
"313 5 CURVE SMOOTH",
"118 -1 OFFCURVE",
"101 189 OFFCURVE",
"108 340 CURVE SMOOTH",
"117 500 OFFCURVE",
"175 723 OFFCURVE",
"372 723 CURVE",
"372 723 OFFCURVE",
"338 723 OFFCURVE",
"372 723 CURVE SMOOTH"
);
},
{
closed = 1;
nodes = (
"245 699 OFFCURVE",
"212 547 OFFCURVE",
"203 446 CURVE SMOOTH",
"194 345 OFFCURVE",
"180 169 OFFCURVE",
"323 169 CURVE",
"360 151 OFFCURVE",
"417 206 OFFCURVE",
"436 231 CURVE SMOOTH",
"473 286 OFFCURVE",
"488 354 OFFCURVE",
"497 418 CURVE SMOOTH",
"512 521 OFFCURVE",
"519 694 OFFCURVE",
"375 694 CURVE SMOOTH",
"375 694 OFFCURVE",
"377 694 OFFCURVE",
"375 694 CURVE"
);
}
);
width = 619;
}
);
unicode = 0030;
},
{
glyphname = one;
lastChange = "2014-11-05 03:29:49 -0500";
layers = (
{
layerId = "16808965-E153-4B2B-ADB3-00196C646C32";
name = "Regular Italic";
paths = (
{
closed = 1;
nodes = (
"186 137 OFFCURVE",
"237 140 OFFCURVE",
"289 141 CURVE",
"304 306 OFFCURVE",
"318 468 OFFCURVE",
"331 633 CURVE",
"274 623 OFFCURVE",
"218 615 OFFCURVE",
"161 610 CURVE",
"161 624 OFFCURVE",
"162 637 OFFCURVE",
"162 650 CURVE",
"162 663 OFFCURVE",
"162 676 OFFCURVE",
"163 690 CURVE",
"220 692 OFFCURVE",
"275 701 OFFCURVE",
"333 710 CURVE",
"340 710 OFFCURVE",
"348 710 OFFCURVE",
"356 710 CURVE SMOOTH",
"364 710 OFFCURVE",
"372 710 OFFCURVE",
"379 710 CURVE SMOOTH",
"387 710 OFFCURVE",
"395 710 OFFCURVE",
"402 710 CURVE SMOOTH",
"410 710 OFFCURVE",
"418 710 OFFCURVE",
"426 711 CURVE",
"405 520 OFFCURVE",
"388 332 OFFCURVE",
"374 141 CURVE",
"425 139 OFFCURVE",
"477 138 OFFCURVE",
"527 132 CURVE",
"526 95 OFFCURVE",
"525 59 OFFCURVE",
"525 22 CURVE SMOOTH",
"525 5 LINE",
"456 14 OFFCURVE",
"387 19 OFFCURVE",
"317 19 CURVE SMOOTH",
"249 19 OFFCURVE",
"183 15 OFFCURVE",
"115 7 CURVE",
"122 49 OFFCURVE",
"127 90 OFFCURVE",
"133 133 CURVE"
);
}
);
width = 655;
}
);
unicode = 0031;
},
{
glyphname = two;
lastChange = "2014-11-05 03:29:49 -0500";
layers = (
{
layerId = "16808965-E153-4B2B-ADB3-00196C646C32";
name = "Regular Italic";
paths = (
{
closed = 1;
nodes = (
"399 146 OFFCURVE",
"473 145 OFFCURVE",
"549 137 CURVE",
"547 93 OFFCURVE",
"547 49 OFFCURVE",
"547 5 CURVE",
"473 14 OFFCURVE",
"399 19 OFFCURVE",
"325 19 CURVE SMOOTH",
"248 19 OFFCURVE",
"171 14 OFFCURVE",
"94 5 CURVE",
"101 50 OFFCURVE",
"108 95 OFFCURVE",
"115 140 CURVE",
"168 186 OFFCURVE",
"225 229 OFFCURVE",
"281 271 CURVE",
"322 299 OFFCURVE",
"360 327 OFFCURVE",
"396 362 CURVE",
"395 362 LINE",
"421 389 OFFCURVE",
"446 417 OFFCURVE",
"465 450 CURVE",
"465 449 LINE",
"481 477 OFFCURVE",
"492 506 OFFCURVE",
"492 537 CURVE SMOOTH",
"492 576 OFFCURVE",
"476 604 OFFCURVE",
"451 624 CURVE SMOOTH",
"426 643 OFFCURVE",
"393 651 OFFCURVE",
"358 651 CURVE SMOOTH",
"290 651 OFFCURVE",
"224 631 OFFCURVE",
"160 602 CURVE",
"161 631 OFFCURVE",
"162 660 OFFCURVE",
"162 689 CURVE",
"229 706 OFFCURVE",
"295 723 OFFCURVE",
"363 723 CURVE SMOOTH",
"394 723 OFFCURVE",
"424 720 OFFCURVE",
"454 713 CURVE SMOOTH",
"483 705 OFFCURVE",
"510 693 OFFCURVE",
"533 674 CURVE SMOOTH",
"566 646 OFFCURVE",
"579 606 OFFCURVE",
"579 563 CURVE SMOOTH",
"579 523 OFFCURVE",
"569 487 OFFCURVE",
"553 454 CURVE SMOOTH",
"537 420 OFFCURVE",
"514 388 OFFCURVE",
"487 357 CURVE",
"488 357 LINE",
"461 331 OFFCURVE",
"435 304 OFFCURVE",
"408 278 CURVE SMOOTH",
"371 243 OFFCURVE",
"335 201 OFFCURVE",
"318 152 CURVE",
"319 151 OFFCURVE",
"320 150 OFFCURVE",
"321 149 CURVE",
"321 148 OFFCURVE",
"322 147 OFFCURVE",
"323 146 CURVE"
);
}
);
width = 677;
}
);
unicode = 0032;
},
{
glyphname = three;
lastChange = "2014-11-05 03:29:49 -0500";
layers = (
{
layerId = "16808965-E153-4B2B-ADB3-00196C646C32";
name = "Regular Italic";
paths = (
{
closed = 1;
nodes = (
"471 385 OFFCURVE",
"507 369 OFFCURVE",
"528 338 CURVE SMOOTH",
"547 309 OFFCURVE",
"556 275 OFFCURVE",
"556 240 CURVE SMOOTH",
"556 208 OFFCURVE",
"552 174 OFFCURVE",
"541 142 CURVE SMOOTH",
"530 110 OFFCURVE",
"511 81 OFFCURVE",
"483 59 CURVE",
"448 34 OFFCURVE",
"409 21 OFFCURVE",
"370 13 CURVE SMOOTH",
"330 5 OFFCURVE",
"291 4 OFFCURVE",
"253 4 CURVE SMOOTH",
"196 4 OFFCURVE",
"140 11 OFFCURVE",
"85 25 CURVE",
"93 73 OFFCURVE",
"100 120 OFFCURVE",
"105 167 CURVE",
"154 140 OFFCURVE",
"212 132 OFFCURVE",
"270 132 CURVE SMOOTH",
"295 132 OFFCURVE",
"323 133 OFFCURVE",
"349 139 CURVE SMOOTH",
"375 145 OFFCURVE",
"400 154 OFFCURVE",
"421 172 CURVE",
"421 172 LINE",
"433 182 OFFCURVE",
"447 192 OFFCURVE",
"457 205 CURVE SMOOTH",
"467 217 OFFCURVE",
"475 231 OFFCURVE",
"475 249 CURVE SMOOTH",
"475 280 OFFCURVE",
"458 308 OFFCURVE",
"437 328 CURVE SMOOTH",
"415 347 OFFCURVE",
"387 356 OFFCURVE",
"357 360 CURVE SMOOTH",
"343 362 OFFCURVE",
"328 363 OFFCURVE",
"313 363 CURVE SMOOTH",
"298 363 OFFCURVE",
"283 363 OFFCURVE",
"269 363 CURVE SMOOTH",
"244 363 LINE",
"245 375 OFFCURVE",
"246 386 OFFCURVE",
"247 398 CURVE",
"248 409 OFFCURVE",
"249 421 OFFCURVE",
"250 432 CURVE",
"265 432 OFFCURVE",
"281 432 OFFCURVE",
"296 432 CURVE SMOOTH",
"311 431 OFFCURVE",
"326 431 OFFCURVE",
"342 431 CURVE SMOOTH",
"379 431 OFFCURVE",
"416 443 OFFCURVE",
"443 466 CURVE SMOOTH",
"470 488 OFFCURVE",
"487 521 OFFCURVE",
"487 563 CURVE SMOOTH",
"487 604 OFFCURVE",
"465 629 OFFCURVE",
"437 644 CURVE SMOOTH",
"407 657 OFFCURVE",
"372 661 OFFCURVE",
"344 661 CURVE SMOOTH",
"283 661 OFFCURVE",
"224 651 OFFCURVE",
"164 637 CURVE",
"164 648 OFFCURVE",
"165 659 OFFCURVE",
"165 670 CURVE",
"165 681 OFFCURVE",
"165 692 OFFCURVE",
"166 704 CURVE",
"230 714 OFFCURVE",
"293 723 OFFCURVE",
"358 723 CURVE SMOOTH",
"406 723 OFFCURVE",
"460 716 OFFCURVE",
"501 694 CURVE SMOOTH",
"543 673 OFFCURVE",
"573 636 OFFCURVE",
"573 577 CURVE SMOOTH",
"573 536 OFFCURVE",
"559 495 OFFCURVE",
"535 462 CURVE SMOOTH",
"510 430 OFFCURVE",
"475 405 OFFCURVE",
"433 397 CURVE",
"433 396 OFFCURVE",
"433 394 OFFCURVE",
"433 392 CURVE",
"432 391 OFFCURVE",
"432 389 OFFCURVE",
"432 387 CURVE"
);
}
);
width = 644;
}
);
unicode = 0033;
},
{
glyphname = four;
lastChange = "2014-11-05 03:29:49 -0500";
layers = (
{
layerId = "16808965-E153-4B2B-ADB3-00196C646C32";
name = "Regular Italic";
paths = (
{
closed = 1;
nodes = (
"323 550 OFFCURVE",
"230 418 OFFCURVE",
"136 284 CURVE",
"218 286 OFFCURVE",
"297 286 OFFCURVE",
"379 286 CURVE",
"391 419 OFFCURVE",
"405 548 OFFCURVE",
"422 681 CURVE"
);
},
{
closed = 1;
nodes = (
"436 711 OFFCURVE",
"475 713 OFFCURVE",
"514 715 CURVE",
"493 571 OFFCURVE",
"481 429 OFFCURVE",
"471 285 CURVE",
"487 285 OFFCURVE",
"502 285 OFFCURVE",
"518 285 CURVE SMOOTH",
"533 284 OFFCURVE",
"548 284 OFFCURVE",
"563 284 CURVE",
"563 271 OFFCURVE",
"562 260 OFFCURVE",
"562 248 CURVE",
"561 235 OFFCURVE",
"560 224 OFFCURVE",
"559 211 CURVE",
"543 212 OFFCURVE",
"528 213 OFFCURVE",
"513 213 CURVE SMOOTH",
"497 214 OFFCURVE",
"481 214 OFFCURVE",
"466 215 CURVE",
"465 192 OFFCURVE",
"465 170 OFFCURVE",
"465 147 CURVE SMOOTH",
"465 103 OFFCURVE",
"466 58 OFFCURVE",
"467 13 CURVE",
"426 17 OFFCURVE",
"386 18 OFFCURVE",
"345 18 CURVE",
"349 52 OFFCURVE",
"353 85 OFFCURVE",
"356 118 CURVE SMOOTH",
"360 150 OFFCURVE",
"364 184 OFFCURVE",
"368 217 CURVE",
"317 217 LINE SMOOTH",
"233 217 OFFCURVE",
"150 215 OFFCURVE",
"66 211 CURVE",
"68 230 OFFCURVE",
"70 248 OFFCURVE",
"72 267 CURVE",
"179 417 OFFCURVE",
"285 563 OFFCURVE",
"397 710 CURVE"
);
}
);
width = 645;
}
);
unicode = 0034;
},
{
glyphname = five;
lastChange = "2014-11-05 03:29:49 -0500";
layers = (
{
layerId = "16808965-E153-4B2B-ADB3-00196C646C32";
name = "Regular Italic";
paths = (
{
closed = 1;
nodes = (
"234 712 OFFCURVE",
"298 709 OFFCURVE",
"364 709 CURVE SMOOTH",
"425 709 OFFCURVE",
"486 712 OFFCURVE",
"547 718 CURVE",
"545 708 OFFCURVE",
"543 697 OFFCURVE",
"542 686 CURVE SMOOTH",
"541 675 OFFCURVE",
"539 665 OFFCURVE",
"537 654 CURVE",
"479 649 OFFCURVE",
"421 647 OFFCURVE",
"363 647 CURVE SMOOTH",
"320 647 OFFCURVE",
"278 648 OFFCURVE",
"236 650 CURVE",
"233 585 OFFCURVE",
"229 521 OFFCURVE",
"224 457 CURVE",
"256 464 OFFCURVE",
"288 471 OFFCURVE",
"320 471 CURVE SMOOTH",
"352 471 OFFCURVE",
"385 467 OFFCURVE",
"415 458 CURVE SMOOTH",
"444 448 OFFCURVE",
"472 433 OFFCURVE",
"494 410 CURVE SMOOTH",
"531 369 OFFCURVE",
"545 315 OFFCURVE",
"545 258 CURVE SMOOTH",
"545 225 OFFCURVE",
"541 188 OFFCURVE",
"529 152 CURVE SMOOTH",
"518 117 OFFCURVE",
"498 85 OFFCURVE",
"467 61 CURVE SMOOTH",
"437 37 OFFCURVE",
"401 22 OFFCURVE",
"365 15 CURVE SMOOTH",
"328 6 OFFCURVE",
"290 4 OFFCURVE",
"254 4 CURVE SMOOTH",
"195 4 OFFCURVE",
"137 8 OFFCURVE",
"80 21 CURVE",
"84 45 OFFCURVE",
"88 68 OFFCURVE",
"91 92 CURVE SMOOTH",
"95 115 OFFCURVE",
"98 139 OFFCURVE",
"101 162 CURVE",
"150 135 OFFCURVE",
"207 126 OFFCURVE",
"265 126 CURVE SMOOTH",
"289 126 OFFCURVE",
"314 129 OFFCURVE",
"339 135 CURVE SMOOTH",
"363 142 OFFCURVE",
"386 152 OFFCURVE",
"406 170 CURVE SMOOTH",
"421 184 OFFCURVE",
"434 197 OFFCURVE",
"443 213 CURVE SMOOTH",
"453 229 OFFCURVE",
"458 247 OFFCURVE",
"458 269 CURVE SMOOTH",
"458 308 OFFCURVE",
"446 346 OFFCURVE",
"417 369 CURVE",
"379 396 OFFCURVE",
"337 401 OFFCURVE",
"298 401 CURVE SMOOTH",
"248 401 OFFCURVE",
"198 391 OFFCURVE",
"151 370 CURVE",
"161 487 OFFCURVE",
"167 603 OFFCURVE",
"169 720 CURVE"
);
}
);
width = 629;
}
);
unicode = 0035;
},
{
glyphname = six;
lastChange = "2014-11-05 03:29:49 -0500";
layers = (
{
layerId = "16808965-E153-4B2B-ADB3-00196C646C32";
name = "Regular Italic";
paths = (
{
closed = 1;
nodes = (
"303 406 OFFCURVE",
"265 392 OFFCURVE",
"236 361 CURVE SMOOTH",
"220 343 OFFCURVE",
"207 320 OFFCURVE",
"199 296 CURVE SMOOTH",
"190 272 OFFCURVE",
"186 248 OFFCURVE",
"186 225 CURVE SMOOTH",
"186 188 OFFCURVE",
"205 165 OFFCURVE",
"231 151 CURVE SMOOTH",
"258 137 OFFCURVE",
"292 132 OFFCURVE",
"323 132 CURVE SMOOTH",
"355 132 OFFCURVE",
"391 139 OFFCURVE",
"419 156 CURVE SMOOTH",
"447 173 OFFCURVE",
"467 200 OFFCURVE",
"469 237 CURVE",
"469 241 OFFCURVE",
"469 245 OFFCURVE",
"469 249 CURVE",
"469 252 OFFCURVE",
"469 256 OFFCURVE",
"469 260 CURVE SMOOTH",
"469 297 OFFCURVE",
"463 332 OFFCURVE",
"441 361 CURVE",
"420 393 OFFCURVE",
"381 406 OFFCURVE",
"343 406 CURVE SMOOTH"
);
},
{
closed = 1;
nodes = (
"560 708 LINE",
"555 681 OFFCURVE",
"551 654 OFFCURVE",
"548 626 CURVE",
"507 643 OFFCURVE",
"464 652 OFFCURVE",
"419 652 CURVE SMOOTH",
"390 652 OFFCURVE",
"360 648 OFFCURVE",
"333 638 CURVE SMOOTH",
"305 628 OFFCURVE",
"279 612 OFFCURVE",
"259 588 CURVE SMOOTH",
"233 556 OFFCURVE",
"217 521 OFFCURVE",
"206 485 CURVE SMOOTH",
"194 449 OFFCURVE",
"188 412 OFFCURVE",
"183 376 CURVE",
"204 405 OFFCURVE",
"230 429 OFFCURVE",
"261 446 CURVE SMOOTH",
"291 462 OFFCURVE",
"324 472 OFFCURVE",
"359 472 CURVE SMOOTH",
"387 472 OFFCURVE",
"416 467 OFFCURVE",
"442 458 CURVE SMOOTH",
"468 448 OFFCURVE",
"491 432 OFFCURVE",
"508 411 CURVE SMOOTH",
"526 391 OFFCURVE",
"537 367 OFFCURVE",
"544 341 CURVE SMOOTH",
"551 316 OFFCURVE",
"554 289 OFFCURVE",
"554 262 CURVE SMOOTH",
"554 229 OFFCURVE",
"550 191 OFFCURVE",
"540 157 CURVE SMOOTH",
"529 122 OFFCURVE",
"511 89 OFFCURVE",
"483 63 CURVE SMOOTH",
"458 39 OFFCURVE",
"429 24 OFFCURVE",
"397 16 CURVE SMOOTH",
"366 8 OFFCURVE",
"333 5 OFFCURVE",
"302 5 CURVE SMOOTH",
"267 5 OFFCURVE",
"233 11 OFFCURVE",
"203 25 CURVE SMOOTH",
"173 39 OFFCURVE",
"148 60 OFFCURVE",
"132 91 CURVE SMOOTH",
"103 144 OFFCURVE",
"96 204 OFFCURVE",
"96 267 CURVE SMOOTH",
"96 322 OFFCURVE",
"98 387 OFFCURVE",
"112 452 CURVE SMOOTH",
"125 516 OFFCURVE",
"150 579 OFFCURVE",
"193 629 CURVE SMOOTH",
"223 665 OFFCURVE",
"261 688 OFFCURVE",
"301 703 CURVE SMOOTH",
"342 718 OFFCURVE",
"386 723 OFFCURVE",
"428 723 CURVE SMOOTH",
"475 723 OFFCURVE",
"520 715 OFFCURVE",
"563 704 CURVE",
"560 708 LINE"
);
}
);
width = 638;
}
);
unicode = 0036;
},
{
glyphname = seven;
lastChange = "2014-11-05 03:29:49 -0500";
layers = (
{
layerId = "16808965-E153-4B2B-ADB3-00196C646C32";
name = "Regular Italic";
paths = (
{
closed = 1;
nodes = (
"243 714 OFFCURVE",
"316 709 OFFCURVE",
"390 709 CURVE SMOOTH",
"469 709 OFFCURVE",
"546 715 OFFCURVE",
"624 725 CURVE",
"623 718 OFFCURVE",
"622 712 OFFCURVE",
"621 707 CURVE",
"620 701 OFFCURVE",
"619 695 OFFCURVE",
"618 688 CURVE",
"572 579 OFFCURVE",
"532 467 OFFCURVE",
"494 355 CURVE SMOOTH",
"475 299 OFFCURVE",
"456 243 OFFCURVE",
"438 187 CURVE SMOOTH",
"419 130 OFFCURVE",
"401 74 OFFCURVE",
"382 18 CURVE",
"374 19 OFFCURVE",
"365 19 OFFCURVE",
"357 19 CURVE SMOOTH",
"349 19 OFFCURVE",
"340 19 OFFCURVE",
"332 19 CURVE SMOOTH",
"293 19 OFFCURVE",
"255 18 OFFCURVE",
"216 15 CURVE",
"272 120 OFFCURVE",
"325 227 OFFCURVE",
"378 334 CURVE SMOOTH",
"430 441 OFFCURVE",
"481 548 OFFCURVE",
"538 654 CURVE",
"485 650 OFFCURVE",
"433 648 OFFCURVE",
"380 648 CURVE SMOOTH",
"309 648 OFFCURVE",
"239 651 OFFCURVE",
"169 661 CURVE",
"170 671 OFFCURVE",
"170 682 OFFCURVE",
"170 693 CURVE SMOOTH",
"170 703 OFFCURVE",
"170 714 OFFCURVE",
"170 725 CURVE"
);
}
);
width = 603;
}
);
unicode = 0037;
},
{
glyphname = eight;
lastChange = "2014-11-05 03:29:49 -0500";
layers = (
{
layerId = "16808965-E153-4B2B-ADB3-00196C646C32";
name = "Regular Italic";
paths = (
{
closed = 1;
nodes = (
"288 360 OFFCURVE",
"247 350 OFFCURVE",
"216 322 CURVE SMOOTH",
"184 294 OFFCURVE",
"166 250 OFFCURVE",
"167 209 CURVE SMOOTH",
"167 184 OFFCURVE",
"181 163 OFFCURVE",
"198 146 CURVE SMOOTH",
"212 133 OFFCURVE",
"229 125 OFFCURVE",
"248 120 CURVE SMOOTH",
"266 115 OFFCURVE",
"286 113 OFFCURVE",
"305 113 CURVE SMOOTH",
"324 113 OFFCURVE",
"344 115 OFFCURVE",
"364 120 CURVE SMOOTH",
"383 125 OFFCURVE",
"402 133 OFFCURVE",
"417 146 CURVE SMOOTH",
"445 169 OFFCURVE",
"462 195 OFFCURVE",
"462 231 CURVE SMOOTH",
"462 266 OFFCURVE",
"453 298 OFFCURVE",
"430 323 CURVE SMOOTH",
"403 351 OFFCURVE",
"366 361 OFFCURVE",
"327 360 CURVE SMOOTH"
);
},
{
closed = 1;
nodes = (
"238 391 LINE",
"205 397 OFFCURVE",
"179 416 OFFCURVE",
"161 441 CURVE SMOOTH",
"144 467 OFFCURVE",
"134 498 OFFCURVE",
"134 531 CURVE SMOOTH",
"134 557 OFFCURVE",
"138 583 OFFCURVE",
"147 606 CURVE SMOOTH",
"156 630 OFFCURVE",
"171 652 OFFCURVE",
"193 669 CURVE",
"194 669 LINE",
"217 687 OFFCURVE",
"245 698 OFFCURVE",
"273 705 CURVE SMOOTH",
"301 711 OFFCURVE",
"330 713 OFFCURVE",
"358 713 CURVE SMOOTH",
"386 713 OFFCURVE",
"415 712 OFFCURVE",
"441 706 CURVE SMOOTH",
"468 699 OFFCURVE",
"493 688 OFFCURVE",
"514 670 CURVE SMOOTH",
"542 646 OFFCURVE",
"553 611 OFFCURVE",
"553 574 CURVE SMOOTH",
"553 535 OFFCURVE",
"542 493 OFFCURVE",
"519 459 CURVE SMOOTH",
"496 425 OFFCURVE",
"463 399 OFFCURVE",
"420 391 CURVE",
"419 383 LINE",
"458 374 OFFCURVE",
"492 354 OFFCURVE",
"516 327 CURVE SMOOTH",
"540 299 OFFCURVE",
"554 263 OFFCURVE",
"554 220 CURVE SMOOTH",
"554 190 OFFCURVE",
"550 158 OFFCURVE",
"539 129 CURVE SMOOTH",
"528 99 OFFCURVE",
"511 72 OFFCURVE",
"483 53 CURVE SMOOTH",
"456 33 OFFCURVE",
"425 21 OFFCURVE",
"393 14 CURVE SMOOTH",
"361 6 OFFCURVE",
"328 4 OFFCURVE",
"296 4 CURVE SMOOTH",
"263 4 OFFCURVE",
"231 7 OFFCURVE",
"200 14 CURVE SMOOTH",
"169 21 OFFCURVE",
"141 33 OFFCURVE",
"116 52 CURVE SMOOTH",
"81 80 OFFCURVE",
"69 125 OFFCURVE",
"69 169 CURVE SMOOTH",
"69 195 OFFCURVE",
"73 223 OFFCURVE",
"82 249 CURVE SMOOTH",
"91 275 OFFCURVE",
"104 300 OFFCURVE",
"125 320 CURVE",
"154 353 OFFCURVE",
"195 373 OFFCURVE",
"237 382 CURVE"
);
},
{
closed = 1;
nodes = (
"210 560 OFFCURVE",
"209 554 OFFCURVE",
"209 549 CURVE SMOOTH",
"209 518 OFFCURVE",
"223 492 OFFCURVE",
"244 474 CURVE SMOOTH",
"265 455 OFFCURVE",
"293 443 OFFCURVE",
"323 443 CURVE SMOOTH",
"325 443 OFFCURVE",
"327 443 OFFCURVE",
"329 443 CURVE SMOOTH",
"330 443 OFFCURVE",
"332 443 OFFCURVE",
"334 444 CURVE",
"335 443 OFFCURVE",
"337 443 OFFCURVE",
"339 443 CURVE SMOOTH",
"341 443 OFFCURVE",
"343 443 OFFCURVE",
"345 443 CURVE SMOOTH",
"381 443 OFFCURVE",
"415 458 OFFCURVE",
"439 483 CURVE SMOOTH",
"464 507 OFFCURVE",
"479 541 OFFCURVE",
"479 578 CURVE SMOOTH",
"479 614 OFFCURVE",
"463 639 OFFCURVE",
"439 654 CURVE SMOOTH",
"415 669 OFFCURVE",
"383 675 OFFCURVE",
"352 675 CURVE SMOOTH",
"319 675 OFFCURVE",
"285 666 OFFCURVE",
"258 648 CURVE SMOOTH",
"231 630 OFFCURVE",
"212 603 OFFCURVE",
"211 566 CURVE"
);
}
);
width = 645;
}
);
unicode = 0038;
},
{
glyphname = nine;
lastChange = "2014-11-05 03:29:49 -0500";
layers = (
{
layerId = "16808965-E153-4B2B-ADB3-00196C646C32";
name = "Regular Italic";
paths = (
{
closed = 1;
nodes = (
"118 20 LINE",
"125 66 OFFCURVE",
"131 112 OFFCURVE",
"137 159 CURVE",
"178 141 OFFCURVE",
"221 132 OFFCURVE",
"266 132 CURVE SMOOTH",
"292 132 OFFCURVE",
"319 133 OFFCURVE",
"346 138 CURVE SMOOTH",
"373 144 OFFCURVE",
"398 151 OFFCURVE",
"421 167 CURVE",
"449 189 OFFCURVE",
"464 220 OFFCURVE",
"474 253 CURVE SMOOTH",
"479 269 OFFCURVE",
"483 286 OFFCURVE",
"486 303 CURVE SMOOTH",
"488 320 OFFCURVE",
"491 336 OFFCURVE",
"494 352 CURVE",
"473 323 OFFCURVE",
"447 299 OFFCURVE",
"417 282 CURVE SMOOTH",
"387 266 OFFCURVE",
"353 256 OFFCURVE",
"318 256 CURVE SMOOTH",
"289 256 OFFCURVE",
"261 260 OFFCURVE",
"235 270 CURVE SMOOTH",
"209 280 OFFCURVE",
"186 295 OFFCURVE",
"168 317 CURVE SMOOTH",
"151 337 OFFCURVE",
"141 361 OFFCURVE",
"134 387 CURVE SMOOTH",
"127 413 OFFCURVE",
"124 440 OFFCURVE",
"124 468 CURVE SMOOTH",
"124 501 OFFCURVE",
"128 537 OFFCURVE",
"139 572 CURVE SMOOTH",
"149 606 OFFCURVE",
"167 639 OFFCURVE",
"194 664 CURVE SMOOTH",
"220 688 OFFCURVE",
"249 702 OFFCURVE",
"280 711 CURVE SMOOTH",
"311 720 OFFCURVE",
"344 723 OFFCURVE",
"375 723 CURVE SMOOTH",
"409 723 OFFCURVE",
"442 717 OFFCURVE",
"472 704 CURVE SMOOTH",
"501 690 OFFCURVE",
"526 670 OFFCURVE",
"542 641 CURVE SMOOTH",
"573 583 OFFCURVE",
"581 519 OFFCURVE",
"581 456 CURVE SMOOTH",
"581 399 OFFCURVE",
"578 335 OFFCURVE",
"564 272 CURVE SMOOTH",
"550 209 OFFCURVE",
"526 147 OFFCURVE",
"483 98 CURVE SMOOTH",
"454 63 OFFCURVE",
"417 39 OFFCURVE",
"377 24 CURVE SMOOTH",
"337 10 OFFCURVE",
"293 4 OFFCURVE",
"251 4 CURVE SMOOTH",
"205 4 OFFCURVE",
"160 11 OFFCURVE",
"115 24 CURVE",
"117 22 OFFCURVE",
"118 21 OFFCURVE",
"118 20 CURVE SMOOTH"
);
},
{
closed = 1;
nodes = (
"374 387 OFFCURVE",
"417 391 OFFCURVE",
"456 406 CURVE SMOOTH",
"481 416 OFFCURVE",
"496 439 OFFCURVE",
"504 463 CURVE SMOOTH",
"512 488 OFFCURVE",
"514 514 OFFCURVE",
"514 534 CURVE SMOOTH",
"514 569 OFFCURVE",
"505 604 OFFCURVE",
"480 628 CURVE",
"464 645 OFFCURVE",
"444 656 OFFCURVE",
"422 663 CURVE SMOOTH",
"400 669 OFFCURVE",
"375 671 OFFCURVE",
"352 671 CURVE SMOOTH",
"307 671 OFFCURVE",
"261 660 OFFCURVE",
"225 628 CURVE SMOOTH",
"206 611 OFFCURVE",
"191 589 OFFCURVE",
"183 566 CURVE SMOOTH",
"175 542 OFFCURVE",
"171 517 OFFCURVE",
"171 493 CURVE SMOOTH",
"171 476 OFFCURVE",
"173 457 OFFCURVE",
"179 441 CURVE SMOOTH",
"185 426 OFFCURVE",
"194 412 OFFCURVE",
"211 406 CURVE",
"249 390 OFFCURVE",
"291 388 OFFCURVE",
"333 387 CURVE SMOOTH"
);
}
);
width = 637;
}
);
unicode = 0039;
},
{
glyphname = colon;
lastChange = "2014-11-05 03:29:49 -0500";
layers = (
{
layerId = "16808965-E153-4B2B-ADB3-00196C646C32";
name = "Regular Italic";
paths = (
{
closed = 1;
nodes = (
"117 147 OFFCURVE",
"136 149 OFFCURVE",
"156 149 CURVE SMOOTH",
"174 149 OFFCURVE",
"192 148 OFFCURVE",
"210 145 CURVE",
"208 122 OFFCURVE",
"207 98 OFFCURVE",
"206 75 CURVE SMOOTH",
"204 52 OFFCURVE",
"202 28 OFFCURVE",
"201 5 CURVE",
"183 12 OFFCURVE",
"164 15 OFFCURVE",
"144 15 CURVE SMOOTH",
"124 15 OFFCURVE",
"103 11 OFFCURVE",
"83 5 CURVE",
"88 52 OFFCURVE",
"93 98 OFFCURVE",
"98 145 CURVE"
);
},
{
closed = 1;
nodes = (
"147 526 OFFCURVE",
"166 522 OFFCURVE",
"186 522 CURVE SMOOTH",
"207 522 OFFCURVE",
"227 526 OFFCURVE",
"247 533 CURVE",
"242 490 OFFCURVE",
"237 446 OFFCURVE",
"233 403 CURVE",
"213 399 OFFCURVE",
"194 397 OFFCURVE",
"175 397 CURVE SMOOTH",
"156 397 OFFCURVE",
"138 399 OFFCURVE",
"120 403 CURVE",
"122 425 OFFCURVE",
"124 447 OFFCURVE",
"125 468 CURVE SMOOTH",
"126 490 OFFCURVE",
"127 511 OFFCURVE",
"129 533 CURVE"
);
}
);
width = 331;
}
);
unicode = 003A;
},
{
glyphname = semicolon;
lastChange = "2014-11-05 03:29:49 -0500";
layers = (
{
layerId = "16808965-E153-4B2B-ADB3-00196C646C32";
name = "Regular Italic";
paths = (
{
closed = 1;
nodes = (
"137 517 OFFCURVE",
"147 517 OFFCURVE",
"159 517 CURVE SMOOTH",
"185 517 OFFCURVE",
"211 521 OFFCURVE",
"236 530 CURVE",
"234 508 OFFCURVE",
"231 485 OFFCURVE",
"229 463 CURVE SMOOTH",
"226 441 OFFCURVE",
"224 418 OFFCURVE",
"221 396 CURVE",
"196 390 OFFCURVE",
"173 388 OFFCURVE",
"148 388 CURVE SMOOTH",
"143 388 OFFCURVE",
"137 388 OFFCURVE",
"132 388 CURVE SMOOTH",
"126 388 OFFCURVE",
"122 388 OFFCURVE",
"116 389 CURVE",
"119 411 OFFCURVE",
"120 432 OFFCURVE",
"122 454 CURVE SMOOTH",
"123 475 OFFCURVE",
"125 497 OFFCURVE",
"126 519 CURVE"
);
},
{
closed = 1;
nodes = (
"101 104 OFFCURVE",
"106 104 OFFCURVE",
"113 104 CURVE",
"119 104 OFFCURVE",
"125 104 OFFCURVE",
"131 104 CURVE SMOOTH",
"151 104 OFFCURVE",
"171 104 OFFCURVE",
"192 102 CURVE",
"191 87 OFFCURVE",
"190 73 OFFCURVE",
"189 59 CURVE SMOOTH",
"188 45 OFFCURVE",
"186 30 OFFCURVE",
"185 16 CURVE",
"169 -11 OFFCURVE",
"152 -38 OFFCURVE",
"136 -63 CURVE SMOOTH",
"120 -90 OFFCURVE",
"104 -116 OFFCURVE",
"88 -143 CURVE",
"67 -145 OFFCURVE",
"46 -148 OFFCURVE",
"27 -155 CURVE",
"37 -126 OFFCURVE",
"46 -97 OFFCURVE",
"57 -68 CURVE SMOOTH",
"66 -40 OFFCURVE",
"76 -11 OFFCURVE",
"86 18 CURVE",
"87 33 OFFCURVE",
"89 47 OFFCURVE",
"90 61 CURVE SMOOTH",
"92 75 OFFCURVE",
"93 89 OFFCURVE",
"94 104 CURVE"
);
}
);
width = 313;
}
);
unicode = 003B;
},
{
glyphname = less;
lastChange = "2014-11-05 03:29:49 -0500";
layers = (
{
layerId = "16808965-E153-4B2B-ADB3-00196C646C32";
name = "Regular Italic";
paths = (
{
closed = 1;
nodes = (
"534 432 OFFCURVE",
"363 390 OFFCURVE",
"189 347 CURVE",
"265 309 OFFCURVE",
"340 272 OFFCURVE",
"416 237 CURVE SMOOTH",
"491 201 OFFCURVE",
"566 164 OFFCURVE",
"641 125 CURVE",
"637 89 OFFCURVE",
"636 54 OFFCURVE",
"636 19 CURVE",
"544 65 OFFCURVE",
"452 110 OFFCURVE",
"360 155 CURVE SMOOTH",
"268 199 OFFCURVE",
"175 244 OFFCURVE",
"84 292 CURVE",
"90 326 OFFCURVE",
"96 359 OFFCURVE",
"100 394 CURVE",
"205 420 OFFCURVE",
"311 446 OFFCURVE",
"417 474 CURVE SMOOTH",
"521 501 OFFCURVE",
"626 530 OFFCURVE",
"730 563 CURVE",
"722 537 OFFCURVE",
"713 511 OFFCURVE",
"706 484 CURVE"
);
}
);
width = 763;
}
);
unicode = 003C;
},
{
glyphname = equal;
lastChange = "2014-11-05 03:29:49 -0500";
layers = (
{
layerId = "16808965-E153-4B2B-ADB3-00196C646C32";
name = "Regular Italic";
paths = (
{
closed = 1;
nodes = (
"210 445 OFFCURVE",
"309 444 OFFCURVE",
"409 444 CURVE SMOOTH",
"516 444 OFFCURVE",
"620 446 OFFCURVE",
"728 449 CURVE",
"718 425 OFFCURVE",
"710 401 OFFCURVE",
"705 376 CURVE",
"604 375 OFFCURVE",
"502 374 OFFCURVE",
"402 374 CURVE SMOOTH",
"308 374 OFFCURVE",
"214 375 OFFCURVE",
"120 376 CURVE",
"119 401 OFFCURVE",
"116 425 OFFCURVE",
"111 449 CURVE"
);
},
{
closed = 1;
nodes = (
"219 266 OFFCURVE",
"324 267 OFFCURVE",
"431 267 CURVE SMOOTH",
"519 267 OFFCURVE",
"605 266 OFFCURVE",
"693 265 CURVE",
"693 235 OFFCURVE",
"696 206 OFFCURVE",
"704 177 CURVE",
"603 180 OFFCURVE",
"502 182 OFFCURVE",
"401 182 CURVE SMOOTH",
"296 182 OFFCURVE",
"192 180 OFFCURVE",
"87 177 CURVE",
"99 206 OFFCURVE",
"107 235 OFFCURVE",
"112 265 CURVE"
);
}
);
width = 797;
}
);
unicode = 003D;
},
{
glyphname = greater;
lastChange = "2014-11-05 03:29:49 -0500";
layers = (
{
layerId = "16808965-E153-4B2B-ADB3-00196C646C32";
name = "Regular Italic";
paths = (
{
closed = 1;
nodes = (
"143 555 OFFCURVE",
"144 567 OFFCURVE",
"146 581 CURVE SMOOTH",
"146 593 OFFCURVE",
"147 606 OFFCURVE",
"147 619 CURVE",
"238 572 OFFCURVE",
"331 527 OFFCURVE",
"423 482 CURVE SMOOTH",
"515 438 OFFCURVE",
"607 393 OFFCURVE",
"698 346 CURVE",
"692 312 OFFCURVE",
"686 278 OFFCURVE",
"683 243 CURVE",
"630 229 OFFCURVE",
"577 216 OFFCURVE",
"524 203 CURVE SMOOTH",
"419 177 OFFCURVE",
"314 149 OFFCURVE",
"209 120 CURVE SMOOTH",
"157 105 OFFCURVE",
"105 90 OFFCURVE",
"53 74 CURVE",
"65 109 OFFCURVE",
"74 145 OFFCURVE",
"83 181 CURVE",
"168 206 OFFCURVE",
"254 229 OFFCURVE",
"339 251 CURVE SMOOTH",
"425 273 OFFCURVE",
"510 295 OFFCURVE",
"596 318 CURVE",
"521 355 OFFCURVE",
"445 393 OFFCURVE",
"369 429 CURVE SMOOTH",
"292 465 OFFCURVE",
"217 502 OFFCURVE",
"143 542 CURVE"
);
}
);
width = 762;
}
);
unicode = 003E;
},
{
glyphname = question;
lastChange = "2014-11-05 03:29:49 -0500";
layers = (
{
layerId = "16808965-E153-4B2B-ADB3-00196C646C32";
name = "Regular Italic";
paths = (
{
closed = 1;
nodes = (
"234 137 OFFCURVE",
"267 138 OFFCURVE",
"298 138 CURVE SMOOTH",
"318 138 LINE",
"316 117 OFFCURVE",
"314 97 OFFCURVE",
"313 76 CURVE SMOOTH",
"312 55 OFFCURVE",
"310 35 OFFCURVE",
"308 14 CURVE",
"289 14 LINE SMOOTH",
"255 14 OFFCURVE",
"222 13 OFFCURVE",
"188 10 CURVE",
"190 31 OFFCURVE",
"193 52 OFFCURVE",
"196 73 CURVE SMOOTH",
"198 94 OFFCURVE",
"201 115 OFFCURVE",
"203 136 CURVE"
);
},
{
closed = 1;
nodes = (
"288 207 OFFCURVE",
"251 207 OFFCURVE",
"213 205 CURVE",
"214 218 OFFCURVE",
"215 230 OFFCURVE",
"216 243 CURVE SMOOTH",
"218 268 OFFCURVE",
"221 292 OFFCURVE",
"227 316 CURVE SMOOTH",
"233 341 OFFCURVE",
"244 368 OFFCURVE",
"266 391 CURVE SMOOTH",
"276 402 OFFCURVE",
"287 414 OFFCURVE",
"298 424 CURVE",
"298 423 LINE",
"307 430 OFFCURVE",
"315 437 OFFCURVE",
"324 444 CURVE SMOOTH",
"332 452 OFFCURVE",
"340 458 OFFCURVE",
"349 465 CURVE",
"348 465 LINE",
"364 477 OFFCURVE",
"385 493 OFFCURVE",
"402 510 CURVE SMOOTH",
"419 528 OFFCURVE",
"432 547 OFFCURVE",
"432 568 CURVE SMOOTH",
"432 600 OFFCURVE",
"420 624 OFFCURVE",
"400 642 CURVE SMOOTH",
"381 659 OFFCURVE",
"354 668 OFFCURVE",
"325 668 CURVE SMOOTH",
"268 668 OFFCURVE",
"210 646 OFFCURVE",
"158 618 CURVE",
"159 629 OFFCURVE",
"159 640 OFFCURVE",
"160 651 CURVE SMOOTH",
"160 662 OFFCURVE",
"161 672 OFFCURVE",
"161 684 CURVE",
"221 709 OFFCURVE",
"284 722 OFFCURVE",
"347 722 CURVE SMOOTH",
"370 722 OFFCURVE",
"395 721 OFFCURVE",
"418 715 CURVE SMOOTH",
"441 709 OFFCURVE",
"462 700 OFFCURVE",
"479 685 CURVE SMOOTH",
"504 662 OFFCURVE",
"515 629 OFFCURVE",
"515 596 CURVE SMOOTH",
"515 561 OFFCURVE",
"503 530 OFFCURVE",
"486 502 CURVE SMOOTH",
"468 475 OFFCURVE",
"444 450 OFFCURVE",
"421 425 CURVE SMOOTH",
"407 411 OFFCURVE",
"394 397 OFFCURVE",
"380 383 CURVE",
"377 378 OFFCURVE",
"374 373 OFFCURVE",
"370 368 CURVE",
"367 363 OFFCURVE",
"363 358 OFFCURVE",
"360 353 CURVE",
"360 354 LINE",
"356 349 OFFCURVE",
"353 344 OFFCURVE",
"349 339 CURVE SMOOTH",
"346 334 OFFCURVE",
"343 329 OFFCURVE",
"341 323 CURVE SMOOTH",
"334 305 OFFCURVE",
"331 286 OFFCURVE",
"330 266 CURVE SMOOTH",
"329 246 OFFCURVE",
"327 226 OFFCURVE",
"326 207 CURVE"
);
}
);
width = 523;
}
);
unicode = 003F;
},
{
glyphname = at;
lastChange = "2014-11-05 03:29:49 -0500";
layers = (
{
layerId = "16808965-E153-4B2B-ADB3-00196C646C32";
name = "Regular Italic";
paths = (
{
closed = 1;
nodes = (
"342 294 OFFCURVE",
"341 288 OFFCURVE",
"341 282 CURVE SMOOTH",
"341 245 OFFCURVE",
"354 216 OFFCURVE",
"375 197 CURVE SMOOTH",
"396 177 OFFCURVE",
"425 167 OFFCURVE",
"459 167 CURVE SMOOTH",
"493 167 OFFCURVE",
"527 177 OFFCURVE",
"552 202 CURVE SMOOTH",
"583 233 OFFCURVE",
"595 278 OFFCURVE",
"595 319 CURVE SMOOTH",
"595 354 OFFCURVE",
"583 383 OFFCURVE",
"562 403 CURVE SMOOTH",
"541 422 OFFCURVE",
"511 432 OFFCURVE",
"478 432 CURVE SMOOTH",
"444 432 OFFCURVE",
"410 421 OFFCURVE",
"384 396 CURVE SMOOTH",
"357 371 OFFCURVE",
"346 335 OFFCURVE",
"342 300 CURVE SMOOTH"
);
},
{
closed = 1;
nodes = (
"583 111 OFFCURVE",
"560 92 OFFCURVE",
"533 78 CURVE SMOOTH",
"507 64 OFFCURVE",
"478 56 OFFCURVE",
"449 56 CURVE SMOOTH",
"398 56 OFFCURVE",
"352 71 OFFCURVE",
"323 112 CURVE",
"296 146 OFFCURVE",
"287 188 OFFCURVE",
"287 233 CURVE SMOOTH",
"287 264 OFFCURVE",
"291 296 OFFCURVE",
"300 327 CURVE SMOOTH",
"310 358 OFFCURVE",
"326 387 OFFCURVE",
"349 411 CURVE SMOOTH",
"386 450 OFFCURVE",
"434 467 OFFCURVE",
"484 467 CURVE SMOOTH",
"514 467 OFFCURVE",
"541 459 OFFCURVE",
"565 445 CURVE SMOOTH",
"589 431 OFFCURVE",
"608 412 OFFCURVE",
"624 389 CURVE",
"625 400 OFFCURVE",
"626 412 OFFCURVE",
"628 424 CURVE SMOOTH",
"629 436 OFFCURVE",
"630 447 OFFCURVE",
"631 459 CURVE",
"650 459 OFFCURVE",
"669 459 OFFCURVE",
"688 460 CURVE",
"675 343 OFFCURVE",
"664 229 OFFCURVE",
"656 111 CURVE",
"702 118 OFFCURVE",
"745 139 OFFCURVE",
"774 176 CURVE SMOOTH",
"793 202 OFFCURVE",
"807 232 OFFCURVE",
"815 262 CURVE SMOOTH",
"823 292 OFFCURVE",
"827 324 OFFCURVE",
"827 353 CURVE SMOOTH",
"827 405 OFFCURVE",
"814 456 OFFCURVE",
"787 499 CURVE",
"758 540 OFFCURVE",
"718 570 OFFCURVE",
"673 591 CURVE SMOOTH",
"628 612 OFFCURVE",
"576 623 OFFCURVE",
"525 623 CURVE SMOOTH",
"449 623 OFFCURVE",
"372 604 OFFCURVE",
"305 563 CURVE",
"306 563 LINE",
"245 527 OFFCURVE",
"201 474 OFFCURVE",
"172 414 CURVE SMOOTH",
"143 354 OFFCURVE",
"129 286 OFFCURVE",
"129 221 CURVE SMOOTH",
"129 192 OFFCURVE",
"132 164 OFFCURVE",
"144 138 CURVE SMOOTH",
"163 97 OFFCURVE",
"191 63 OFFCURVE",
"218 27 CURVE",
"248 -6 OFFCURVE",
"285 -28 OFFCURVE",
"326 -40 CURVE SMOOTH",
"367 -52 OFFCURVE",
"412 -57 OFFCURVE",
"457 -57 CURVE SMOOTH",
"536 -57 OFFCURVE",
"619 -37 OFFCURVE",
"687 12 CURVE",
"698 -15 OFFCURVE",
"709 -41 OFFCURVE",
"722 -66 CURVE",
"640 -125 OFFCURVE",
"543 -153 OFFCURVE",
"447 -153 CURVE SMOOTH",
"393 -153 OFFCURVE",
"338 -144 OFFCURVE",
"288 -125 CURVE SMOOTH",
"238 -107 OFFCURVE",
"193 -78 OFFCURVE",
"159 -39 CURVE SMOOTH",
"128 -5 OFFCURVE",
"107 35 OFFCURVE",
"93 78 CURVE SMOOTH",
"80 121 OFFCURVE",
"74 167 OFFCURVE",
"74 213 CURVE SMOOTH",
"74 274 OFFCURVE",
"84 340 OFFCURVE",
"106 401 CURVE SMOOTH",
"128 461 OFFCURVE",
"163 519 OFFCURVE",
"211 565 CURVE",
"256 604 OFFCURVE",
"310 633 OFFCURVE",
"365 653 CURVE SMOOTH",
"421 672 OFFCURVE",
"479 682 OFFCURVE",
"537 682 CURVE SMOOTH",
"598 682 OFFCURVE",
"656 670 OFFCURVE",
"708 646 CURVE SMOOTH",
"759 623 OFFCURVE",
"803 587 OFFCURVE",
"834 540 CURVE SMOOTH",
"865 492 OFFCURVE",
"883 433 OFFCURVE",
"883 361 CURVE SMOOTH",
"883 321 OFFCURVE",
"877 277 OFFCURVE",
"864 235 CURVE SMOOTH",
"850 194 OFFCURVE",
"828 154 OFFCURVE",
"795 124 CURVE SMOOTH",
"768 98 OFFCURVE",
"735 81 OFFCURVE",
"701 70 CURVE SMOOTH",
"667 59 OFFCURVE",
"630 54 OFFCURVE",
"596 54 CURVE",
"597 67 OFFCURVE",
"598 81 OFFCURVE",
"599 94 CURVE SMOOTH",
"600 107 OFFCURVE",
"601 121 OFFCURVE",
"602 135 CURVE"
);
}
);
width = 947;
}
);
unicode = 0040;
},
{
glyphname = A;
lastChange = "2014-11-05 03:29:49 -0500";
layers = (
{
anchors = (
{
name = _dotbelow;
position = "{342, 0}";
},
{
name = _hook;
position = "{405, 754}";
},
{
name = ogonek;
position = "{705, 38}";
},
{
name = top;
position = "{406, 710}";
}
);
layerId = "16808965-E153-4B2B-ADB3-00196C646C32";
name = "Regular Italic";
paths = (
{
closed = 1;
nodes = (
"370 574 OFFCURVE",
"342 506 OFFCURVE",
"315 438 CURVE SMOOTH",
"288 370 OFFCURVE",
"259 302 OFFCURVE",
"230 234 CURVE",
"275 235 OFFCURVE",
"318 235 OFFCURVE",
"363 235 CURVE SMOOTH",
"386 235 OFFCURVE",
"408 235 OFFCURVE",
"430 235 CURVE SMOOTH",
"452 235 OFFCURVE",
"474 235 OFFCURVE",
"496 235 CURVE",
"479 303 OFFCURVE",
"463 371 OFFCURVE",
"447 438 CURVE SMOOTH",
"432 506 OFFCURVE",
"416 574 OFFCURVE",
"399 642 CURVE"
);
},
{
closed = 1;
nodes = (
"449 710 LINE",
"466 651 OFFCURVE",
"483 591 OFFCURVE",
"500 532 CURVE SMOOTH",
"533 413 OFFCURVE",
"567 294 OFFCURVE",
"606 178 CURVE SMOOTH",
"625 119 OFFCURVE",
"647 62 OFFCURVE",
"671 5 CURVE",
"628 9 OFFCURVE",
"585 12 OFFCURVE",
"542 14 CURVE",
"532 52 OFFCURVE",
"524 91 OFFCURVE",
"517 131 CURVE",
"462 132 OFFCURVE",
"409 133 OFFCURVE",
"354 133 CURVE SMOOTH",
"300 133 OFFCURVE",
"247 132 OFFCURVE",
"192 131 CURVE",
"176 91 OFFCURVE",
"158 53 OFFCURVE",
"139 14 CURVE",
"98 11 OFFCURVE",
"57 8 OFFCURVE",
"17 5 CURVE",
"83 119 OFFCURVE",
"141 236 OFFCURVE",
"197 354 CURVE SMOOTH",
"225 414 OFFCURVE",
"252 473 OFFCURVE",
"280 533 CURVE SMOOTH",
"307 592 OFFCURVE",
"334 651 OFFCURVE",
"363 710 CURVE"
);
}
);
width = 801;
}
);
unicode = 0041;
},
{
glyphname = B;
lastChange = "2014-11-05 03:29:49 -0500";
layers = (
{
layerId = "16808965-E153-4B2B-ADB3-00196C646C32";
name = "Regular Italic";
paths = (
{
closed = 1;
nodes = (
"236 353 LINE",
"233 318 OFFCURVE",
"229 284 OFFCURVE",
"226 249 CURVE SMOOTH",
"223 214 OFFCURVE",
"218 180 OFFCURVE",
"214 145 CURVE",
"267 147 OFFCURVE",
"319 148 OFFCURVE",
"372 148 CURVE SMOOTH",
"411 148 OFFCURVE",
"451 150 OFFCURVE",
"488 169 CURVE",
"504 179 OFFCURVE",
"515 193 OFFCURVE",
"523 210 CURVE SMOOTH",
"530 228 OFFCURVE",
"533 246 OFFCURVE",
"533 263 CURVE SMOOTH",
"533 288 OFFCURVE",
"516 306 OFFCURVE",
"500 321 CURVE",
"500 321 LINE",
"486 334 OFFCURVE",
"468 342 OFFCURVE",
"449 347 CURVE SMOOTH",
"430 351 OFFCURVE",
"409 353 OFFCURVE",
"390 353 CURVE SMOOTH"
);
},
{
closed = 1;
nodes = (
"253 580 OFFCURVE",
"249 501 OFFCURVE",
"242 421 CURVE",
"266 421 OFFCURVE",
"290 420 OFFCURVE",
"313 420 CURVE SMOOTH",
"337 420 OFFCURVE",
"360 420 OFFCURVE",
"384 420 CURVE SMOOTH",
"419 420 OFFCURVE",
"456 424 OFFCURVE",
"486 445 CURVE SMOOTH",
"506 458 OFFCURVE",
"518 476 OFFCURVE",
"526 495 CURVE SMOOTH",
"533 513 OFFCURVE",
"536 532 OFFCURVE",
"536 549 CURVE SMOOTH",
"536 590 OFFCURVE",
"519 616 OFFCURVE",
"494 633 CURVE SMOOTH",
"469 649 OFFCURVE",
"437 655 OFFCURVE",
"404 655 CURVE SMOOTH",
"354 655 OFFCURVE",
"305 657 OFFCURVE",
"256 660 CURVE"
);
},
{
closed = 1;
nodes = (
"243 714 OFFCURVE",
"317 711 OFFCURVE",
"392 710 CURVE SMOOTH",
"435 709 OFFCURVE",
"479 706 OFFCURVE",
"518 690 CURVE SMOOTH",
"545 680 OFFCURVE",
"566 663 OFFCURVE",
"580 642 CURVE SMOOTH",
"593 621 OFFCURVE",
"600 597 OFFCURVE",
"600 571 CURVE SMOOTH",
"600 533 OFFCURVE",
"589 491 OFFCURVE",
"567 458 CURVE SMOOTH",
"545 425 OFFCURVE",
"513 400 OFFCURVE",
"468 396 CURVE",
"468 388 LINE",
"511 384 OFFCURVE",
"551 367 OFFCURVE",
"581 338 CURVE SMOOTH",
"610 310 OFFCURVE",
"629 271 OFFCURVE",
"629 227 CURVE SMOOTH",
"629 197 OFFCURVE",
"625 166 OFFCURVE",
"614 137 CURVE SMOOTH",
"604 108 OFFCURVE",
"584 82 OFFCURVE",
"557 63 CURVE SMOOTH",
"527 44 OFFCURVE",
"496 33 OFFCURVE",
"464 27 CURVE SMOOTH",
"432 21 OFFCURVE",
"397 19 OFFCURVE",
"366 19 CURVE SMOOTH",
"279 19 OFFCURVE",
"194 15 OFFCURVE",
"107 5 CURVE",
"150 246 OFFCURVE",
"170 484 OFFCURVE",
"170 725 CURVE"
);
}
);
width = 718;
}
);
unicode = 0042;
},
{
glyphname = C;
lastChange = "2014-11-05 03:29:49 -0500";
layers = (
{
anchors = (
{
name = bottom;
position = "{405, 0}";
},
{
name = top;
position = "{405, 710}";
}
);
layerId = "16808965-E153-4B2B-ADB3-00196C646C32";
name = "Regular Italic";
paths = (
{
closed = 1;
nodes = (
"674 641 OFFCURVE",
"669 611 OFFCURVE",
"665 580 CURVE",
"616 629 OFFCURVE",
"545 654 OFFCURVE",
"473 654 CURVE SMOOTH",
"438 654 OFFCURVE",
"401 650 OFFCURVE",
"366 640 CURVE SMOOTH",
"331 629 OFFCURVE",
"298 612 OFFCURVE",
"271 584 CURVE",
"237 548 OFFCURVE",
"216 504 OFFCURVE",
"203 459 CURVE SMOOTH",
"190 415 OFFCURVE",
"186 368 OFFCURVE",
"186 327 CURVE SMOOTH",
"186 301 OFFCURVE",
"188 274 OFFCURVE",
"195 250 CURVE SMOOTH",
"203 227 OFFCURVE",
"215 205 OFFCURVE",
"234 188 CURVE SMOOTH",
"260 167 OFFCURVE",
"291 155 OFFCURVE",
"324 148 CURVE SMOOTH",
"356 141 OFFCURVE",
"391 139 OFFCURVE",
"424 139 CURVE SMOOTH",
"460 139 OFFCURVE",
"497 146 OFFCURVE",
"532 159 CURVE SMOOTH",
"567 172 OFFCURVE",
"600 191 OFFCURVE",
"629 217 CURVE",
"626 169 OFFCURVE",
"625 122 OFFCURVE",
"625 75 CURVE SMOOTH",
"625 59 LINE",
"559 19 OFFCURVE",
"484 4 OFFCURVE",
"411 4 CURVE SMOOTH",
"364 4 OFFCURVE",
"316 10 OFFCURVE",
"272 24 CURVE SMOOTH",
"229 38 OFFCURVE",
"188 61 OFFCURVE",
"157 96 CURVE",
"134 125 OFFCURVE",
"119 159 OFFCURVE",
"110 195 CURVE SMOOTH",
"100 230 OFFCURVE",
"97 268 OFFCURVE",
"97 307 CURVE SMOOTH",
"97 358 OFFCURVE",
"102 418 OFFCURVE",
"118 476 CURVE SMOOTH",
"133 533 OFFCURVE",
"160 587 OFFCURVE",
"203 630 CURVE SMOOTH",
"240 667 OFFCURVE",
"285 690 OFFCURVE",
"333 705 CURVE SMOOTH",
"380 718 OFFCURVE",
"430 723 OFFCURVE",
"478 723 CURVE SMOOTH",
"513 723 OFFCURVE",
"550 719 OFFCURVE",
"585 711 CURVE SMOOTH",
"620 703 OFFCURVE",
"652 688 OFFCURVE",
"681 668 CURVE",
"681 669 OFFCURVE",
"680 670 OFFCURVE",
"680 672 CURVE"
);
}
);
width = 743;
}
);
unicode = 0043;
},
{
glyphname = D;
lastChange = "2014-11-05 03:29:49 -0500";
layers = (
{
anchors = (
{
name = bottom;
position = "{395, -10}";
},
{
name = center;
position = "{388, 355}";
},
{
name = top;
position = "{388, 710}";
}
);
layerId = "16808965-E153-4B2B-ADB3-00196C646C32";
name = "Regular Italic";
paths = (
{
closed = 1;
nodes = (
"255 491 OFFCURVE",
"244 337 OFFCURVE",
"225 183 CURVE",
"265 184 OFFCURVE",
"304 185 OFFCURVE",
"344 186 CURVE SMOOTH",
"361 186 OFFCURVE",
"378 187 OFFCURVE",
"396 188 CURVE SMOOTH",
"431 189 OFFCURVE",
"466 193 OFFCURVE",
"500 203 CURVE SMOOTH",
"516 208 OFFCURVE",
"532 215 OFFCURVE",
"548 224 CURVE",
"574 242 OFFCURVE",
"592 266 OFFCURVE",
"606 292 CURVE SMOOTH",
"621 318 OFFCURVE",
"630 347 OFFCURVE",
"640 374 CURVE",
"641 390 OFFCURVE",
"642 406 OFFCURVE",
"642 422 CURVE SMOOTH",
"642 450 OFFCURVE",
"640 477 OFFCURVE",
"633 502 CURVE SMOOTH",
"626 527 OFFCURVE",
"615 551 OFFCURVE",
"597 571 CURVE",
"569 601 OFFCURVE",
"534 618 OFFCURVE",
"497 627 CURVE SMOOTH",
"459 637 OFFCURVE",
"419 640 OFFCURVE",
"382 642 CURVE SMOOTH",
"341 642 OFFCURVE",
"302 644 OFFCURVE",
"261 646 CURVE"
);
},
{
closed = 1;
nodes = (
"235 717 OFFCURVE",
"300 713 OFFCURVE",
"366 711 CURVE SMOOTH",
"417 709 OFFCURVE",
"473 706 OFFCURVE",
"524 695 CURVE SMOOTH",
"575 685 OFFCURVE",
"623 666 OFFCURVE",
"662 630 CURVE",
"687 605 OFFCURVE",
"703 574 OFFCURVE",
"712 541 CURVE SMOOTH",
"722 507 OFFCURVE",
"725 471 OFFCURVE",
"725 435 CURVE SMOOTH",
"725 385 OFFCURVE",
"721 321 OFFCURVE",
"706 260 CURVE SMOOTH",
"690 199 OFFCURVE",
"662 139 OFFCURVE",
"614 98 CURVE",
"569 63 OFFCURVE",
"518 44 OFFCURVE",
"465 33 CURVE SMOOTH",
"413 22 OFFCURVE",
"358 19 OFFCURVE",
"306 17 CURVE SMOOTH",
"239 15 OFFCURVE",
"174 12 OFFCURVE",
"107 5 CURVE",
"150 224 OFFCURVE",
"170 442 OFFCURVE",
"170 662 CURVE SMOOTH",
"170 672 OFFCURVE",
"170 683 OFFCURVE",
"170 693 CURVE SMOOTH",
"170 704 OFFCURVE",
"170 714 OFFCURVE",
"170 725 CURVE"
);
}
);
width = 782;
}
);
unicode = 0044;
},
{
glyphname = E;
lastChange = "2014-11-05 03:29:49 -0500";
layers = (
{
anchors = (
{
name = bottom;
position = "{317, 36}";
},
{
name = ogonek;
position = "{591, 38}";
},
{
name = top;
position = "{317, 710}";
}
);
layerId = "16808965-E153-4B2B-ADB3-00196C646C32";
name = "Regular Italic";
paths = (
{
closed = 1;
nodes = (
"244 714 OFFCURVE",
"317 709 OFFCURVE",
"393 709 CURVE SMOOTH",
"469 709 OFFCURVE",
"544 714 OFFCURVE",
"621 724 CURVE",
"619 711 OFFCURVE",
"617 699 OFFCURVE",
"615 687 CURVE SMOOTH",
"612 674 OFFCURVE",
"610 662 OFFCURVE",
"609 649 CURVE",
"538 642 OFFCURVE",
"467 639 OFFCURVE",
"396 639 CURVE SMOOTH",
"349 639 OFFCURVE",
"302 640 OFFCURVE",
"255 643 CURVE",
"251 569 OFFCURVE",
"246 497 OFFCURVE",
"240 423 CURVE",
"281 423 OFFCURVE",
"321 422 OFFCURVE",
"362 422 CURVE SMOOTH",
"431 422 OFFCURVE",
"498 423 OFFCURVE",
"567 425 CURVE",
"565 413 OFFCURVE",
"564 401 OFFCURVE",
"563 389 CURVE SMOOTH",
"562 376 OFFCURVE",
"561 365 OFFCURVE",
"560 353 CURVE",
"505 353 OFFCURVE",
"451 353 OFFCURVE",
"397 353 CURVE SMOOTH",
"343 352 OFFCURVE",
"289 352 OFFCURVE",
"234 352 CURVE",
"229 285 OFFCURVE",
"222 219 OFFCURVE",
"214 152 CURVE",
"260 154 OFFCURVE",
"306 155 OFFCURVE",
"352 155 CURVE SMOOTH",
"424 155 OFFCURVE",
"497 153 OFFCURVE",
"569 147 CURVE",
"567 100 OFFCURVE",
"567 52 OFFCURVE",
"567 5 CURVE",
"492 14 OFFCURVE",
"417 19 OFFCURVE",
"340 19 CURVE SMOOTH",
"262 19 OFFCURVE",
"185 14 OFFCURVE",
"107 5 CURVE",
"148 246 OFFCURVE",
"167 484 OFFCURVE",
"170 725 CURVE"
);
}
);
width = 697;
}
);
unicode = 0045;
},
{
glyphname = F;
lastChange = "2014-11-05 03:29:49 -0500";
layers = (
{
layerId = "16808965-E153-4B2B-ADB3-00196C646C32";
name = "Regular Italic";
paths = (
{
closed = 1;
nodes = (
"228 713 OFFCURVE",
"288 709 OFFCURVE",
"348 709 CURVE SMOOTH",
"419 709 OFFCURVE",
"488 715 OFFCURVE",
"559 725 CURVE",
"555 698 OFFCURVE",
"551 672 OFFCURVE",
"547 646 CURVE",
"478 637 OFFCURVE",
"410 634 OFFCURVE",
"341 634 CURVE SMOOTH",
"312 634 OFFCURVE",
"282 634 OFFCURVE",
"252 636 CURVE",
"245 565 OFFCURVE",
"237 495 OFFCURVE",
"228 424 CURVE",
"243 424 OFFCURVE",
"257 424 OFFCURVE",
"272 424 CURVE SMOOTH",
"287 423 OFFCURVE",
"301 423 OFFCURVE",
"316 423 CURVE SMOOTH",
"376 423 OFFCURVE",
"435 424 OFFCURVE",
"495 425 CURVE",
"493 410 OFFCURVE",
"492 395 OFFCURVE",
"491 380 CURVE SMOOTH",
"489 365 OFFCURVE",
"488 349 OFFCURVE",
"486 334 CURVE",
"472 334 OFFCURVE",
"457 334 OFFCURVE",
"443 334 CURVE SMOOTH",
"429 334 OFFCURVE",
"414 334 OFFCURVE",
"399 334 CURVE SMOOTH",
"370 334 OFFCURVE",
"341 334 OFFCURVE",
"312 334 CURVE SMOOTH",
"283 334 OFFCURVE",
"254 334 OFFCURVE",
"225 334 CURVE",
"217 227 OFFCURVE",
"211 123 OFFCURVE",
"201 16 CURVE",
"163 14 OFFCURVE",
"125 11 OFFCURVE",
"87 5 CURVE",
"132 245 OFFCURVE",
"157 481 OFFCURVE",
"169 722 CURVE"
);
}
);
width = 546;
}
);
unicode = 0046;
},
{
glyphname = G;
lastChange = "2014-11-05 03:29:49 -0500";
layers = (
{
anchors = (
{
name = bottom;
position = "{427, 0}";
},
{
name = top;
position = "{427, 710}";
}
);
layerId = "16808965-E153-4B2B-ADB3-00196C646C32";
name = "Regular Italic";
paths = (
{
closed = 1;
nodes = (
"579 200 OFFCURVE",
"580 214 OFFCURVE",
"581 228 CURVE SMOOTH",
"582 241 OFFCURVE",
"583 254 OFFCURVE",
"583 268 CURVE",
"559 269 OFFCURVE",
"535 269 OFFCURVE",
"510 269 CURVE SMOOTH",
"485 269 OFFCURVE",
"461 269 OFFCURVE",
"437 269 CURVE",
"444 361 LINE",
"485 361 OFFCURVE",
"525 361 OFFCURVE",
"565 362 CURVE SMOOTH",
"605 362 OFFCURVE",
"646 362 OFFCURVE",
"687 362 CURVE",
"678 264 OFFCURVE",
"673 168 OFFCURVE",
"673 71 CURVE",
"634 46 OFFCURVE",
"593 29 OFFCURVE",
"550 20 CURVE SMOOTH",
"506 9 OFFCURVE",
"462 5 OFFCURVE",
"418 5 CURVE SMOOTH",
"371 5 OFFCURVE",
"321 9 OFFCURVE",
"276 22 CURVE SMOOTH",
"230 36 OFFCURVE",
"189 58 OFFCURVE",
"158 95 CURVE SMOOTH",
"134 122 OFFCURVE",
"119 155 OFFCURVE",
"110 190 CURVE SMOOTH",
"100 225 OFFCURVE",
"97 263 OFFCURVE",
"97 300 CURVE SMOOTH",
"97 334 OFFCURVE",
"99 374 OFFCURVE",
"105 413 CURVE SMOOTH",
"111 453 OFFCURVE",
"121 493 OFFCURVE",
"137 531 CURVE SMOOTH",
"152 568 OFFCURVE",
"175 603 OFFCURVE",
"205 631 CURVE SMOOTH",
"240 667 OFFCURVE",
"285 690 OFFCURVE",
"333 704 CURVE SMOOTH",
"379 718 OFFCURVE",
"429 723 OFFCURVE",
"476 723 CURVE SMOOTH",
"517 723 OFFCURVE",
"558 720 OFFCURVE",
"598 712 CURVE SMOOTH",
"637 704 OFFCURVE",
"674 690 OFFCURVE",
"708 668 CURVE",
"706 655 OFFCURVE",
"704 641 OFFCURVE",
"701 627 CURVE SMOOTH",
"699 614 OFFCURVE",
"697 600 OFFCURVE",
"695 586 CURVE",
"667 612 OFFCURVE",
"633 632 OFFCURVE",
"596 645 CURVE SMOOTH",
"559 657 OFFCURVE",
"519 663 OFFCURVE",
"479 663 CURVE SMOOTH",
"444 663 OFFCURVE",
"406 660 OFFCURVE",
"370 650 CURVE SMOOTH",
"334 640 OFFCURVE",
"300 623 OFFCURVE",
"272 596 CURVE",
"239 561 OFFCURVE",
"218 518 OFFCURVE",
"205 473 CURVE SMOOTH",
"192 429 OFFCURVE",
"188 383 OFFCURVE",
"188 343 CURVE SMOOTH",
"188 315 OFFCURVE",
"189 287 OFFCURVE",
"197 261 CURVE SMOOTH",
"204 235 OFFCURVE",
"216 211 OFFCURVE",
"237 193 CURVE",
"263 174 OFFCURVE",
"294 164 OFFCURVE",
"327 158 CURVE SMOOTH",
"359 151 OFFCURVE",
"393 149 OFFCURVE",
"426 148 CURVE",
"438 149 OFFCURVE",
"451 149 OFFCURVE",
"465 149 CURVE SMOOTH",
"493 150 OFFCURVE",
"521 154 OFFCURVE",
"545 164 CURVE SMOOTH",
"558 168 OFFCURVE",
"568 175 OFFCURVE",
"576 183 CURVE SMOOTH",
"577 184 OFFCURVE",
"577 185 OFFCURVE",
"577 185 CURVE SMOOTH",
"578 186 OFFCURVE",
"578 186 OFFCURVE",
"578 187 CURVE"
);
}
);
width = 789;
}
);
unicode = 0047;
},
{
glyphname = H;
lastChange = "2014-11-05 03:29:49 -0500";
layers = (
{
anchors = (
{
name = center;
position = "{380, 355}";
},
{
name = top;
position = "{380, 710}";
}
);
layerId = "16808965-E153-4B2B-ADB3-00196C646C32";
name = "Regular Italic";
paths = (
{
closed = 1;
nodes = (
"200 719 OFFCURVE",
"230 717 OFFCURVE",
"262 715 CURVE",
"258 602 OFFCURVE",
"252 490 OFFCURVE",
"242 376 CURVE",
"258 376 OFFCURVE",
"274 376 OFFCURVE",
"290 376 CURVE SMOOTH",
"306 375 OFFCURVE",
"322 375 OFFCURVE",
"338 375 CURVE SMOOTH",
"416 375 OFFCURVE",
"492 376 OFFCURVE",
"570 376 CURVE",
"580 490 OFFCURVE",
"592 602 OFFCURVE",
"611 715 CURVE",
"627 717 OFFCURVE",
"643 718 OFFCURVE",
"659 720 CURVE SMOOTH",
"674 721 OFFCURVE",
"690 722 OFFCURVE",
"706 724 CURVE",
"670 519 OFFCURVE",
"650 315 OFFCURVE",
"650 110 CURVE SMOOTH",
"650 75 OFFCURVE",
"651 40 OFFCURVE",
"652 5 CURVE",
"619 9 OFFCURVE",
"585 11 OFFCURVE",
"550 14 CURVE",
"550 94 OFFCURVE",
"554 172 OFFCURVE",
"560 252 CURVE",
"504 253 OFFCURVE",
"449 254 OFFCURVE",
"395 254 CURVE SMOOTH",
"340 254 OFFCURVE",
"286 253 OFFCURVE",
"231 252 CURVE",
"223 173 OFFCURVE",
"212 93 OFFCURVE",
"200 14 CURVE",
"166 11 OFFCURVE",
"131 8 OFFCURVE",
"97 5 CURVE",
"146 245 OFFCURVE",
"167 483 OFFCURVE",
"169 724 CURVE"
);
}
);
width = 782;
}
);
unicode = 0048;
},
{
glyphname = I;
lastChange = "2014-11-05 03:29:49 -0500";
layers = (
{
anchors = (
{
name = bottom;
position = "{140, -6}";
},
{
name = ogonek;
position = "{261, 58}";
},
{
name = top;
position = "{206, 691}";
}
);
layerId = "16808965-E153-4B2B-ADB3-00196C646C32";
name = "Regular Italic";
paths = (
{
closed = 1;
nodes = (
"180 712 OFFCURVE",
"193 710 OFFCURVE",
"206 710 CURVE SMOOTH",
"222 710 OFFCURVE",
"237 712 OFFCURVE",
"252 720 CURVE",
"230 480 OFFCURVE",
"212 245 OFFCURVE",
"199 5 CURVE",
"184 14 OFFCURVE",
"166 19 OFFCURVE",
"147 19 CURVE SMOOTH",
"128 19 OFFCURVE",
"109 14 OFFCURVE",
"91 5 CURVE",
"122 244 OFFCURVE",
"145 478 OFFCURVE",
"168 717 CURVE"
);
}
);
width = 329;
}
);
unicode = 0049;
},
{
glyphname = J;
lastChange = "2014-11-05 03:29:49 -0500";
layers = (
{
anchors = (
{
name = top;
position = "{184, 710}";
}
);
layerId = "16808965-E153-4B2B-ADB3-00196C646C32";
name = "Regular Italic";
paths = (
{
closed = 1;
nodes = (
"299 710 OFFCURVE",
"331 711 OFFCURVE",
"362 719 CURVE",
"324 491 OFFCURVE",
"295 263 OFFCURVE",
"270 34 CURVE SMOOTH",
"267 4 OFFCURVE",
"263 -27 OFFCURVE",
"254 -57 CURVE SMOOTH",
"246 -87 OFFCURVE",
"231 -116 OFFCURVE",
"208 -139 CURVE",
"184 -160 OFFCURVE",
"157 -170 OFFCURVE",
"128 -178 CURVE SMOOTH",
"114 -182 OFFCURVE",
"99 -185 OFFCURVE",
"84 -188 CURVE SMOOTH",
"69 -190 OFFCURVE",
"55 -193 OFFCURVE",
"41 -195 CURVE",
"42 -195 LINE",
"24 -197 OFFCURVE",
"6 -198 OFFCURVE",
"-11 -200 CURVE",
"-5 -149 OFFCURVE",
"0 -100 OFFCURVE",
"5 -49 CURVE",
"12 -50 OFFCURVE",
"19 -50 OFFCURVE",
"26 -51 CURVE SMOOTH",
"33 -51 OFFCURVE",
"40 -52 OFFCURVE",
"47 -53 CURVE",
"74 -48 OFFCURVE",
"105 -40 OFFCURVE",
"131 -24 CURVE SMOOTH",
"157 -9 OFFCURVE",
"177 13 OFFCURVE",
"182 45 CURVE",
"209 268 OFFCURVE",
"235 486 OFFCURVE",
"268 709 CURVE"
);
}
);
width = 398;
}
);
unicode = 004A;
},
{
glyphname = K;
lastChange = "2014-11-05 03:29:49 -0500";
layers = (
{
anchors = (
{
name = bottom;
position = "{353, 0}";
},
{
name = top;
position = "{353, 710}";
}
);
layerId = "16808965-E153-4B2B-ADB3-00196C646C32";
name = "Regular Italic";
paths = (
{
closed = 1;
nodes = (
"199 719 OFFCURVE",
"229 717 OFFCURVE",
"258 715 CURVE",
"252 612 OFFCURVE",
"243 511 OFFCURVE",
"232 408 CURVE",
"290 460 OFFCURVE",
"348 512 OFFCURVE",
"406 562 CURVE SMOOTH",
"465 612 OFFCURVE",
"523 663 OFFCURVE",
"583 714 CURVE",
"621 715 OFFCURVE",
"657 718 OFFCURVE",
"696 722 CURVE",
"632 666 OFFCURVE",
"568 610 OFFCURVE",
"505 555 CURVE SMOOTH",
"442 500 OFFCURVE",
"379 444 OFFCURVE",
"315 388 CURVE",
"373 324 OFFCURVE",
"430 260 OFFCURVE",
"487 196 CURVE SMOOTH",
"543 132 OFFCURVE",
"601 68 OFFCURVE",
"660 5 CURVE",
"588 13 OFFCURVE",
"516 17 OFFCURVE",
"443 18 CURVE",
"367 133 OFFCURVE",
"298 249 OFFCURVE",
"228 367 CURVE",
"224 250 OFFCURVE",
"216 132 OFFCURVE",
"206 14 CURVE",
"186 13 OFFCURVE",
"167 12 OFFCURVE",
"147 10 CURVE SMOOTH",
"127 9 OFFCURVE",
"107 7 OFFCURVE",
"87 5 CURVE",
"138 244 OFFCURVE",
"165 482 OFFCURVE",
"169 722 CURVE"
);
}
);
width = 790;
}
);
unicode = 004B;
},
{
glyphname = L;
lastChange = "2014-11-05 03:29:49 -0500";
layers = (
{
anchors = (
{
name = bottom;
position = "{225, 0}";
},
{
name = top;
position = "{263, 710}";
}
);
layerId = "16808965-E153-4B2B-ADB3-00196C646C32";
name = "Regular Italic";
paths = (
{
closed = 1;
nodes = (
"199 719 OFFCURVE",
"228 715 OFFCURVE",
"257 714 CURVE",
"248 526 OFFCURVE",
"231 339 OFFCURVE",
"208 152 CURVE",
"252 154 OFFCURVE",
"296 155 OFFCURVE",
"340 155 CURVE SMOOTH",
"410 155 OFFCURVE",
"479 153 OFFCURVE",
"548 147 CURVE",
"543 100 OFFCURVE",
"539 53 OFFCURVE",
"537 6 CURVE",
"466 15 OFFCURVE",
"396 19 OFFCURVE",
"324 19 CURVE SMOOTH",
"248 19 OFFCURVE",
"173 14 OFFCURVE",
"97 5 CURVE",
"140 245 OFFCURVE",
"163 482 OFFCURVE",
"169 723 CURVE"
);
}
);
width = 666;
}
);
unicode = 004C;
},
{
glyphname = M;
lastChange = "2014-11-05 03:29:49 -0500";
layers = (
{
layerId = "16808965-E153-4B2B-ADB3-00196C646C32";
name = "Regular Italic";
paths = (
{
closed = 1;
nodes = (
"215 719 OFFCURVE",
"261 716 OFFCURVE",
"307 713 CURVE",
"362 573 OFFCURVE",
"409 432 OFFCURVE",
"454 287 CURVE",
"492 359 OFFCURVE",
"529 431 OFFCURVE",
"567 502 CURVE SMOOTH",
"604 574 OFFCURVE",
"644 645 OFFCURVE",
"687 714 CURVE",
"730 717 OFFCURVE",
"773 720 OFFCURVE",
"817 723 CURVE",
"782 538 OFFCURVE",
"763 354 OFFCURVE",
"763 168 CURVE SMOOTH",
"763 113 OFFCURVE",
"765 60 OFFCURVE",
"769 5 CURVE",
"730 8 OFFCURVE",
"693 11 OFFCURVE",
"654 13 CURVE",
"658 222 OFFCURVE",
"683 428 OFFCURVE",
"720 635 CURVE",
"719 636 OFFCURVE",
"717 636 OFFCURVE",
"716 636 CURVE",
"715 636 OFFCURVE",
"714 636 OFFCURVE",
"712 637 CURVE",
"632 471 OFFCURVE",
"564 300 OFFCURVE",
"494 130 CURVE",
"485 130 OFFCURVE",
"476 130 OFFCURVE",
"467 130 CURVE",
"458 130 OFFCURVE",
"450 130 OFFCURVE",
"440 130 CURVE SMOOTH",
"431 130 OFFCURVE",
"422 130 OFFCURVE",
"414 130 CURVE",
"404 130 OFFCURVE",
"396 130 OFFCURVE",
"387 130 CURVE",
"376 172 OFFCURVE",
"366 215 OFFCURVE",
"356 257 CURVE SMOOTH",
"336 342 OFFCURVE",
"315 427 OFFCURVE",
"293 511 CURVE SMOOTH",
"282 553 OFFCURVE",
"270 595 OFFCURVE",
"257 636 CURVE",
"255 636 OFFCURVE",
"254 636 OFFCURVE",
"253 635 CURVE",
"251 635 OFFCURVE",
"250 635 OFFCURVE",
"249 635 CURVE",
"249 605 LINE SMOOTH",
"249 408 OFFCURVE",
"235 212 OFFCURVE",
"208 13 CURVE",
"169 11 OFFCURVE",
"131 8 OFFCURVE",
"92 5 CURVE",
"146 245 OFFCURVE",
"169 482 OFFCURVE",
"169 723 CURVE"
);
}
);
width = 898;
}
);
unicode = 004D;
},
{
glyphname = N;
lastChange = "2014-11-05 03:29:49 -0500";
layers = (
{
anchors = (
{
name = bottom;
position = "{371, 0}";
},
{
name = top;
position = "{466, 710}";
}
);
layerId = "16808965-E153-4B2B-ADB3-00196C646C32";
name = "Regular Italic";
paths = (
{
closed = 1;
nodes = (
"185 705 OFFCURVE",
"204 704 OFFCURVE",
"223 703 CURVE SMOOTH",
"242 701 OFFCURVE",
"261 700 OFFCURVE",
"280 699 CURVE",
"327 605 OFFCURVE",
"370 509 OFFCURVE",
"413 413 CURVE SMOOTH",
"456 317 OFFCURVE",
"498 220 OFFCURVE",
"543 126 CURVE",
"557 325 OFFCURVE",
"580 520 OFFCURVE",
"617 717 CURVE",
"645 719 OFFCURVE",
"671 721 OFFCURVE",
"699 725 CURVE",
"658 503 OFFCURVE",
"635 283 OFFCURVE",
"635 62 CURVE SMOOTH",
"635 53 OFFCURVE",
"635 43 OFFCURVE",
"635 34 CURVE SMOOTH",
"635 24 OFFCURVE",
"635 14 OFFCURVE",
"636 5 CURVE",
"591 10 OFFCURVE",
"547 13 OFFCURVE",
"502 16 CURVE",
"454 112 OFFCURVE",
"410 211 OFFCURVE",
"367 311 CURVE SMOOTH",
"346 360 OFFCURVE",
"324 410 OFFCURVE",
"303 459 CURVE SMOOTH",
"281 509 OFFCURVE",
"259 558 OFFCURVE",
"236 607 CURVE",
"228 605 LINE",
"228 407 OFFCURVE",
"218 213 OFFCURVE",
"199 14 CURVE",
"161 12 OFFCURVE",
"123 9 OFFCURVE",
"84 5 CURVE",
"134 239 OFFCURVE",
"160 472 OFFCURVE",
"166 708 CURVE"
);
}
);
width = 766;
}
);
unicode = 004E;
},
{
glyphname = O;
lastChange = "2014-11-05 03:29:49 -0500";
layers = (
{
anchors = (
{
name = _hook;
position = "{676, 480}";
},
{
name = bottom;
position = "{366, -41}";
},
{
name = top;
position = "{434, 710}";
}
);
layerId = "16808965-E153-4B2B-ADB3-00196C646C32";
name = "Regular Italic";
paths = (
{
closed = 1;
nodes = (
"404 654 OFFCURVE",
"372 649 OFFCURVE",
"342 636 CURVE SMOOTH",
"312 624 OFFCURVE",
"284 604 OFFCURVE",
"262 577 CURVE SMOOTH",
"233 542 OFFCURVE",
"214 500 OFFCURVE",
"203 458 CURVE SMOOTH",
"191 414 OFFCURVE",
"186 369 OFFCURVE",
"186 329 CURVE SMOOTH",
"186 306 OFFCURVE",
"188 283 OFFCURVE",
"195 263 CURVE SMOOTH",
"203 242 OFFCURVE",
"214 224 OFFCURVE",
"233 212 CURVE SMOOTH",
"257 197 OFFCURVE",
"283 188 OFFCURVE",
"311 183 CURVE SMOOTH",
"338 178 OFFCURVE",
"367 176 OFFCURVE",
"395 176 CURVE SMOOTH",
"451 176 OFFCURVE",
"509 183 OFFCURVE",
"561 213 CURVE",
"561 212 LINE",
"596 233 OFFCURVE",
"614 269 OFFCURVE",
"625 307 CURVE SMOOTH",
"634 344 OFFCURVE",
"636 384 OFFCURVE",
"636 413 CURVE SMOOTH",
"636 472 OFFCURVE",
"626 529 OFFCURVE",
"597 578 CURVE",
"562 629 OFFCURVE",
"501 654 OFFCURVE",
"437 654 CURVE SMOOTH"
);
},
{
closed = 1;
nodes = (
"486 723 OFFCURVE",
"530 717 OFFCURVE",
"570 703 CURVE SMOOTH",
"609 688 OFFCURVE",
"644 665 OFFCURVE",
"669 630 CURVE SMOOTH",
"690 601 OFFCURVE",
"705 569 OFFCURVE",
"713 534 CURVE SMOOTH",
"721 500 OFFCURVE",
"725 463 OFFCURVE",
"725 427 CURVE SMOOTH",
"725 373 OFFCURVE",
"719 313 OFFCURVE",
"703 256 CURVE SMOOTH",
"688 198 OFFCURVE",
"661 143 OFFCURVE",
"622 98 CURVE SMOOTH",
"589 63 OFFCURVE",
"549 39 OFFCURVE",
"506 25 CURVE SMOOTH",
"463 11 OFFCURVE",
"417 5 OFFCURVE",
"373 5 CURVE SMOOTH",
"331 5 OFFCURVE",
"289 12 OFFCURVE",
"250 26 CURVE SMOOTH",
"212 41 OFFCURVE",
"178 64 OFFCURVE",
"153 97 CURVE SMOOTH",
"131 126 OFFCURVE",
"117 158 OFFCURVE",
"108 192 CURVE SMOOTH",
"100 227 OFFCURVE",
"97 263 OFFCURVE",
"97 300 CURVE SMOOTH",
"97 353 OFFCURVE",
"101 413 OFFCURVE",
"116 471 CURVE SMOOTH",
"131 529 OFFCURVE",
"157 585 OFFCURVE",
"199 629 CURVE SMOOTH",
"231 664 OFFCURVE",
"271 688 OFFCURVE",
"313 702 CURVE SMOOTH",
"355 717 OFFCURVE",
"400 723 OFFCURVE",
"443 723 CURVE SMOOTH"
);
}
);
width = 780;
}
);
unicode = 004F;
},
{
glyphname = P;
lastChange = "2014-11-05 03:29:49 -0500";
layers = (
{
layerId = "16808965-E153-4B2B-ADB3-00196C646C32";
name = "Regular Italic";
paths = (
{
closed = 1;
nodes = (
"252 589 OFFCURVE",
"244 499 OFFCURVE",
"233 406 CURVE",
"281 406 OFFCURVE",
"328 405 OFFCURVE",
"376 405 CURVE SMOOTH",
"414 405 OFFCURVE",
"451 421 OFFCURVE",
"479 446 CURVE SMOOTH",
"507 472 OFFCURVE",
"526 507 OFFCURVE",
"527 546 CURVE",
"528 553 OFFCURVE",
"528 561 OFFCURVE",
"528 569 CURVE SMOOTH",
"528 616 OFFCURVE",
"507 643 OFFCURVE",
"480 659 CURVE SMOOTH",
"452 674 OFFCURVE",
"417 679 OFFCURVE",
"388 679 CURVE SMOOTH",
"345 679 OFFCURVE",
"303 679 OFFCURVE",
"261 681 CURVE"
);
},
{
closed = 1;
nodes = (
"239 712 OFFCURVE",
"310 710 OFFCURVE",
"381 710 CURVE SMOOTH",
"409 710 OFFCURVE",
"437 708 OFFCURVE",
"463 704 CURVE SMOOTH",
"489 700 OFFCURVE",
"515 692 OFFCURVE",
"538 678 CURVE",
"560 664 OFFCURVE",
"574 644 OFFCURVE",
"584 622 CURVE SMOOTH",
"593 600 OFFCURVE",
"597 575 OFFCURVE",
"597 550 CURVE SMOOTH",
"597 517 OFFCURVE",
"591 479 OFFCURVE",
"579 443 CURVE SMOOTH",
"567 407 OFFCURVE",
"547 373 OFFCURVE",
"520 347 CURVE SMOOTH",
"496 324 OFFCURVE",
"467 311 OFFCURVE",
"437 302 CURVE SMOOTH",
"407 294 OFFCURVE",
"375 291 OFFCURVE",
"345 291 CURVE SMOOTH",
"325 291 OFFCURVE",
"306 291 OFFCURVE",
"286 291 CURVE SMOOTH",
"267 291 OFFCURVE",
"247 291 OFFCURVE",
"227 290 CURVE",
"216 198 OFFCURVE",
"202 106 OFFCURVE",
"186 15 CURVE",
"150 12 OFFCURVE",
"114 9 OFFCURVE",
"78 5 CURVE",
"129 244 OFFCURVE",
"157 480 OFFCURVE",
"169 721 CURVE"
);
}
);
width = 618;
}
);
unicode = 0050;
},
{
glyphname = Q;
lastChange = "2014-11-05 03:29:49 -0500";
layers = (
{
layerId = "16808965-E153-4B2B-ADB3-00196C646C32";
name = "Regular Italic";
paths = (
{
closed = 1;
nodes = (
"371 651 OFFCURVE",
"307 628 OFFCURVE",
"262 575 CURVE SMOOTH",
"234 542 OFFCURVE",
"215 501 OFFCURVE",
"204 459 CURVE SMOOTH",
"191 417 OFFCURVE",
"187 373 OFFCURVE",
"187 333 CURVE SMOOTH",
"187 310 OFFCURVE",
"188 286 OFFCURVE",
"196 265 CURVE SMOOTH",
"203 243 OFFCURVE",
"215 224 OFFCURVE",
"235 212 CURVE SMOOTH",
"280 184 OFFCURVE",
"325 174 OFFCURVE",
"381 167 CURVE",
"389 177 OFFCURVE",
"396 188 OFFCURVE",
"403 199 CURVE SMOOTH",
"410 209 OFFCURVE",
"417 220 OFFCURVE",
"424 230 CURVE",
"457 214 OFFCURVE",
"493 204 OFFCURVE",
"531 198 CURVE",
"574 219 OFFCURVE",
"601 252 OFFCURVE",
"617 290 CURVE SMOOTH",
"632 328 OFFCURVE",
"638 371 OFFCURVE",
"638 414 CURVE SMOOTH",
"638 471 OFFCURVE",
"628 527 OFFCURVE",
"598 574 CURVE SMOOTH",
"581 600 OFFCURVE",
"556 620 OFFCURVE",
"528 633 CURVE SMOOTH",
"500 646 OFFCURVE",
"469 651 OFFCURVE",
"437 651 CURVE SMOOTH"
);
},
{
closed = 1;
nodes = (
"588 46 LINE",
"611 18 OFFCURVE",
"635 -11 OFFCURVE",
"659 -39 CURVE SMOOTH",
"682 -67 OFFCURVE",
"706 -95 OFFCURVE",
"729 -124 CURVE",
"657 -116 OFFCURVE",
"585 -112 OFFCURVE",
"512 -110 CURVE",
"496 -91 OFFCURVE",
"480 -72 OFFCURVE",
"465 -53 CURVE SMOOTH",
"449 -34 OFFCURVE",
"433 -15 OFFCURVE",
"417 5 CURVE",
"406 3 OFFCURVE",
"394 3 OFFCURVE",
"381 3 CURVE SMOOTH",
"338 3 OFFCURVE",
"295 9 OFFCURVE",
"257 24 CURVE SMOOTH",
"218 39 OFFCURVE",
"184 61 OFFCURVE",
"158 96 CURVE SMOOTH",
"113 159 OFFCURVE",
"98 236 OFFCURVE",
"98 316 CURVE SMOOTH",
"98 367 OFFCURVE",
"103 424 OFFCURVE",
"119 479 CURVE SMOOTH",
"134 533 OFFCURVE",
"158 585 OFFCURVE",
"199 628 CURVE SMOOTH",
"230 661 OFFCURVE",
"268 683 OFFCURVE",
"309 698 CURVE SMOOTH",
"349 713 OFFCURVE",
"393 720 OFFCURVE",
"434 720 CURVE SMOOTH",
"479 720 OFFCURVE",
"525 715 OFFCURVE",
"566 701 CURVE SMOOTH",
"607 687 OFFCURVE",
"644 664 OFFCURVE",
"670 627 CURVE SMOOTH",
"692 600 OFFCURVE",
"707 568 OFFCURVE",
"715 534 CURVE SMOOTH",
"724 500 OFFCURVE",
"727 463 OFFCURVE",
"727 427 CURVE SMOOTH",
"727 388 OFFCURVE",
"724 342 OFFCURVE",
"716 297 CURVE SMOOTH",
"708 252 OFFCURVE",
"694 208 OFFCURVE",
"672 168 CURVE SMOOTH",
"647 127 OFFCURVE",
"622 88 OFFCURVE",
"588 53 CURVE"
);
}
);
width = 887;
}
);
unicode = 0051;
},
{
glyphname = R;
lastChange = "2014-11-05 03:29:49 -0500";
layers = (
{
anchors = (
{
name = bottom;
position = "{348, 0}";
},
{
name = top;
position = "{348, 710}";
}
);
layerId = "16808965-E153-4B2B-ADB3-00196C646C32";
name = "Regular Italic";
paths = (
{
closed = 1;
nodes = (
"472 338 LINE",
"500 327 OFFCURVE",
"519 305 OFFCURVE",
"535 280 CURVE SMOOTH",
"542 268 OFFCURVE",
"549 255 OFFCURVE",
"556 242 CURVE",
"562 228 OFFCURVE",
"567 215 OFFCURVE",
"573 202 CURVE SMOOTH",
"601 135 OFFCURVE",
"631 70 OFFCURVE",
"663 5 CURVE",
"620 10 OFFCURVE",
"578 13 OFFCURVE",
"535 15 CURVE",
"512 75 OFFCURVE",
"493 134 OFFCURVE",
"473 195 CURVE",
"466 213 OFFCURVE",
"458 230 OFFCURVE",
"449 247 CURVE SMOOTH",
"439 264 OFFCURVE",
"428 279 OFFCURVE",
"414 291 CURVE",
"388 309 OFFCURVE",
"357 314 OFFCURVE",
"326 314 CURVE SMOOTH",
"301 314 OFFCURVE",
"277 314 OFFCURVE",
"252 313 CURVE",
"243 212 OFFCURVE",
"231 115 OFFCURVE",
"216 14 CURVE",
"179 12 OFFCURVE",
"144 9 OFFCURVE",
"107 5 CURVE",
"150 235 OFFCURVE",
"170 463 OFFCURVE",
"170 693 CURVE SMOOTH",
"170 725 LINE",
"242 715 OFFCURVE",
"314 712 OFFCURVE",
"387 710 CURVE SMOOTH",
"436 709 OFFCURVE",
"485 703 OFFCURVE",
"528 678 CURVE",
"551 663 OFFCURVE",
"567 642 OFFCURVE",
"578 619 CURVE SMOOTH",
"587 596 OFFCURVE",
"591 571 OFFCURVE",
"591 545 CURVE SMOOTH",
"591 508 OFFCURVE",
"583 465 OFFCURVE",
"564 428 CURVE SMOOTH",
"545 391 OFFCURVE",
"516 360 OFFCURVE",
"473 347 CURVE",
"472 341 LINE"
);
},
{
closed = 1;
nodes = (
"263 583 OFFCURVE",
"258 494 OFFCURVE",
"251 402 CURVE",
"271 402 OFFCURVE",
"292 402 OFFCURVE",
"313 402 CURVE SMOOTH",
"333 402 OFFCURVE",
"354 402 OFFCURVE",
"374 402 CURVE SMOOTH",
"406 402 OFFCURVE",
"444 413 OFFCURVE",
"475 432 CURVE SMOOTH",
"505 452 OFFCURVE",
"529 479 OFFCURVE",
"532 513 CURVE SMOOTH",
"532 519 OFFCURVE",
"532 523 OFFCURVE",
"533 529 CURVE SMOOTH",
"533 534 OFFCURVE",
"533 540 OFFCURVE",
"533 545 CURVE SMOOTH",
"533 581 OFFCURVE",
"526 616 OFFCURVE",
"496 637 CURVE",
"497 637 LINE",
"467 658 OFFCURVE",
"431 669 OFFCURVE",
"393 669 CURVE SMOOTH",
"351 670 OFFCURVE",
"309 670 OFFCURVE",
"266 674 CURVE"
);
}
);
width = 792;
}
);
unicode = 0052;
},
{
glyphname = S;
lastChange = "2014-11-05 03:29:49 -0500";
layers = (
{
anchors = (
{
name = bottom;
position = "{330, 0}";
},
{
name = top;
position = "{330, 710}";
}
);
layerId = "16808965-E153-4B2B-ADB3-00196C646C32";
name = "Regular Italic";
paths = (
{
closed = 1;
nodes = (
"589 686 OFFCURVE",
"587 671 OFFCURVE",
"585 657 CURVE SMOOTH",
"583 642 OFFCURVE",
"581 627 OFFCURVE",
"579 613 CURVE",
"520 638 OFFCURVE",
"458 654 OFFCURVE",
"392 654 CURVE SMOOTH",
"351 654 OFFCURVE",
"309 649 OFFCURVE",
"271 628 CURVE",
"230 603 OFFCURVE",
"216 565 OFFCURVE",
"216 528 CURVE SMOOTH",
"216 503 OFFCURVE",
"222 478 OFFCURVE",
"240 461 CURVE",
"269 438 OFFCURVE",
"306 429 OFFCURVE",
"343 421 CURVE SMOOTH",
"357 418 OFFCURVE",
"372 415 OFFCURVE",
"387 412 CURVE SMOOTH",
"417 406 OFFCURVE",
"445 399 OFFCURVE",
"473 388 CURVE SMOOTH",
"487 382 OFFCURVE",
"500 375 OFFCURVE",
"512 367 CURVE SMOOTH",
"561 332 OFFCURVE",
"581 277 OFFCURVE",
"581 221 CURVE SMOOTH",
"581 191 OFFCURVE",
"577 159 OFFCURVE",
"567 130 CURVE SMOOTH",
"557 101 OFFCURVE",
"540 74 OFFCURVE",
"512 54 CURVE",
"479 32 OFFCURVE",
"444 20 OFFCURVE",
"409 14 CURVE SMOOTH",
"374 7 OFFCURVE",
"337 5 OFFCURVE",
"303 5 CURVE SMOOTH",
"227 5 OFFCURVE",
"154 15 OFFCURVE",
"83 36 CURVE",
"91 84 OFFCURVE",
"98 131 OFFCURVE",
"104 179 CURVE",
"167 142 OFFCURVE",
"238 125 OFFCURVE",
"314 125 CURVE SMOOTH",
"358 125 OFFCURVE",
"404 131 OFFCURVE",
"443 156 CURVE SMOOTH",
"455 164 OFFCURVE",
"468 174 OFFCURVE",
"478 186 CURVE SMOOTH",
"487 197 OFFCURVE",
"494 210 OFFCURVE",
"494 226 CURVE SMOOTH",
"494 254 OFFCURVE",
"479 276 OFFCURVE",
"457 292 CURVE SMOOTH",
"436 307 OFFCURVE",
"407 318 OFFCURVE",
"380 325 CURVE SMOOTH",
"366 329 OFFCURVE",
"353 332 OFFCURVE",
"341 334 CURVE SMOOTH",
"316 338 OFFCURVE",
"297 342 OFFCURVE",
"271 350 CURVE SMOOTH",
"246 357 OFFCURVE",
"221 367 OFFCURVE",
"199 381 CURVE SMOOTH",
"177 396 OFFCURVE",
"151 419 OFFCURVE",
"140 459 CURVE SMOOTH",
"135 479 OFFCURVE",
"132 500 OFFCURVE",
"132 521 CURVE SMOOTH",
"132 549 OFFCURVE",
"137 579 OFFCURVE",
"147 606 CURVE SMOOTH",
"158 633 OFFCURVE",
"175 658 OFFCURVE",
"201 676 CURVE SMOOTH",
"229 695 OFFCURVE",
"259 707 OFFCURVE",
"291 714 CURVE SMOOTH",
"323 721 OFFCURVE",
"355 723 OFFCURVE",
"387 723 CURVE SMOOTH",
"458 723 OFFCURVE",
"527 714 OFFCURVE",
"594 696 CURVE",
"594 697 OFFCURVE",
"594 698 OFFCURVE",
"593 699 CURVE",
"593 699 OFFCURVE",
"592 700 OFFCURVE",
"592 701 CURVE"
);
}
);
width = 672;
}
);
unicode = 0053;
},
{
glyphname = T;
lastChange = "2014-11-05 03:29:49 -0500";
layers = (
{
anchors = (
{
name = bottom;
position = "{373, 44}";
},
{
name = center;
position = "{478, 355}";
},
{
name = top;
position = "{478, 710}";
}
);
layerId = "16808965-E153-4B2B-ADB3-00196C646C32";
name = "Regular Italic";
paths = (
{
closed = 1;
nodes = (
"268 714 OFFCURVE",
"366 709 OFFCURVE",
"465 709 CURVE SMOOTH",
"570 709 OFFCURVE",
"672 715 OFFCURVE",
"777 725 CURVE",
"772 700 OFFCURVE",
"767 675 OFFCURVE",
"763 650 CURVE",
"712 648 OFFCURVE",
"662 647 OFFCURVE",
"611 647 CURVE SMOOTH",
"577 647 OFFCURVE",
"544 647 OFFCURVE",
"511 649 CURVE",
"496 438 OFFCURVE",
"482 229 OFFCURVE",
"477 18 CURVE",
"467 19 OFFCURVE",
"458 19 OFFCURVE",
"450 19 CURVE SMOOTH",
"440 19 OFFCURVE",
"431 19 OFFCURVE",
"422 19 CURVE SMOOTH",
"410 19 OFFCURVE",
"397 19 OFFCURVE",
"385 19 CURVE",
"373 18 OFFCURVE",
"360 18 OFFCURVE",
"348 18 CURVE",
"376 229 OFFCURVE",
"401 438 OFFCURVE",
"423 648 CURVE",
"385 647 OFFCURVE",
"347 647 OFFCURVE",
"310 647 CURVE SMOOTH",
"263 647 OFFCURVE",
"217 647 OFFCURVE",
"171 651 CURVE",
"171 676 OFFCURVE",
"170 700 OFFCURVE",
"170 725 CURVE"
);
}
);
width = 756;
}
);
unicode = 0054;
},
{
glyphname = U;
lastChange = "2014-11-05 03:29:49 -0500";
layers = (
{
anchors = (
{
name = _hook;
position = "{969, 1298}";
},
{
name = bottom;
position = "{415, -17}";
},
{
name = ogonek;
position = "{490, 17}";
},
{
name = top;
position = "{422, 710}";
}
);
layerId = "16808965-E153-4B2B-ADB3-00196C646C32";
name = "Regular Italic";
paths = (
{
closed = 1;
nodes = (
"169 724 LINE",
"199 720 OFFCURVE",
"228 717 OFFCURVE",
"258 715 CURVE",
"255 594 OFFCURVE",
"248 475 OFFCURVE",
"237 354 CURVE SMOOTH",
"236 336 OFFCURVE",
"235 318 OFFCURVE",
"235 301 CURVE SMOOTH",
"235 260 OFFCURVE",
"240 221 OFFCURVE",
"262 188 CURVE",
"276 167 OFFCURVE",
"296 155 OFFCURVE",
"320 148 CURVE SMOOTH",
"343 140 OFFCURVE",
"369 138 OFFCURVE",
"393 138 CURVE SMOOTH",
"417 138 OFFCURVE",
"443 141 OFFCURVE",
"467 148 CURVE SMOOTH",
"491 155 OFFCURVE",
"513 168 OFFCURVE",
"531 188 CURVE",
"550 211 OFFCURVE",
"563 238 OFFCURVE",
"570 268 CURVE SMOOTH",
"578 296 OFFCURVE",
"582 326 OFFCURVE",
"584 354 CURVE SMOOTH",
"596 476 OFFCURVE",
"608 595 OFFCURVE",
"628 716 CURVE",
"644 716 OFFCURVE",
"658 718 OFFCURVE",
"673 719 CURVE SMOOTH",
"688 721 OFFCURVE",
"703 723 OFFCURVE",
"718 724 CURVE",
"689 574 OFFCURVE",
"673 425 OFFCURVE",
"662 274 CURVE SMOOTH",
"659 239 OFFCURVE",
"654 203 OFFCURVE",
"644 168 CURVE SMOOTH",
"633 133 OFFCURVE",
"616 100 OFFCURVE",
"590 72 CURVE",
"561 43 OFFCURVE",
"525 27 OFFCURVE",
"490 17 CURVE SMOOTH",
"454 7 OFFCURVE",
"417 4 OFFCURVE",
"381 4 CURVE SMOOTH",
"347 4 OFFCURVE",
"311 7 OFFCURVE",
"277 16 CURVE SMOOTH",
"244 24 OFFCURVE",
"213 39 OFFCURVE",
"189 64 CURVE SMOOTH",
"171 85 OFFCURVE",
"160 108 OFFCURVE",
"153 134 CURVE SMOOTH",
"146 159 OFFCURVE",
"144 185 OFFCURVE",
"144 211 CURVE SMOOTH",
"144 232 OFFCURVE",
"145 253 OFFCURVE",
"147 274 CURVE SMOOTH",
"161 414 OFFCURVE",
"169 551 OFFCURVE",
"169 690 CURVE SMOOTH"
);
}
);
width = 740;
}
);
unicode = 0055;
},
{
glyphname = V;
lastChange = "2014-11-05 03:29:49 -0500";
layers = (
{
layerId = "16808965-E153-4B2B-ADB3-00196C646C32";
name = "Regular Italic";
paths = (
{
closed = 1;
nodes = (
"344 77 OFFCURVE",
"330 137 OFFCURVE",
"316 196 CURVE SMOOTH",
"288 315 OFFCURVE",
"259 434 OFFCURVE",
"226 551 CURVE SMOOTH",
"209 609 OFFCURVE",
"190 667 OFFCURVE",
"170 725 CURVE",
"201 721 OFFCURVE",
"230 719 OFFCURVE",
"261 717 CURVE",
"297 629 OFFCURVE",
"330 540 OFFCURVE",
"360 450 CURVE SMOOTH",
"375 405 OFFCURVE",
"390 360 OFFCURVE",
"404 314 CURVE SMOOTH",
"419 269 OFFCURVE",
"434 224 OFFCURVE",
"449 179 CURVE",
"472 224 OFFCURVE",
"494 270 OFFCURVE",
"517 315 CURVE SMOOTH",
"562 406 OFFCURVE",
"607 496 OFFCURVE",
"656 585 CURVE SMOOTH",
"680 629 OFFCURVE",
"705 674 OFFCURVE",
"731 717 CURVE",
"747 718 OFFCURVE",
"762 719 OFFCURVE",
"778 721 CURVE SMOOTH",
"793 722 OFFCURVE",
"809 723 OFFCURVE",
"824 725 CURVE",
"762 611 OFFCURVE",
"709 494 OFFCURVE",
"659 375 CURVE SMOOTH",
"633 316 OFFCURVE",
"609 256 OFFCURVE",
"585 197 CURVE SMOOTH",
"561 137 OFFCURVE",
"537 78 OFFCURVE",
"513 18 CURVE",
"501 19 OFFCURVE",
"491 19 OFFCURVE",
"480 19 CURVE SMOOTH",
"469 19 OFFCURVE",
"458 19 OFFCURVE",
"447 19 CURVE SMOOTH",
"432 19 OFFCURVE",
"417 19 OFFCURVE",
"403 19 CURVE SMOOTH",
"388 18 OFFCURVE",
"373 18 OFFCURVE",
"358 18 CURVE"
);
}
);
width = 801;
}
);
unicode = 0056;
},
{
glyphname = W;
lastChange = "2014-11-05 03:29:49 -0500";
layers = (
{
anchors = (
{
name = top;
position = "{629, 710}";
}
);
layerId = "16808965-E153-4B2B-ADB3-00196C646C32";
name = "Regular Italic";
paths = (
{
closed = 1;
nodes = (
"198 723 OFFCURVE",
"226 721 OFFCURVE",
"253 719 CURVE",
"281 635 OFFCURVE",
"303 548 OFFCURVE",
"322 461 CURVE SMOOTH",
"340 374 OFFCURVE",
"355 286 OFFCURVE",
"369 197 CURVE",
"404 252 OFFCURVE",
"437 308 OFFCURVE",
"469 364 CURVE SMOOTH",
"501 419 OFFCURVE",
"534 475 OFFCURVE",
"567 531 CURVE",
"644 531 LINE",
"665 473 OFFCURVE",
"685 416 OFFCURVE",
"705 359 CURVE SMOOTH",
"725 302 OFFCURVE",
"746 245 OFFCURVE",
"768 188 CURVE",
"833 368 OFFCURVE",
"904 548 OFFCURVE",
"996 720 CURVE",
"1011 720 OFFCURVE",
"1025 721 OFFCURVE",
"1039 722 CURVE SMOOTH",
"1053 723 OFFCURVE",
"1067 724 OFFCURVE",
"1081 725 CURVE",
"1024 611 OFFCURVE",
"978 494 OFFCURVE",
"938 375 CURVE SMOOTH",
"899 256 OFFCURVE",
"867 135 OFFCURVE",
"839 14 CURVE",
"816 15 OFFCURVE",
"793 16 OFFCURVE",
"771 16 CURVE SMOOTH",
"748 17 OFFCURVE",
"725 17 OFFCURVE",
"703 18 CURVE",
"660 144 OFFCURVE",
"630 275 OFFCURVE",
"597 405 CURVE",
"539 274 OFFCURVE",
"480 146 OFFCURVE",
"415 17 CURVE",
"366 17 OFFCURVE",
"317 15 OFFCURVE",
"268 13 CURVE",
"264 134 OFFCURVE",
"255 254 OFFCURVE",
"240 374 CURVE SMOOTH",
"225 493 OFFCURVE",
"203 610 OFFCURVE",
"170 725 CURVE"
);
}
);
width = 1058;
}
);
unicode = 0057;
},
{
glyphname = X;
lastChange = "2014-11-05 03:29:49 -0500";
layers = (
{
layerId = "16808965-E153-4B2B-ADB3-00196C646C32";
name = "Regular Italic";
paths = (
{
closed = 1;
nodes = (
"185 720 OFFCURVE",
"200 718 OFFCURVE",
"216 717 CURVE SMOOTH",
"231 716 OFFCURVE",
"247 715 OFFCURVE",
"263 714 CURVE",
"318 613 OFFCURVE",
"369 511 OFFCURVE",
"419 407 CURVE",
"489 512 OFFCURVE",
"559 614 OFFCURVE",
"633 716 CURVE",
"649 716 OFFCURVE",
"665 718 OFFCURVE",
"681 719 CURVE SMOOTH",
"697 721 OFFCURVE",
"712 722 OFFCURVE",
"728 723 CURVE",
"636 598 OFFCURVE",
"552 470 OFFCURVE",
"468 341 CURVE",
"537 227 OFFCURVE",
"604 114 OFFCURVE",
"680 5 CURVE",
"631 10 OFFCURVE",
"583 13 OFFCURVE",
"534 16 CURVE",
"486 101 OFFCURVE",
"444 187 OFFCURVE",
"401 275 CURVE",
"343 187 OFFCURVE",
"285 101 OFFCURVE",
"223 15 CURVE",
"174 13 OFFCURVE",
"124 10 OFFCURVE",
"75 5 CURVE",
"170 116 OFFCURVE",
"262 227 OFFCURVE",
"354 341 CURVE",
"294 470 OFFCURVE",
"236 596 OFFCURVE",
"169 721 CURVE"
);
}
);
width = 810;
}
);
unicode = 0058;
},
{
glyphname = Y;
lastChange = "2014-11-05 03:29:49 -0500";
layers = (
{
anchors = (
{
name = top;
position = "{477, 710}";
}
);
layerId = "16808965-E153-4B2B-ADB3-00196C646C32";
name = "Regular Italic";
paths = (
{
closed = 1;
nodes = (
"186 723 OFFCURVE",
"201 721 OFFCURVE",
"217 720 CURVE SMOOTH",
"232 718 OFFCURVE",
"248 717 OFFCURVE",
"264 716 CURVE",
"326 594 OFFCURVE",
"381 471 OFFCURVE",
"437 346 CURVE",
"513 471 OFFCURVE",
"589 595 OFFCURVE",
"673 717 CURVE",
"705 718 OFFCURVE",
"737 721 OFFCURVE",
"769 725 CURVE",
"717 649 OFFCURVE",
"668 571 OFFCURVE",
"623 493 CURVE SMOOTH",
"576 414 OFFCURVE",
"530 334 OFFCURVE",
"484 255 CURVE",
"477 176 OFFCURVE",
"472 98 OFFCURVE",
"467 18 CURVE",
"458 19 OFFCURVE",
"450 19 OFFCURVE",
"441 19 CURVE SMOOTH",
"432 19 OFFCURVE",
"423 19 OFFCURVE",
"415 19 CURVE SMOOTH",
"403 19 OFFCURVE",
"391 19 OFFCURVE",
"379 19 CURVE",
"367 18 OFFCURVE",
"355 18 OFFCURVE",
"343 18 CURVE",
"352 98 OFFCURVE",
"359 175 OFFCURVE",
"367 255 CURVE",
"304 414 OFFCURVE",
"243 570 OFFCURVE",
"170 725 CURVE"
);
}
);
width = 745;
}
);
unicode = 0059;
},
{
glyphname = Z;
lastChange = "2014-11-05 03:29:49 -0500";
layers = (
{
anchors = (
{
name = top;
position = "{414, 710}";
}
);
layerId = "16808965-E153-4B2B-ADB3-00196C646C32";
name = "Regular Italic";
paths = (
{
closed = 1;
nodes = (
"169 723 LINE",
"261 714 OFFCURVE",
"351 710 OFFCURVE",
"442 710 CURVE SMOOTH",
"540 710 OFFCURVE",
"636 714 OFFCURVE",
"733 724 CURVE",
"730 712 OFFCURVE",
"729 701 OFFCURVE",
"727 689 CURVE SMOOTH",
"725 677 OFFCURVE",
"723 666 OFFCURVE",
"720 654 CURVE",
"636 570 OFFCURVE",
"553 485 OFFCURVE",
"471 401 CURVE SMOOTH",
"389 316 OFFCURVE",
"306 231 OFFCURVE",
"222 147 CURVE",
"285 149 OFFCURVE",
"347 150 OFFCURVE",
"410 150 CURVE SMOOTH",
"501 150 OFFCURVE",
"590 148 OFFCURVE",
"680 142 CURVE",
"680 134 OFFCURVE",
"680 126 OFFCURVE",
"680 118 CURVE SMOOTH",
"680 109 OFFCURVE",
"680 102 OFFCURVE",
"680 93 CURVE SMOOTH",
"680 63 OFFCURVE",
"680 34 OFFCURVE",
"681 5 CURVE",
"584 14 OFFCURVE",
"488 19 OFFCURVE",
"390 19 CURVE SMOOTH",
"292 19 OFFCURVE",
"194 14 OFFCURVE",
"95 5 CURVE",
"104 49 OFFCURVE",
"111 93 OFFCURVE",
"119 137 CURVE",
"283 309 OFFCURVE",
"446 475 OFFCURVE",
"614 643 CURVE",
"553 640 OFFCURVE",
"494 639 OFFCURVE",
"434 639 CURVE SMOOTH",
"344 639 OFFCURVE",
"257 642 OFFCURVE",
"169 649 CURVE",
"169 699 LINE"
);
}
);
width = 811;
}
);
unicode = 005A;
},
{
glyphname = bracketleft;
lastChange = "2014-11-05 03:29:49 -0500";
layers = (
{
layerId = "16808965-E153-4B2B-ADB3-00196C646C32";
name = "Regular Italic";
paths = (
{
closed = 1;
nodes = (
"206 742 OFFCURVE",
"237 736 OFFCURVE",
"270 736 CURVE SMOOTH",
"305 736 OFFCURVE",
"340 743 OFFCURVE",
"374 755 CURVE",
"372 745 OFFCURVE",
"371 734 OFFCURVE",
"370 725 CURVE SMOOTH",
"368 714 OFFCURVE",
"367 704 OFFCURVE",
"366 694 CURVE",
"333 683 OFFCURVE",
"300 678 OFFCURVE",
"266 678 CURVE SMOOTH",
"264 678 OFFCURVE",
"261 678 OFFCURVE",
"258 678 CURVE SMOOTH",
"255 678 OFFCURVE",
"252 678 OFFCURVE",
"250 679 CURVE",
"230 446 OFFCURVE",
"211 217 OFFCURVE",
"189 -15 CURVE",
"208 -15 LINE SMOOTH",
"240 -15 OFFCURVE",
"272 -18 OFFCURVE",
"302 -27 CURVE",
"301 -44 OFFCURVE",
"300 -61 OFFCURVE",
"299 -77 CURVE SMOOTH",
"298 -94 OFFCURVE",
"297 -110 OFFCURVE",
"296 -127 CURVE",
"266 -116 OFFCURVE",
"233 -110 OFFCURVE",
"200 -110 CURVE SMOOTH",
"167 -110 OFFCURVE",
"132 -116 OFFCURVE",
"99 -127 CURVE",
"134 168 OFFCURVE",
"159 459 OFFCURVE",
"176 755 CURVE"
);
}
);
width = 454;
}
);
unicode = 005B;
},
{
glyphname = backslash;
lastChange = "2014-11-05 03:29:49 -0500";
layers = (
{
layerId = "16808965-E153-4B2B-ADB3-00196C646C32";
name = "Regular Italic";
paths = (
{
closed = 1;
nodes = (
"268 574 OFFCURVE",
"292 439 OFFCURVE",
"316 304 CURVE SMOOTH",
"340 169 OFFCURVE",
"365 34 OFFCURVE",
"394 -100 CURVE",
"363 -92 OFFCURVE",
"334 -84 OFFCURVE",
"303 -82 CURVE",
"279 51 OFFCURVE",
"258 186 OFFCURVE",
"237 321 CURVE SMOOTH",
"215 456 OFFCURVE",
"194 589 OFFCURVE",
"169 724 CURVE",
"192 716 OFFCURVE",
"216 711 OFFCURVE",
"240 708 CURVE"
);
}
);
width = 545;
}
);
unicode = 005C;
},
{
glyphname = bracketright;
lastChange = "2014-11-05 03:29:49 -0500";
layers = (
{
layerId = "16808965-E153-4B2B-ADB3-00196C646C32";
name = "Regular Italic";
paths = (
{
closed = 1;
nodes = (
"339 459 OFFCURVE",
"313 168 OFFCURVE",
"296 -127 CURVE",
"266 -116 OFFCURVE",
"233 -110 OFFCURVE",
"200 -110 CURVE SMOOTH",
"167 -110 OFFCURVE",
"132 -116 OFFCURVE",
"99 -127 CURVE",
"101 -111 OFFCURVE",
"103 -95 OFFCURVE",
"104 -80 CURVE SMOOTH",
"106 -64 OFFCURVE",
"108 -48 OFFCURVE",
"110 -32 CURVE",
"143 -23 OFFCURVE",
"175 -20 OFFCURVE",
"208 -20 CURVE SMOOTH",
"224 -20 LINE",
"244 215 OFFCURVE",
"264 444 OFFCURVE",
"286 679 CURVE",
"282 678 OFFCURVE",
"279 678 OFFCURVE",
"275 678 CURVE SMOOTH",
"272 678 OFFCURVE",
"269 678 OFFCURVE",
"266 678 CURVE SMOOTH",
"233 678 OFFCURVE",
"202 682 OFFCURVE",
"172 694 CURVE",
"173 704 OFFCURVE",
"174 714 OFFCURVE",
"174 725 CURVE SMOOTH",
"175 734 OFFCURVE",
"176 745 OFFCURVE",
"176 755 CURVE",
"206 742 OFFCURVE",
"237 736 OFFCURVE",
"270 736 CURVE SMOOTH",
"305 736 OFFCURVE",
"340 743 OFFCURVE",
"374 755 CURVE"
);
}
);
width = 454;
}
);
unicode = 005D;
},
{
glyphname = asciicircum;
lastChange = "2014-11-05 03:29:49 -0500";
layers = (
{
layerId = "16808965-E153-4B2B-ADB3-00196C646C32";
name = "Regular Italic";
paths = (
{
closed = 1;
nodes = (
"474 719 LINE",
"494 697 OFFCURVE",
"513 675 OFFCURVE",
"532 653 CURVE SMOOTH",
"570 607 OFFCURVE",
"609 563 OFFCURVE",
"651 521 CURVE SMOOTH",
"671 500 OFFCURVE",
"693 480 OFFCURVE",
"716 462 CURVE",
"693 463 OFFCURVE",
"671 464 OFFCURVE",
"648 464 CURVE SMOOTH",
"625 465 OFFCURVE",
"602 465 OFFCURVE",
"579 466 CURVE",
"550 499 OFFCURVE",
"526 535 OFFCURVE",
"503 572 CURVE SMOOTH",
"491 590 OFFCURVE",
"480 609 OFFCURVE",
"469 628 CURVE SMOOTH",
"458 647 OFFCURVE",
"446 666 OFFCURVE",
"434 684 CURVE",
"419 666 OFFCURVE",
"404 647 OFFCURVE",
"389 628 CURVE SMOOTH",
"360 591 OFFCURVE",
"331 553 OFFCURVE",
"300 518 CURVE SMOOTH",
"284 500 OFFCURVE",
"268 482 OFFCURVE",
"251 465 CURVE",
"228 465 OFFCURVE",
"206 464 OFFCURVE",
"183 464 CURVE SMOOTH",
"160 463 OFFCURVE",
"137 462 OFFCURVE",
"114 462 CURVE",
"166 500 OFFCURVE",
"214 543 OFFCURVE",
"261 587 CURVE SMOOTH",
"284 609 OFFCURVE",
"308 631 OFFCURVE",
"331 653 CURVE SMOOTH",
"354 676 OFFCURVE",
"377 698 OFFCURVE",
"401 719 CURVE"
);
}
);
width = 749;
}
);
unicode = 005E;
},
{
glyphname = underscore;
lastChange = "2014-11-05 03:29:49 -0500";
layers = (
{
layerId = "16808965-E153-4B2B-ADB3-00196C646C32";
name = "Regular Italic";
paths = (
{
closed = 1;
nodes = (
"480 -164 OFFCURVE",
"473 -182 OFFCURVE",
"473 -198 CURVE SMOOTH",
"473 -211 OFFCURVE",
"477 -223 OFFCURVE",
"486 -231 CURVE",
"401 -230 OFFCURVE",
"316 -229 OFFCURVE",
"231 -229 CURVE SMOOTH",
"146 -229 OFFCURVE",
"62 -230 OFFCURVE",
"-23 -231 CURVE",
"-10 -219 OFFCURVE",
"-4 -203 OFFCURVE",
"-4 -188 CURVE SMOOTH",
"-4 -174 OFFCURVE",
"-8 -162 OFFCURVE",
"-17 -153 CURVE",
"64 -154 OFFCURVE",
"144 -155 OFFCURVE",
"224 -155 CURVE SMOOTH",
"314 -155 OFFCURVE",
"403 -154 OFFCURVE",
"494 -153 CURVE"
);
}
);
width = 666;
}
);
unicode = 005F;
},
{
glyphname = grave;
lastChange = "2014-11-05 03:29:49 -0500";
layers = (
{
anchors = (
{
name = _top;
position = "{324, 493}";
}
);
layerId = "16808965-E153-4B2B-ADB3-00196C646C32";
name = "Regular Italic";
paths = (
{
closed = 1;
nodes = (
"280 777 OFFCURVE",
"289 763 OFFCURVE",
"298 749 CURVE SMOOTH",
"316 720 OFFCURVE",
"335 691 OFFCURVE",
"354 663 CURVE SMOOTH",
"364 649 OFFCURVE",
"375 635 OFFCURVE",
"385 622 CURVE",
"350 624 OFFCURVE",
"316 625 OFFCURVE",
"281 625 CURVE SMOOTH",
"265 625 LINE",
"252 653 OFFCURVE",
"239 682 OFFCURVE",
"227 711 CURVE SMOOTH",
"215 740 OFFCURVE",
"201 768 OFFCURVE",
"185 795 CURVE",
"212 792 OFFCURVE",
"241 792 OFFCURVE",
"270 792 CURVE"
);
}
);
width = 384;
}
);
unicode = 0060;
},
{
glyphname = a;
lastChange = "2014-11-05 03:29:49 -0500";
layers = (
{
anchors = (
{
name = bottom;
position = "{210, -25}";
},
{
name = ogonek;
position = "{529, 49}";
},
{
name = top;
position = "{306, 541}";
}
);
layerId = "16808965-E153-4B2B-ADB3-00196C646C32";
name = "Regular Italic";
paths = (
{
closed = 1;
nodes = (
"296 284 LINE",
"286 283 OFFCURVE",
"275 283 OFFCURVE",
"264 283 CURVE SMOOTH",
"242 282 OFFCURVE",
"220 279 OFFCURVE",
"199 273 CURVE SMOOTH",
"188 271 OFFCURVE",
"178 266 OFFCURVE",
"168 261 CURVE",
"143 244 OFFCURVE",
"130 213 OFFCURVE",
"127 184 CURVE",
"127 172 OFFCURVE",
"130 161 OFFCURVE",
"136 151 CURVE SMOOTH",
"142 141 OFFCURVE",
"150 134 OFFCURVE",
"162 131 CURVE SMOOTH",
"185 126 OFFCURVE",
"209 124 OFFCURVE",
"233 124 CURVE SMOOTH",
"250 124 OFFCURVE",
"269 124 OFFCURVE",
"287 127 CURVE SMOOTH",
"304 131 OFFCURVE",
"322 136 OFFCURVE",
"337 147 CURVE",
"353 163 OFFCURVE",
"361 181 OFFCURVE",
"366 200 CURVE SMOOTH",
"368 210 OFFCURVE",
"370 220 OFFCURVE",
"371 230 CURVE",
"372 240 OFFCURVE",
"373 250 OFFCURVE",
"375 259 CURVE",
"376 284 LINE"
);
},
{
closed = 1;
nodes = (
"492 223 OFFCURVE",
"487 137 OFFCURVE",
"487 49 CURVE SMOOTH",
"487 42 OFFCURVE",
"487 34 OFFCURVE",
"487 27 CURVE SMOOTH",
"487 20 OFFCURVE",
"487 12 OFFCURVE",
"487 5 CURVE",
"461 8 OFFCURVE",
"435 9 OFFCURVE",
"408 11 CURVE",
"409 25 OFFCURVE",
"409 40 OFFCURVE",
"410 55 CURVE SMOOTH",
"410 69 OFFCURVE",
"411 83 OFFCURVE",
"411 98 CURVE",
"388 63 OFFCURVE",
"355 38 OFFCURVE",
"320 23 CURVE SMOOTH",
"284 7 OFFCURVE",
"244 1 OFFCURVE",
"206 1 CURVE SMOOTH",
"163 1 OFFCURVE",
"121 10 OFFCURVE",
"91 40 CURVE",
"69 63 OFFCURVE",
"61 97 OFFCURVE",
"61 130 CURVE SMOOTH",
"61 162 OFFCURVE",
"67 198 OFFCURVE",
"82 230 CURVE SMOOTH",
"97 262 OFFCURVE",
"120 290 OFFCURVE",
"153 306 CURVE SMOOTH",
"206 332 OFFCURVE",
"256 337 OFFCURVE",
"307 337 CURVE SMOOTH",
"327 337 OFFCURVE",
"348 337 OFFCURVE",
"368 337 CURVE SMOOTH",
"388 337 OFFCURVE",
"409 337 OFFCURVE",
"429 338 CURVE",
"430 352 LINE SMOOTH",
"431 359 OFFCURVE",
"432 366 OFFCURVE",
"432 374 CURVE SMOOTH",
"432 402 OFFCURVE",
"424 430 OFFCURVE",
"404 449 CURVE",
"387 463 OFFCURVE",
"369 473 OFFCURVE",
"350 479 CURVE SMOOTH",
"331 485 OFFCURVE",
"311 488 OFFCURVE",
"292 489 CURVE",
"234 489 OFFCURVE",
"176 479 OFFCURVE",
"123 454 CURVE",
"124 464 OFFCURVE",
"124 474 OFFCURVE",
"124 484 CURVE SMOOTH",
"124 494 OFFCURVE",
"125 504 OFFCURVE",
"125 514 CURVE",
"184 532 OFFCURVE",
"245 544 OFFCURVE",
"306 544 CURVE SMOOTH",
"333 544 OFFCURVE",
"364 542 OFFCURVE",
"391 535 CURVE SMOOTH",
"418 528 OFFCURVE",
"444 516 OFFCURVE",
"463 497 CURVE",
"496 459 OFFCURVE",
"504 412 OFFCURVE",
"504 365 CURVE SMOOTH",
"504 347 OFFCURVE",
"503 329 OFFCURVE",
"501 312 CURVE SMOOTH"
);
}
);
width = 617;
}
);
unicode = 0061;
},
{
glyphname = b;
lastChange = "2014-11-05 03:29:49 -0500";
layers = (
{
anchors = (
{
name = bottom;
position = "{332, -27}";
}
);
layerId = "16808965-E153-4B2B-ADB3-00196C646C32";
name = "Regular Italic";
paths = (
{
closed = 1;
nodes = (
"545 295 LINE SMOOTH",
"545 299 OFFCURVE",
"545 303 OFFCURVE",
"546 307 CURVE",
"546 310 OFFCURVE",
"546 314 OFFCURVE",
"546 318 CURVE SMOOTH",
"546 359 OFFCURVE",
"540 404 OFFCURVE",
"522 438 CURVE SMOOTH",
"504 472 OFFCURVE",
"475 495 OFFCURVE",
"426 495 CURVE SMOOTH",
"381 495 OFFCURVE",
"337 479 OFFCURVE",
"308 441 CURVE SMOOTH",
"273 397 OFFCURVE",
"260 343 OFFCURVE",
"255 291 CURVE",
"257 255 OFFCURVE",
"261 217 OFFCURVE",
"283 189 CURVE",
"298 173 OFFCURVE",
"315 163 OFFCURVE",
"334 157 CURVE SMOOTH",
"354 151 OFFCURVE",
"373 149 OFFCURVE",
"392 149 CURVE",
"427 151 OFFCURVE",
"460 161 OFFCURVE",
"490 181 CURVE",
"507 195 OFFCURVE",
"519 213 OFFCURVE",
"527 233 CURVE SMOOTH",
"535 253 OFFCURVE",
"541 274 OFFCURVE",
"545 294 CURVE"
);
},
{
closed = 1;
nodes = (
"232 458 OFFCURVE",
"234 458 OFFCURVE",
"235 458 CURVE",
"236 457 OFFCURVE",
"237 457 OFFCURVE",
"237 457 CURVE",
"253 485 OFFCURVE",
"279 508 OFFCURVE",
"307 523 CURVE SMOOTH",
"335 539 OFFCURVE",
"367 547 OFFCURVE",
"398 547 CURVE SMOOTH",
"406 547 LINE",
"414 547 LINE SMOOTH",
"476 547 OFFCURVE",
"520 518 OFFCURVE",
"548 475 CURVE SMOOTH",
"577 432 OFFCURVE",
"590 374 OFFCURVE",
"590 316 CURVE SMOOTH",
"590 277 OFFCURVE",
"586 234 OFFCURVE",
"576 191 CURVE SMOOTH",
"566 149 OFFCURVE",
"548 107 OFFCURVE",
"520 74 CURVE SMOOTH",
"481 29 OFFCURVE",
"425 4 OFFCURVE",
"368 5 CURVE SMOOTH",
"360 5 LINE SMOOTH",
"359 5 OFFCURVE",
"357 5 OFFCURVE",
"356 5 CURVE",
"354 4 OFFCURVE",
"353 4 OFFCURVE",
"352 4 CURVE SMOOTH",
"317 4 OFFCURVE",
"284 14 OFFCURVE",
"257 32 CURVE SMOOTH",
"229 50 OFFCURVE",
"207 76 OFFCURVE",
"194 107 CURVE",
"132 186 LINE SMOOTH",
"169 437 OFFCURVE",
"170 502 OFFCURVE",
"176 754 CURVE",
"189 751 OFFCURVE",
"202 750 OFFCURVE",
"215 749 CURVE",
"228 748 OFFCURVE",
"241 746 OFFCURVE",
"255 745 CURVE",
"248 649 OFFCURVE",
"241 554 OFFCURVE",
"229 458 CURVE"
);
}
);
width = 667;
}
);
unicode = 0062;
},
{
glyphname = c;
lastChange = "2014-11-05 03:29:49 -0500";
layers = (
{
anchors = (
{
name = bottom;
position = "{313, 0}";
},
{
name = top;
position = "{313, 541}";
}
);
layerId = "16808965-E153-4B2B-ADB3-00196C646C32";
name = "Regular Italic";
paths = (
{
closed = 1;
nodes = (
"505 513 OFFCURVE",
"502 501 OFFCURVE",
"501 489 CURVE",
"499 478 OFFCURVE",
"497 466 OFFCURVE",
"495 454 CURVE",
"454 475 OFFCURVE",
"409 485 OFFCURVE",
"362 485 CURVE SMOOTH",
"336 485 OFFCURVE",
"309 481 OFFCURVE",
"284 472 CURVE SMOOTH",
"259 462 OFFCURVE",
"236 448 OFFCURVE",
"218 427 CURVE SMOOTH",
"199 405 OFFCURVE",
"186 380 OFFCURVE",
"177 354 CURVE SMOOTH",
"169 327 OFFCURVE",
"164 299 OFFCURVE",
"162 272 CURVE",
"162 254 OFFCURVE",
"164 234 OFFCURVE",
"169 217 CURVE SMOOTH",
"175 200 OFFCURVE",
"184 184 OFFCURVE",
"199 173 CURVE",
"234 149 OFFCURVE",
"277 144 OFFCURVE",
"320 141 CURVE",
"394 139 LINE",
"400 139 LINE SMOOTH",
"421 139 OFFCURVE",
"444 144 OFFCURVE",
"464 154 CURVE",
"462 127 OFFCURVE",
"462 102 OFFCURVE",
"462 75 CURVE SMOOTH",
"462 58 OFFCURVE",
"462 42 OFFCURVE",
"463 24 CURVE",
"416 7 OFFCURVE",
"368 0 OFFCURVE",
"321 0 CURVE SMOOTH",
"284 0 OFFCURVE",
"247 4 OFFCURVE",
"212 14 CURVE SMOOTH",
"177 24 OFFCURVE",
"145 42 OFFCURVE",
"122 71 CURVE SMOOTH",
"86 114 OFFCURVE",
"76 170 OFFCURVE",
"76 228 CURVE SMOOTH",
"76 267 OFFCURVE",
"80 313 OFFCURVE",
"92 356 CURVE SMOOTH",
"104 399 OFFCURVE",
"125 442 OFFCURVE",
"158 474 CURVE SMOOTH",
"188 502 OFFCURVE",
"223 520 OFFCURVE",
"261 531 CURVE SMOOTH",
"298 542 OFFCURVE",
"338 545 OFFCURVE",
"375 545 CURVE SMOOTH",
"422 545 OFFCURVE",
"466 537 OFFCURVE",
"509 521 CURVE",
"508 522 OFFCURVE",
"508 523 OFFCURVE",
"507 525 CURVE"
);
}
);
width = 588;
}
);
unicode = 0063;
},
{
glyphname = d;
lastChange = "2014-11-05 03:29:49 -0500";
layers = (
{
anchors = (
{
name = bottom;
position = "{264, -20}";
},
{
name = center;
position = "{377, 271}";
},
{
name = top;
position = "{343, 602}";
}
);
layerId = "16808965-E153-4B2B-ADB3-00196C646C32";
name = "Regular Italic";
paths = (
{
closed = 1;
nodes = (
"481 557 OFFCURVE",
"497 651 OFFCURVE",
"514 747 CURVE",
"527 748 OFFCURVE",
"541 749 OFFCURVE",
"554 750 CURVE SMOOTH",
"567 752 OFFCURVE",
"581 754 OFFCURVE",
"595 755 CURVE",
"549 505 OFFCURVE",
"522 257 OFFCURVE",
"518 6 CURVE",
"505 8 OFFCURVE",
"492 9 OFFCURVE",
"479 10 CURVE SMOOTH",
"465 11 OFFCURVE",
"452 12 OFFCURVE",
"439 14 CURVE",
"439 29 OFFCURVE",
"440 45 OFFCURVE",
"440 61 CURVE SMOOTH",
"441 76 OFFCURVE",
"441 92 OFFCURVE",
"442 107 CURVE",
"424 76 OFFCURVE",
"398 50 OFFCURVE",
"367 32 CURVE SMOOTH",
"336 15 OFFCURVE",
"301 5 OFFCURVE",
"266 5 CURVE SMOOTH",
"259 5 LINE SMOOTH",
"257 5 OFFCURVE",
"255 5 OFFCURVE",
"254 5 CURVE",
"252 4 OFFCURVE",
"250 4 OFFCURVE",
"249 4 CURVE SMOOTH",
"193 4 OFFCURVE",
"141 28 OFFCURVE",
"111 73 CURVE SMOOTH",
"83 116 OFFCURVE",
"74 165 OFFCURVE",
"74 216 CURVE SMOOTH",
"74 257 OFFCURVE",
"79 304 OFFCURVE",
"90 350 CURVE SMOOTH",
"102 395 OFFCURVE",
"122 439 OFFCURVE",
"152 476 CURVE SMOOTH",
"170 499 OFFCURVE",
"194 516 OFFCURVE",
"220 528 CURVE SMOOTH",
"245 541 OFFCURVE",
"273 547 OFFCURVE",
"301 547 CURVE SMOOTH",
"307 547 LINE",
"315 547 LINE SMOOTH",
"346 547 OFFCURVE",
"376 540 OFFCURVE",
"402 524 CURVE SMOOTH",
"428 509 OFFCURVE",
"449 488 OFFCURVE",
"460 459 CURVE",
"462 459 OFFCURVE",
"463 460 OFFCURVE",
"465 460 CURVE",
"466 460 OFFCURVE",
"468 461 OFFCURVE",
"469 461 CURVE"
);
},
{
closed = 1;
nodes = (
"128 283 LINE",
"129 246 OFFCURVE",
"136 209 OFFCURVE",
"161 182 CURVE",
"174 169 OFFCURVE",
"190 162 OFFCURVE",
"208 158 CURVE SMOOTH",
"226 154 OFFCURVE",
"244 153 OFFCURVE",
"262 153 CURVE",
"298 154 OFFCURVE",
"337 157 OFFCURVE",
"369 178 CURVE",
"391 194 OFFCURVE",
"402 220 OFFCURVE",
"409 248 CURVE SMOOTH",
"415 274 OFFCURVE",
"416 302 OFFCURVE",
"416 321 CURVE SMOOTH",
"416 349 OFFCURVE",
"414 375 OFFCURVE",
"408 401 CURVE SMOOTH",
"402 429 OFFCURVE",
"389 453 OFFCURVE",
"370 469 CURVE SMOOTH",
"352 485 OFFCURVE",
"328 494 OFFCURVE",
"302 494 CURVE SMOOTH",
"295 494 LINE",
"290 494 LINE SMOOTH",
"253 494 OFFCURVE",
"224 480 OFFCURVE",
"201 459 CURVE SMOOTH",
"178 438 OFFCURVE",
"162 410 OFFCURVE",
"150 379 CURVE SMOOTH",
"138 348 OFFCURVE",
"131 314 OFFCURVE",
"128 284 CURVE"
);
}
);
width = 647;
}
);
unicode = 0064;
},
{
glyphname = e;
lastChange = "2014-11-05 03:29:49 -0500";
layers = (
{
anchors = (
{
name = bottom;
position = "{316, 1}";
},
{
name = ogonek;
position = "{382, 1}";
},
{
name = top;
position = "{330, 541}";
}
);
layerId = "16808965-E153-4B2B-ADB3-00196C646C32";
name = "Regular Italic";
paths = (
{
closed = 1;
nodes = (
"542 330 LINE",
"542 325 OFFCURVE",
"542 320 OFFCURVE",
"541 315 CURVE SMOOTH",
"541 311 OFFCURVE",
"540 306 OFFCURVE",
"539 301 CURVE",
"458 300 OFFCURVE",
"377 299 OFFCURVE",
"296 299 CURVE SMOOTH",
"273 299 OFFCURVE",
"250 299 OFFCURVE",
"227 300 CURVE SMOOTH",
"203 300 OFFCURVE",
"180 300 OFFCURVE",
"156 300 CURVE",
"156 288 OFFCURVE",
"155 275 OFFCURVE",
"155 262 CURVE SMOOTH",
"155 241 OFFCURVE",
"156 221 OFFCURVE",
"162 202 CURVE SMOOTH",
"168 184 OFFCURVE",
"177 167 OFFCURVE",
"194 154 CURVE",
"216 141 OFFCURVE",
"241 132 OFFCURVE",
"267 127 CURVE SMOOTH",
"292 122 OFFCURVE",
"319 120 OFFCURVE",
"344 120 CURVE SMOOTH",
"373 120 OFFCURVE",
"401 120 OFFCURVE",
"430 123 CURVE SMOOTH",
"458 125 OFFCURVE",
"485 131 OFFCURVE",
"511 144 CURVE",
"511 135 OFFCURVE",
"511 125 OFFCURVE",
"511 116 CURVE SMOOTH",
"511 107 OFFCURVE",
"511 98 OFFCURVE",
"511 88 CURVE SMOOTH",
"511 79 OFFCURVE",
"511 70 OFFCURVE",
"511 61 CURVE SMOOTH",
"511 51 OFFCURVE",
"511 42 OFFCURVE",
"512 33 CURVE",
"448 11 OFFCURVE",
"382 1 OFFCURVE",
"316 1 CURVE",
"281 4 OFFCURVE",
"244 9 OFFCURVE",
"211 19 CURVE SMOOTH",
"177 29 OFFCURVE",
"146 45 OFFCURVE",
"123 72 CURVE SMOOTH",
"104 93 OFFCURVE",
"92 118 OFFCURVE",
"84 145 CURVE SMOOTH",
"77 172 OFFCURVE",
"74 200 OFFCURVE",
"74 229 CURVE SMOOTH",
"74 268 OFFCURVE",
"80 312 OFFCURVE",
"93 355 CURVE SMOOTH",
"106 398 OFFCURVE",
"126 440 OFFCURVE",
"156 472 CURVE SMOOTH",
"182 498 OFFCURVE",
"213 516 OFFCURVE",
"246 527 CURVE SMOOTH",
"279 539 OFFCURVE",
"315 543 OFFCURVE",
"348 544 CURVE",
"375 542 OFFCURVE",
"404 540 OFFCURVE",
"431 532 CURVE SMOOTH",
"458 524 OFFCURVE",
"483 512 OFFCURVE",
"502 493 CURVE",
"520 474 OFFCURVE",
"529 451 OFFCURVE",
"535 427 CURVE SMOOTH",
"541 403 OFFCURVE",
"542 377 OFFCURVE",
"542 352 CURVE SMOOTH",
"542 348 OFFCURVE",
"542 344 OFFCURVE",
"542 340 CURVE",
"542 336 OFFCURVE",
"542 333 OFFCURVE",
"542 329 CURVE"
);
},
{
closed = 1;
nodes = (
"481 405 OFFCURVE",
"467 440 OFFCURVE",
"443 466 CURVE SMOOTH",
"419 491 OFFCURVE",
"386 507 OFFCURVE",
"345 507 CURVE SMOOTH",
"301 507 OFFCURVE",
"254 495 OFFCURVE",
"221 463 CURVE",
"191 438 OFFCURVE",
"172 403 OFFCURVE",
"170 366 CURVE",
"188 365 OFFCURVE",
"206 365 OFFCURVE",
"224 365 CURVE SMOOTH",
"242 365 OFFCURVE",
"260 365 OFFCURVE",
"278 365 CURVE SMOOTH",
"347 365 OFFCURVE",
"414 365 OFFCURVE",
"483 367 CURVE"
);
}
);
width = 636;
}
);
unicode = 0065;
},
{
glyphname = f;
lastChange = "2014-11-05 03:29:49 -0500";
layers = (
{
layerId = "16808965-E153-4B2B-ADB3-00196C646C32";
name = "Regular Italic";
paths = (
{
closed = 1;
nodes = (
"447 724 OFFCURVE",
"445 713 OFFCURVE",
"443 702 CURVE SMOOTH",
"442 691 OFFCURVE",
"440 680 OFFCURVE",
"439 669 CURVE",
"435 668 OFFCURVE",
"430 668 OFFCURVE",
"425 668 CURVE SMOOTH",
"420 668 OFFCURVE",
"416 668 OFFCURVE",
"411 668 CURVE SMOOTH",
"396 668 OFFCURVE",
"381 669 OFFCURVE",
"366 669 CURVE",
"348 668 OFFCURVE",
"328 665 OFFCURVE",
"313 651 CURVE",
"297 632 OFFCURVE",
"295 607 OFFCURVE",
"292 584 CURVE",
"292 576 OFFCURVE",
"292 568 OFFCURVE",
"292 560 CURVE SMOOTH",
"292 551 OFFCURVE",
"292 542 OFFCURVE",
"293 534 CURVE",
"338 535 OFFCURVE",
"384 537 OFFCURVE",
"429 541 CURVE",
"425 514 OFFCURVE",
"423 489 OFFCURVE",
"420 462 CURVE",
"375 459 OFFCURVE",
"331 458 OFFCURVE",
"286 458 CURVE",
"277 311 OFFCURVE",
"269 166 OFFCURVE",
"263 19 CURVE",
"258 19 OFFCURVE",
"253 19 OFFCURVE",
"248 19 CURVE SMOOTH",
"243 19 OFFCURVE",
"238 19 OFFCURVE",
"232 19 CURVE SMOOTH",
"203 19 OFFCURVE",
"173 18 OFFCURVE",
"143 15 CURVE",
"166 164 OFFCURVE",
"184 310 OFFCURVE",
"201 459 CURVE",
"175 459 OFFCURVE",
"150 460 OFFCURVE",
"125 462 CURVE",
"126 476 OFFCURVE",
"127 489 OFFCURVE",
"128 502 CURVE",
"129 515 OFFCURVE",
"130 528 OFFCURVE",
"131 542 CURVE",
"156 538 OFFCURVE",
"181 537 OFFCURVE",
"206 536 CURVE",
"209 548 OFFCURVE",
"211 561 OFFCURVE",
"213 576 CURVE SMOOTH",
"217 605 OFFCURVE",
"223 635 OFFCURVE",
"236 661 CURVE SMOOTH",
"250 688 OFFCURVE",
"280 710 OFFCURVE",
"317 722 CURVE SMOOTH",
"335 728 OFFCURVE",
"354 732 OFFCURVE",
"374 733 CURVE",
"373 733 LINE",
"378 733 OFFCURVE",
"383 733 OFFCURVE",
"389 733 CURVE SMOOTH",
"394 733 OFFCURVE",
"398 733 OFFCURVE",
"404 733 CURVE SMOOTH",
"419 733 OFFCURVE",
"433 733 OFFCURVE",
"448 735 CURVE"
);
}
);
width = 453;
}
);
unicode = 0066;
},
{
glyphname = g;
lastChange = "2014-11-05 03:29:49 -0500";
layers = (
{
anchors = (
{
name = top;
position = "{340, 541}";
}
);
layerId = "16808965-E153-4B2B-ADB3-00196C646C32";
name = "Regular Italic";
paths = (
{
closed = 1;
nodes = (
"422 294 OFFCURVE",
"422 306 OFFCURVE",
"422 319 CURVE SMOOTH",
"422 375 OFFCURVE",
"408 416 OFFCURVE",
"384 442 CURVE SMOOTH",
"359 469 OFFCURVE",
"324 481 OFFCURVE",
"283 481 CURVE SMOOTH",
"242 481 OFFCURVE",
"197 465 OFFCURVE",
"170 432 CURVE SMOOTH",
"152 410 OFFCURVE",
"142 385 OFFCURVE",
"134 360 CURVE SMOOTH",
"127 334 OFFCURVE",
"124 308 OFFCURVE",
"122 282 CURVE",
"123 272 OFFCURVE",
"124 261 OFFCURVE",
"124 250 CURVE SMOOTH",
"125 228 OFFCURVE",
"128 207 OFFCURVE",
"136 188 CURVE SMOOTH",
"140 178 OFFCURVE",
"146 169 OFFCURVE",
"153 162 CURVE",
"181 143 OFFCURVE",
"218 141 OFFCURVE",
"252 141 CURVE SMOOTH",
"290 141 OFFCURVE",
"330 146 OFFCURVE",
"365 162 CURVE",
"386 174 OFFCURVE",
"399 193 OFFCURVE",
"407 215 CURVE SMOOTH",
"415 236 OFFCURVE",
"418 260 OFFCURVE",
"420 281 CURVE SMOOTH"
);
},
{
closed = 1;
nodes = (
"503 30 OFFCURVE",
"499 -12 OFFCURVE",
"489 -52 CURVE SMOOTH",
"479 -92 OFFCURVE",
"463 -131 OFFCURVE",
"434 -163 CURVE",
"406 -190 OFFCURVE",
"373 -205 OFFCURVE",
"337 -212 CURVE SMOOTH",
"302 -221 OFFCURVE",
"265 -222 OFFCURVE",
"231 -222 CURVE SMOOTH",
"181 -222 OFFCURVE",
"130 -218 OFFCURVE",
"82 -205 CURVE",
"90 -156 OFFCURVE",
"96 -106 OFFCURVE",
"102 -58 CURVE",
"145 -81 OFFCURVE",
"193 -90 OFFCURVE",
"244 -90 CURVE SMOOTH",
"267 -90 OFFCURVE",
"291 -87 OFFCURVE",
"314 -80 CURVE SMOOTH",
"337 -72 OFFCURVE",
"359 -61 OFFCURVE",
"376 -42 CURVE SMOOTH",
"402 -14 OFFCURVE",
"423 18 OFFCURVE",
"433 54 CURVE",
"433 61 OFFCURVE",
"434 69 OFFCURVE",
"435 77 CURVE",
"435 84 OFFCURVE",
"436 92 OFFCURVE",
"436 99 CURVE",
"392 39 OFFCURVE",
"330 11 OFFCURVE",
"257 11 CURVE SMOOTH",
"202 11 OFFCURVE",
"150 35 OFFCURVE",
"121 81 CURVE SMOOTH",
"89 127 OFFCURVE",
"80 185 OFFCURVE",
"80 243 CURVE SMOOTH",
"80 280 OFFCURVE",
"83 321 OFFCURVE",
"93 362 CURVE SMOOTH",
"103 403 OFFCURVE",
"119 442 OFFCURVE",
"148 474 CURVE SMOOTH",
"167 497 OFFCURVE",
"191 513 OFFCURVE",
"218 524 CURVE SMOOTH",
"245 535 OFFCURVE",
"274 540 OFFCURVE",
"301 540 CURVE SMOOTH",
"309 540 LINE",
"316 540 LINE SMOOTH",
"350 540 OFFCURVE",
"384 530 OFFCURVE",
"412 513 CURVE SMOOTH",
"439 496 OFFCURVE",
"461 472 OFFCURVE",
"474 440 CURVE",
"478 456 OFFCURVE",
"482 472 OFFCURVE",
"486 487 CURVE SMOOTH",
"490 502 OFFCURVE",
"494 518 OFFCURVE",
"498 534 CURVE",
"511 535 OFFCURVE",
"525 537 OFFCURVE",
"538 538 CURVE",
"551 539 OFFCURVE",
"565 541 OFFCURVE",
"579 542 CURVE",
"547 384 OFFCURVE",
"526 228 OFFCURVE",
"509 69 CURVE SMOOTH"
);
}
);
width = 631;
}
);
unicode = 0067;
},
{
glyphname = h;
lastChange = "2014-11-05 03:29:49 -0500";
layers = (
{
anchors = (
{
name = bottom;
position = "{308, -1}";
},
{
name = center;
position = "{286, 271}";
},
{
name = top;
position = "{403, 547}";
}
);
layerId = "16808965-E153-4B2B-ADB3-00196C646C32";
name = "Regular Italic";
paths = (
{
closed = 1;
nodes = (
"559 260 OFFCURVE",
"557 190 OFFCURVE",
"557 121 CURVE SMOOTH",
"557 82 OFFCURVE",
"558 44 OFFCURVE",
"559 5 CURVE",
"526 9 OFFCURVE",
"493 13 OFFCURVE",
"460 15 CURVE",
"467 120 OFFCURVE",
"477 223 OFFCURVE",
"488 328 CURVE SMOOTH",
"489 338 OFFCURVE",
"489 349 OFFCURVE",
"489 360 CURVE SMOOTH",
"489 389 OFFCURVE",
"485 416 OFFCURVE",
"474 441 CURVE",
"453 478 OFFCURVE",
"419 491 OFFCURVE",
"382 491 CURVE SMOOTH",
"341 491 OFFCURVE",
"297 474 OFFCURVE",
"268 440 CURVE SMOOTH",
"236 403 OFFCURVE",
"220 356 OFFCURVE",
"216 310 CURVE SMOOTH",
"212 261 OFFCURVE",
"209 211 OFFCURVE",
"206 163 CURVE SMOOTH",
"202 113 OFFCURVE",
"197 64 OFFCURVE",
"192 15 CURVE",
"159 12 OFFCURVE",
"125 9 OFFCURVE",
"91 5 CURVE",
"140 254 OFFCURVE",
"167 501 OFFCURVE",
"176 752 CURVE",
"203 749 OFFCURVE",
"229 746 OFFCURVE",
"256 744 CURVE",
"248 643 OFFCURVE",
"239 544 OFFCURVE",
"228 443 CURVE",
"247 472 OFFCURVE",
"274 499 OFFCURVE",
"304 517 CURVE SMOOTH",
"334 536 OFFCURVE",
"368 547 OFFCURVE",
"403 547 CURVE SMOOTH",
"408 547 LINE",
"416 547 LINE SMOOTH",
"441 547 OFFCURVE",
"466 542 OFFCURVE",
"488 533 CURVE SMOOTH",
"510 522 OFFCURVE",
"529 506 OFFCURVE",
"541 484 CURVE SMOOTH",
"560 446 OFFCURVE",
"564 407 OFFCURVE",
"564 370 CURVE SMOOTH",
"564 356 OFFCURVE",
"564 343 OFFCURVE",
"563 330 CURVE SMOOTH"
);
}
);
width = 689;
}
);
unicode = 0068;
},
{
glyphname = i;
lastChange = "2014-11-05 03:29:49 -0500";
layers = (
{
anchors = (
{
name = bottom;
position = "{154, -0}";
}
);
layerId = "16808965-E153-4B2B-ADB3-00196C646C32";
name = "Regular Italic";
paths = (
{
closed = 1;
nodes = (
"169 536 OFFCURVE",
"179 534 OFFCURVE",
"190 534 CURVE SMOOTH",
"202 534 OFFCURVE",
"213 536 OFFCURVE",
"225 540 CURVE",
"210 360 OFFCURVE",
"197 184 OFFCURVE",
"185 5 CURVE",
"175 14 OFFCURVE",
"162 19 OFFCURVE",
"147 19 CURVE SMOOTH",
"132 19 OFFCURVE",
"117 14 OFFCURVE",
"105 5 CURVE",
"125 184 OFFCURVE",
"143 360 OFFCURVE",
"159 539 CURVE"
);
},
{
closed = 1;
nodes = (
"185 743 OFFCURVE",
"196 740 OFFCURVE",
"208 740 CURVE SMOOTH",
"222 740 OFFCURVE",
"234 744 OFFCURVE",
"246 751 CURVE",
"245 734 OFFCURVE",
"244 717 OFFCURVE",
"243 701 CURVE SMOOTH",
"243 684 OFFCURVE",
"242 667 OFFCURVE",
"240 649 CURVE",
"227 642 OFFCURVE",
"213 638 OFFCURVE",
"199 638 CURVE SMOOTH",
"185 638 OFFCURVE",
"173 642 OFFCURVE",
"163 650 CURVE",
"165 667 OFFCURVE",
"167 684 OFFCURVE",
"169 701 CURVE SMOOTH",
"171 717 OFFCURVE",
"173 734 OFFCURVE",
"175 751 CURVE"
);
}
);
width = 315;
}
);
unicode = 0069;
},
{
glyphname = j;
lastChange = "2014-11-05 03:29:49 -0500";
layers = (
{
layerId = "16808965-E153-4B2B-ADB3-00196C646C32";
name = "Regular Italic";
paths = (
{
closed = 1;
nodes = (
"223 528 OFFCURVE",
"247 530 OFFCURVE",
"271 533 CURVE",
"247 354 OFFCURVE",
"225 174 OFFCURVE",
"205 -7 CURVE SMOOTH",
"203 -30 OFFCURVE",
"200 -55 OFFCURVE",
"192 -79 CURVE SMOOTH",
"185 -103 OFFCURVE",
"174 -125 OFFCURVE",
"155 -143 CURVE",
"130 -165 OFFCURVE",
"101 -175 OFFCURVE",
"71 -183 CURVE SMOOTH",
"56 -186 OFFCURVE",
"41 -189 OFFCURVE",
"26 -192 CURVE SMOOTH",
"11 -194 OFFCURVE",
"-4 -198 OFFCURVE",
"-18 -203 CURVE",
"-15 -182 OFFCURVE",
"-12 -161 OFFCURVE",
"-9 -140 CURVE SMOOTH",
"-6 -119 OFFCURVE",
"-3 -98 OFFCURVE",
"0 -77 CURVE",
"8 -75 OFFCURVE",
"17 -73 OFFCURVE",
"26 -72 CURVE SMOOTH",
"45 -69 OFFCURVE",
"64 -64 OFFCURVE",
"82 -56 CURVE SMOOTH",
"90 -52 OFFCURVE",
"99 -47 OFFCURVE",
"106 -40 CURVE",
"105 -40 LINE",
"116 -26 OFFCURVE",
"123 -10 OFFCURVE",
"126 6 CURVE SMOOTH",
"130 22 OFFCURVE",
"133 39 OFFCURVE",
"135 55 CURVE SMOOTH",
"146 134 OFFCURVE",
"156 213 OFFCURVE",
"167 292 CURVE SMOOTH",
"177 370 OFFCURVE",
"188 448 OFFCURVE",
"199 527 CURVE"
);
},
{
closed = 1;
nodes = (
"264 742 OFFCURVE",
"288 746 OFFCURVE",
"311 753 CURVE",
"310 736 OFFCURVE",
"308 719 OFFCURVE",
"307 702 CURVE SMOOTH",
"306 685 OFFCURVE",
"305 667 OFFCURVE",
"304 649 CURVE",
"278 642 OFFCURVE",
"251 639 OFFCURVE",
"224 636 CURVE",
"227 653 OFFCURVE",
"229 670 OFFCURVE",
"232 688 CURVE SMOOTH",
"234 704 OFFCURVE",
"237 721 OFFCURVE",
"240 738 CURVE"
);
}
);
width = 341;
}
);
unicode = 006A;
},
{
glyphname = k;
lastChange = "2014-11-05 03:29:49 -0500";
layers = (
{
anchors = (
{
name = bottom;
position = "{280, 0}";
}
);
layerId = "16808965-E153-4B2B-ADB3-00196C646C32";
name = "Regular Italic";
paths = (
{
closed = 1;
nodes = (
"203 749 OFFCURVE",
"229 746 OFFCURVE",
"256 744 CURVE",
"249 602 OFFCURVE",
"237 460 OFFCURVE",
"222 318 CURVE",
"256 354 OFFCURVE",
"289 391 OFFCURVE",
"322 427 CURVE SMOOTH",
"355 462 OFFCURVE",
"389 499 OFFCURVE",
"423 534 CURVE",
"456 535 OFFCURVE",
"487 535 OFFCURVE",
"520 537 CURVE",
"484 496 OFFCURVE",
"448 456 OFFCURVE",
"413 415 CURVE SMOOTH",
"377 375 OFFCURVE",
"342 334 OFFCURVE",
"306 293 CURVE",
"397 197 OFFCURVE",
"486 103 OFFCURVE",
"575 5 CURVE",
"519 12 OFFCURVE",
"462 17 OFFCURVE",
"405 18 CURVE",
"341 104 OFFCURVE",
"278 188 OFFCURVE",
"217 275 CURVE",
"216 231 OFFCURVE",
"213 188 OFFCURVE",
"210 145 CURVE SMOOTH",
"207 102 OFFCURVE",
"204 59 OFFCURVE",
"201 15 CURVE",
"183 14 OFFCURVE",
"165 12 OFFCURVE",
"146 11 CURVE SMOOTH",
"128 9 OFFCURVE",
"110 7 OFFCURVE",
"91 5 CURVE",
"140 254 OFFCURVE",
"167 501 OFFCURVE",
"176 752 CURVE"
);
}
);
width = 705;
}
);
unicode = 006B;
},
{
glyphname = l;
lastChange = "2014-11-05 03:29:49 -0500";
layers = (
{
anchors = (
{
name = bottom;
position = "{177, -16}";
},
{
name = center;
position = "{310, 402}";
},
{
name = top;
position = "{260, 688}";
},
{
name = topright;
position = "{280, 541}";
}
);
layerId = "16808965-E153-4B2B-ADB3-00196C646C32";
name = "Regular Italic";
paths = (
{
closed = 1;
nodes = (
"193 742 OFFCURVE",
"214 740 OFFCURVE",
"234 740 CURVE SMOOTH",
"236 740 OFFCURVE",
"239 740 OFFCURVE",
"242 740 CURVE SMOOTH",
"245 740 OFFCURVE",
"248 740 OFFCURVE",
"250 740 CURVE",
"231 531 OFFCURVE",
"212 326 OFFCURVE",
"195 117 CURVE",
"232 117 OFFCURVE",
"265 107 OFFCURVE",
"284 102 CURVE",
"282 68 OFFCURVE",
"279 34 OFFCURVE",
"277 0 CURVE",
"255 10 OFFCURVE",
"218 19 OFFCURVE",
"176 19 CURVE SMOOTH",
"150 19 OFFCURVE",
"125 14 OFFCURVE",
"101 5 CURVE",
"132 255 OFFCURVE",
"156 500 OFFCURVE",
"175 750 CURVE"
);
}
);
width = 376;
}
);
unicode = 006C;
},
{
glyphname = m;
lastChange = "2014-11-05 03:29:49 -0500";
layers = (
{
layerId = "16808965-E153-4B2B-ADB3-00196C646C32";
name = "Regular Italic";
paths = (
{
closed = 1;
nodes = (
"567 466 OFFCURVE",
"595 497 OFFCURVE",
"628 518 CURVE SMOOTH",
"664 542 OFFCURVE",
"708 548 OFFCURVE",
"747 548 CURVE SMOOTH",
"771 548 OFFCURVE",
"796 542 OFFCURVE",
"816 530 CURVE SMOOTH",
"835 518 OFFCURVE",
"851 500 OFFCURVE",
"858 476 CURVE SMOOTH",
"866 448 OFFCURVE",
"869 422 OFFCURVE",
"869 396 CURVE SMOOTH",
"869 374 OFFCURVE",
"867 352 OFFCURVE",
"865 330 CURVE SMOOTH",
"859 280 OFFCURVE",
"857 230 OFFCURVE",
"857 181 CURVE SMOOTH",
"857 121 OFFCURVE",
"861 63 OFFCURVE",
"871 5 CURVE",
"852 6 OFFCURVE",
"833 7 OFFCURVE",
"815 8 CURVE SMOOTH",
"796 9 OFFCURVE",
"777 10 OFFCURVE",
"758 10 CURVE",
"758 25 LINE SMOOTH",
"758 131 OFFCURVE",
"772 235 OFFCURVE",
"790 340 CURVE",
"791 352 OFFCURVE",
"792 362 OFFCURVE",
"793 374 CURVE",
"794 385 OFFCURVE",
"795 396 OFFCURVE",
"795 407 CURVE SMOOTH",
"795 468 OFFCURVE",
"772 495 OFFCURVE",
"723 495 CURVE SMOOTH",
"677 495 OFFCURVE",
"630 478 OFFCURVE",
"599 439 CURVE SMOOTH",
"567 401 OFFCURVE",
"553 354 OFFCURVE",
"549 308 CURVE",
"538 209 OFFCURVE",
"529 112 OFFCURVE",
"523 15 CURVE",
"408 15 LINE",
"431 125 OFFCURVE",
"452 233 OFFCURVE",
"472 343 CURVE",
"473 354 OFFCURVE",
"473 364 OFFCURVE",
"473 375 CURVE SMOOTH",
"473 403 OFFCURVE",
"470 430 OFFCURVE",
"457 454 CURVE",
"445 472 OFFCURVE",
"430 483 OFFCURVE",
"414 489 CURVE SMOOTH",
"397 496 OFFCURVE",
"378 498 OFFCURVE",
"361 498 CURVE SMOOTH",
"313 498 OFFCURVE",
"275 473 OFFCURVE",
"250 436 CURVE SMOOTH",
"224 399 OFFCURVE",
"209 352 OFFCURVE",
"207 309 CURVE SMOOTH",
"202 208 OFFCURVE",
"193 109 OFFCURVE",
"172 10 CURVE",
"135 8 OFFCURVE",
"100 7 OFFCURVE",
"63 5 CURVE",
"110 157 OFFCURVE",
"132 312 OFFCURVE",
"132 467 CURVE SMOOTH",
"132 491 OFFCURVE",
"132 516 OFFCURVE",
"131 541 CURVE",
"144 541 OFFCURVE",
"157 540 OFFCURVE",
"170 540 CURVE SMOOTH",
"184 539 OFFCURVE",
"197 538 OFFCURVE",
"210 538 CURVE",
"208 510 OFFCURVE",
"206 484 OFFCURVE",
"203 457 CURVE",
"204 457 OFFCURVE",
"206 456 OFFCURVE",
"207 456 CURVE",
"208 455 OFFCURVE",
"209 455 OFFCURVE",
"211 454 CURVE",
"226 483 OFFCURVE",
"250 506 OFFCURVE",
"277 521 CURVE SMOOTH",
"305 537 OFFCURVE",
"336 546 OFFCURVE",
"367 546 CURVE SMOOTH",
"406 546 OFFCURVE",
"444 538 OFFCURVE",
"476 520 CURVE SMOOTH",
"506 501 OFFCURVE",
"530 473 OFFCURVE",
"538 434 CURVE",
"541 434 OFFCURVE",
"542 433 OFFCURVE",
"546 433 CURVE"
);
}
);
width = 1001;
}
);
unicode = 006D;
},
{
glyphname = n;
lastChange = "2014-11-05 03:29:49 -0500";
layers = (
{
anchors = (
{
name = bottom;
position = "{306, 0}";
},
{
name = top;
position = "{306, 541}";
}
);
layerId = "16808965-E153-4B2B-ADB3-00196C646C32";
name = "Regular Italic";
paths = (
{
closed = 1;
nodes = (
"547 271 OFFCURVE",
"545 212 OFFCURVE",
"545 153 CURVE SMOOTH",
"545 103 OFFCURVE",
"547 54 OFFCURVE",
"551 5 CURVE",
"512 9 OFFCURVE",
"474 11 OFFCURVE",
"434 13 CURVE",
"442 120 OFFCURVE",
"456 224 OFFCURVE",
"472 330 CURVE",
"473 345 OFFCURVE",
"474 360 OFFCURVE",
"474 375 CURVE SMOOTH",
"474 398 OFFCURVE",
"471 420 OFFCURVE",
"462 441 CURVE",
"454 458 OFFCURVE",
"440 468 OFFCURVE",
"427 474 CURVE SMOOTH",
"413 480 OFFCURVE",
"396 483 OFFCURVE",
"381 483 CURVE SMOOTH",
"359 483 OFFCURVE",
"335 480 OFFCURVE",
"313 474 CURVE SMOOTH",
"290 468 OFFCURVE",
"269 456 OFFCURVE",
"251 438 CURVE SMOOTH",
"220 403 OFFCURVE",
"208 357 OFFCURVE",
"204 313 CURVE",
"201 213 OFFCURVE",
"194 113 OFFCURVE",
"184 13 CURVE",
"145 11 OFFCURVE",
"108 9 OFFCURVE",
"69 5 CURVE",
"110 185 OFFCURVE",
"129 365 OFFCURVE",
"132 546 CURVE",
"159 542 OFFCURVE",
"184 541 OFFCURVE",
"211 540 CURVE",
"210 528 OFFCURVE",
"210 517 OFFCURVE",
"210 505 CURVE SMOOTH",
"209 494 OFFCURVE",
"209 482 OFFCURVE",
"209 471 CURVE",
"269 515 OFFCURVE",
"333 545 OFFCURVE",
"405 545 CURVE SMOOTH",
"430 545 OFFCURVE",
"456 541 OFFCURVE",
"478 531 CURVE SMOOTH",
"500 521 OFFCURVE",
"519 505 OFFCURVE",
"530 483 CURVE",
"548 444 OFFCURVE",
"552 405 OFFCURVE",
"552 366 CURVE SMOOTH",
"552 354 OFFCURVE",
"552 342 OFFCURVE",
"551 330 CURVE SMOOTH"
);
}
);
width = 681;
}
);
unicode = 006E;
},
{
glyphname = o;
lastChange = "2014-11-05 03:29:49 -0500";
layers = (
{
anchors = (
{
name = bottom;
position = "{281, -15}";
},
{
name = top;
position = "{327, 541}";
}
);
layerId = "16808965-E153-4B2B-ADB3-00196C646C32";
name = "Regular Italic";
paths = (
{
closed = 1;
nodes = (
"284 489 OFFCURVE",
"240 472 OFFCURVE",
"210 435 CURVE SMOOTH",
"189 408 OFFCURVE",
"176 377 OFFCURVE",
"168 345 CURVE SMOOTH",
"161 313 OFFCURVE",
"158 280 OFFCURVE",
"158 250 CURVE SMOOTH",
"158 234 OFFCURVE",
"160 218 OFFCURVE",
"164 203 CURVE SMOOTH",
"168 188 OFFCURVE",
"176 175 OFFCURVE",
"189 166 CURVE",
"221 146 OFFCURVE",
"260 141 OFFCURVE",
"298 141 CURVE SMOOTH",
"336 141 OFFCURVE",
"375 146 OFFCURVE",
"410 166 CURVE",
"435 183 OFFCURVE",
"449 212 OFFCURVE",
"456 242 CURVE SMOOTH",
"462 271 OFFCURVE",
"463 301 OFFCURVE",
"463 321 CURVE SMOOTH",
"463 361 OFFCURVE",
"456 401 OFFCURVE",
"437 435 CURVE SMOOTH",
"415 472 OFFCURVE",
"372 489 OFFCURVE",
"329 489 CURVE SMOOTH"
);
},
{
closed = 1;
nodes = (
"366 544 OFFCURVE",
"398 540 OFFCURVE",
"428 529 CURVE SMOOTH",
"457 519 OFFCURVE",
"483 501 OFFCURVE",
"502 476 CURVE SMOOTH",
"534 433 OFFCURVE",
"542 381 OFFCURVE",
"542 327 CURVE SMOOTH",
"542 286 OFFCURVE",
"540 240 OFFCURVE",
"528 195 CURVE SMOOTH",
"517 149 OFFCURVE",
"498 105 OFFCURVE",
"466 70 CURVE SMOOTH",
"443 42 OFFCURVE",
"414 25 OFFCURVE",
"382 16 CURVE SMOOTH",
"350 5 OFFCURVE",
"315 1 OFFCURVE",
"284 1 CURVE SMOOTH",
"252 1 OFFCURVE",
"219 5 OFFCURVE",
"190 16 CURVE SMOOTH",
"161 26 OFFCURVE",
"135 43 OFFCURVE",
"117 69 CURVE SMOOTH",
"85 112 OFFCURVE",
"77 166 OFFCURVE",
"77 220 CURVE SMOOTH",
"77 260 OFFCURVE",
"80 306 OFFCURVE",
"91 352 CURVE SMOOTH",
"102 397 OFFCURVE",
"121 441 OFFCURVE",
"152 476 CURVE SMOOTH",
"176 501 OFFCURVE",
"206 519 OFFCURVE",
"237 529 CURVE SMOOTH",
"268 540 OFFCURVE",
"301 544 OFFCURVE",
"334 544 CURVE SMOOTH"
);
}
);
width = 618;
}
);
unicode = 006F;
},
{
glyphname = p;
lastChange = "2014-11-05 03:29:49 -0500";
layers = (
{
layerId = "16808965-E153-4B2B-ADB3-00196C646C32";
name = "Regular Italic";
paths = (
{
closed = 1;
nodes = (
"157 -9 OFFCURVE",
"142 -102 OFFCURVE",
"126 -195 CURVE",
"99 -197 OFFCURVE",
"72 -200 OFFCURVE",
"45 -203 CURVE",
"93 45 OFFCURVE",
"120 290 OFFCURVE",
"130 540 CURVE",
"157 536 OFFCURVE",
"182 534 OFFCURVE",
"209 532 CURVE",
"207 519 OFFCURVE",
"205 506 OFFCURVE",
"203 493 CURVE",
"201 480 OFFCURVE",
"199 467 OFFCURVE",
"197 454 CURVE",
"198 454 OFFCURVE",
"200 453 OFFCURVE",
"201 453 CURVE",
"202 452 OFFCURVE",
"203 452 OFFCURVE",
"204 451 CURVE",
"222 481 OFFCURVE",
"248 504 OFFCURVE",
"278 519 CURVE SMOOTH",
"308 533 OFFCURVE",
"341 541 OFFCURVE",
"374 541 CURVE SMOOTH",
"380 541 LINE",
"388 541 LINE SMOOTH",
"444 541 OFFCURVE",
"498 518 OFFCURVE",
"527 472 CURVE SMOOTH",
"555 431 OFFCURVE",
"564 381 OFFCURVE",
"564 330 CURVE SMOOTH",
"564 288 OFFCURVE",
"560 241 OFFCURVE",
"548 196 CURVE SMOOTH",
"536 150 OFFCURVE",
"516 106 OFFCURVE",
"485 70 CURVE SMOOTH",
"448 25 OFFCURVE",
"393 -2 OFFCURVE",
"336 -2 CURVE SMOOTH",
"331 -2 LINE",
"323 -2 LINE SMOOTH",
"292 -2 OFFCURVE",
"261 5 OFFCURVE",
"235 21 CURVE SMOOTH",
"209 36 OFFCURVE",
"189 57 OFFCURVE",
"178 86 CURVE",
"176 86 OFFCURVE",
"175 85 OFFCURVE",
"173 85 CURVE",
"172 85 OFFCURVE",
"170 84 OFFCURVE",
"169 84 CURVE"
);
},
{
closed = 1;
nodes = (
"519 302 OFFCURVE",
"520 317 OFFCURVE",
"520 333 CURVE SMOOTH",
"520 375 OFFCURVE",
"511 415 OFFCURVE",
"491 444 CURVE SMOOTH",
"470 474 OFFCURVE",
"439 493 OFFCURVE",
"395 493 CURVE SMOOTH",
"348 493 OFFCURVE",
"302 476 OFFCURVE",
"271 436 CURVE SMOOTH",
"250 410 OFFCURVE",
"236 379 OFFCURVE",
"229 346 CURVE SMOOTH",
"221 313 OFFCURVE",
"219 280 OFFCURVE",
"219 250 CURVE SMOOTH",
"219 233 OFFCURVE",
"221 215 OFFCURVE",
"226 199 CURVE SMOOTH",
"230 183 OFFCURVE",
"239 168 OFFCURVE",
"252 158 CURVE",
"284 137 OFFCURVE",
"321 130 OFFCURVE",
"359 130 CURVE SMOOTH",
"396 130 OFFCURVE",
"435 136 OFFCURVE",
"467 158 CURVE",
"487 174 OFFCURVE",
"498 195 OFFCURVE",
"505 218 CURVE SMOOTH",
"512 240 OFFCURVE",
"514 265 OFFCURVE",
"518 287 CURVE"
);
}
);
width = 637;
}
);
unicode = 0070;
},
{
glyphname = q;
lastChange = "2014-11-05 03:29:49 -0500";
layers = (
{
layerId = "16808965-E153-4B2B-ADB3-00196C646C32";
name = "Regular Italic";
paths = (
{
closed = 1;
nodes = (
"126 272 OFFCURVE",
"125 260 OFFCURVE",
"125 248 CURVE SMOOTH",
"125 213 OFFCURVE",
"130 180 OFFCURVE",
"156 157 CURVE",
"185 136 OFFCURVE",
"223 132 OFFCURVE",
"260 132 CURVE SMOOTH",
"297 132 OFFCURVE",
"336 138 OFFCURVE",
"371 158 CURVE",
"397 177 OFFCURVE",
"411 208 OFFCURVE",
"418 239 CURVE SMOOTH",
"426 271 OFFCURVE",
"427 303 OFFCURVE",
"427 324 CURVE SMOOTH",
"427 363 OFFCURVE",
"420 400 OFFCURVE",
"400 434 CURVE SMOOTH",
"376 473 OFFCURVE",
"332 490 OFFCURVE",
"285 489 CURVE SMOOTH",
"244 489 OFFCURVE",
"201 470 OFFCURVE",
"175 436 CURVE SMOOTH",
"158 413 OFFCURVE",
"147 388 OFFCURVE",
"140 362 CURVE SMOOTH",
"132 336 OFFCURVE",
"128 309 OFFCURVE",
"126 283 CURVE SMOOTH"
);
},
{
closed = 1;
nodes = (
"436 87 OFFCURVE",
"433 88 OFFCURVE",
"431 89 CURVE",
"414 60 OFFCURVE",
"390 38 OFFCURVE",
"361 22 CURVE SMOOTH",
"332 6 OFFCURVE",
"300 -2 OFFCURVE",
"269 -2 CURVE SMOOTH",
"261 -2 LINE",
"255 -2 LINE SMOOTH",
"199 -2 OFFCURVE",
"147 24 OFFCURVE",
"119 69 CURVE SMOOTH",
"87 118 OFFCURVE",
"78 176 OFFCURVE",
"78 235 CURVE SMOOTH",
"78 273 OFFCURVE",
"82 316 OFFCURVE",
"92 358 CURVE SMOOTH",
"102 399 OFFCURVE",
"120 438 OFFCURVE",
"147 472 CURVE SMOOTH",
"186 517 OFFCURVE",
"243 541 OFFCURVE",
"299 541 CURVE SMOOTH",
"307 541 LINE",
"316 541 LINE SMOOTH",
"350 541 OFFCURVE",
"383 531 OFFCURVE",
"410 514 CURVE SMOOTH",
"438 497 OFFCURVE",
"459 472 OFFCURVE",
"473 441 CURVE",
"476 457 OFFCURVE",
"480 472 OFFCURVE",
"484 488 CURVE SMOOTH",
"488 503 OFFCURVE",
"492 519 OFFCURVE",
"496 534 CURVE",
"523 537 OFFCURVE",
"550 539 OFFCURVE",
"577 542 CURVE",
"533 316 OFFCURVE",
"467 -90 OFFCURVE",
"545 -145 CURVE SMOOTH",
"567 -160 OFFCURVE",
"494 -158 OFFCURVE",
"494 -201 CURVE",
"466 -197 OFFCURVE",
"441 -195 OFFCURVE",
"414 -193 CURVE",
"419 -100 OFFCURVE",
"427 -7 OFFCURVE",
"438 87 CURVE"
);
}
);
width = 667;
}
);
unicode = 0071;
},
{
glyphname = r;
lastChange = "2014-11-05 03:29:49 -0500";
layers = (
{
anchors = (
{
name = bottom;
position = "{166, 0}";
},
{
name = top;
position = "{166, 541}";
}
);
layerId = "16808965-E153-4B2B-ADB3-00196C646C32";
name = "Regular Italic";
paths = (
{
closed = 1;
nodes = (
"389 465 OFFCURVE",
"378 466 OFFCURVE",
"367 466 CURVE SMOOTH",
"342 466 OFFCURVE",
"314 463 OFFCURVE",
"289 456 CURVE SMOOTH",
"264 447 OFFCURVE",
"240 433 OFFCURVE",
"224 410 CURVE SMOOTH",
"194 369 OFFCURVE",
"184 320 OFFCURVE",
"180 273 CURVE",
"175 186 OFFCURVE",
"171 102 OFFCURVE",
"164 14 CURVE",
"128 13 OFFCURVE",
"93 10 OFFCURVE",
"58 5 CURVE",
"94 181 OFFCURVE",
"116 356 OFFCURVE",
"129 534 CURVE",
"153 530 OFFCURVE",
"175 530 OFFCURVE",
"199 528 CURVE",
"198 518 OFFCURVE",
"197 508 OFFCURVE",
"197 499 CURVE SMOOTH",
"196 489 OFFCURVE",
"195 479 OFFCURVE",
"195 469 CURVE",
"206 476 OFFCURVE",
"217 483 OFFCURVE",
"229 490 CURVE SMOOTH",
"241 496 OFFCURVE",
"252 502 OFFCURVE",
"264 509 CURVE SMOOTH",
"284 521 OFFCURVE",
"306 529 OFFCURVE",
"329 535 CURVE SMOOTH",
"352 540 OFFCURVE",
"375 542 OFFCURVE",
"396 542 CURVE SMOOTH",
"410 542 LINE",
"406 515 OFFCURVE",
"402 488 OFFCURVE",
"398 461 CURVE"
);
}
);
width = 431;
}
);
unicode = 0072;
},
{
glyphname = s;
lastChange = "2014-11-05 03:29:49 -0500";
layers = (
{
anchors = (
{
name = bottom;
position = "{259, 0}";
},
{
name = top;
position = "{259, 541}";
}
);
layerId = "16808965-E153-4B2B-ADB3-00196C646C32";
name = "Regular Italic";
paths = (
{
closed = 1;
nodes = (
"477 527 LINE",
"475 516 OFFCURVE",
"473 505 OFFCURVE",
"471 494 CURVE SMOOTH",
"469 482 OFFCURVE",
"467 471 OFFCURVE",
"466 460 CURVE",
"417 483 OFFCURVE",
"363 490 OFFCURVE",
"307 490 CURVE SMOOTH",
"278 490 OFFCURVE",
"244 485 OFFCURVE",
"217 471 CURVE SMOOTH",
"189 457 OFFCURVE",
"170 433 OFFCURVE",
"170 396 CURVE SMOOTH",
"170 372 OFFCURVE",
"182 354 OFFCURVE",
"198 342 CURVE SMOOTH",
"214 329 OFFCURVE",
"235 320 OFFCURVE",
"257 314 CURVE SMOOTH",
"278 308 OFFCURVE",
"298 304 OFFCURVE",
"313 302 CURVE",
"335 296 OFFCURVE",
"357 291 OFFCURVE",
"377 283 CURVE SMOOTH",
"398 274 OFFCURVE",
"417 264 OFFCURVE",
"433 249 CURVE SMOOTH",
"456 227 OFFCURVE",
"464 194 OFFCURVE",
"464 163 CURVE SMOOTH",
"464 139 OFFCURVE",
"459 115 OFFCURVE",
"450 94 CURVE SMOOTH",
"440 72 OFFCURVE",
"425 52 OFFCURVE",
"403 39 CURVE SMOOTH",
"377 22 OFFCURVE",
"349 13 OFFCURVE",
"319 8 CURVE SMOOTH",
"290 2 OFFCURVE",
"260 1 OFFCURVE",
"232 1 CURVE SMOOTH",
"173 1 OFFCURVE",
"115 10 OFFCURVE",
"59 24 CURVE",
"66 64 OFFCURVE",
"71 103 OFFCURVE",
"76 144 CURVE",
"126 117 OFFCURVE",
"182 103 OFFCURVE",
"241 103 CURVE SMOOTH",
"251 103 LINE",
"254 102 OFFCURVE",
"256 102 OFFCURVE",
"258 102 CURVE SMOOTH",
"260 102 OFFCURVE",
"262 102 OFFCURVE",
"265 102 CURVE SMOOTH",
"289 102 OFFCURVE",
"316 106 OFFCURVE",
"338 118 CURVE SMOOTH",
"360 129 OFFCURVE",
"376 148 OFFCURVE",
"378 177 CURVE",
"371 192 OFFCURVE",
"364 207 OFFCURVE",
"354 220 CURVE",
"338 232 OFFCURVE",
"317 241 OFFCURVE",
"295 247 CURVE SMOOTH",
"285 250 OFFCURVE",
"274 252 OFFCURVE",
"264 254 CURVE",
"243 258 OFFCURVE",
"227 263 OFFCURVE",
"208 268 CURVE SMOOTH",
"188 272 OFFCURVE",
"169 279 OFFCURVE",
"152 289 CURVE SMOOTH",
"135 299 OFFCURVE",
"115 315 OFFCURVE",
"108 344 CURVE SMOOTH",
"104 359 OFFCURVE",
"103 374 OFFCURVE",
"103 389 CURVE SMOOTH",
"103 415 OFFCURVE",
"108 443 OFFCURVE",
"120 466 CURVE SMOOTH",
"132 490 OFFCURVE",
"151 509 OFFCURVE",
"179 521 CURVE SMOOTH",
"227 540 OFFCURVE",
"268 544 OFFCURVE",
"310 544 CURVE SMOOTH",
"367 544 OFFCURVE",
"424 541 OFFCURVE",
"479 523 CURVE"
);
}
);
width = 564;
}
);
unicode = 0073;
},
{
glyphname = t;
lastChange = "2014-11-05 03:29:49 -0500";
layers = (
{
anchors = (
{
name = bottom;
position = "{291, 0}";
},
{
name = center;
position = "{291, 271}";
},
{
name = top;
position = "{251, 631}";
}
);
layerId = "16808965-E153-4B2B-ADB3-00196C646C32";
name = "Regular Italic";
paths = (
{
closed = 1;
nodes = (
"285 620 OFFCURVE",
"280 576 OFFCURVE",
"275 533 CURVE",
"294 533 LINE SMOOTH",
"329 533 OFFCURVE",
"362 534 OFFCURVE",
"397 536 CURVE",
"396 526 OFFCURVE",
"395 517 OFFCURVE",
"394 507 CURVE",
"393 497 OFFCURVE",
"392 487 OFFCURVE",
"390 478 CURVE",
"357 476 OFFCURVE",
"324 475 OFFCURVE",
"291 475 CURVE SMOOTH",
"270 475 LINE",
"266 436 OFFCURVE",
"262 397 OFFCURVE",
"258 359 CURVE SMOOTH",
"254 320 OFFCURVE",
"250 281 OFFCURVE",
"245 242 CURVE",
"245 231 OFFCURVE",
"244 220 OFFCURVE",
"244 208 CURVE SMOOTH",
"244 189 OFFCURVE",
"246 172 OFFCURVE",
"256 157 CURVE",
"266 147 OFFCURVE",
"277 143 OFFCURVE",
"290 140 CURVE SMOOTH",
"303 137 OFFCURVE",
"316 136 OFFCURVE",
"330 136 CURVE SMOOTH",
"357 134 OFFCURVE",
"385 133 OFFCURVE",
"413 129 CURVE",
"411 88 OFFCURVE",
"409 46 OFFCURVE",
"409 5 CURVE",
"395 7 OFFCURVE",
"380 9 OFFCURVE",
"366 11 CURVE SMOOTH",
"352 12 OFFCURVE",
"337 14 OFFCURVE",
"322 15 CURVE SMOOTH",
"310 16 OFFCURVE",
"298 17 OFFCURVE",
"286 18 CURVE SMOOTH",
"261 20 OFFCURVE",
"237 25 OFFCURVE",
"214 34 CURVE SMOOTH",
"203 38 OFFCURVE",
"193 44 OFFCURVE",
"184 52 CURVE",
"161 75 OFFCURVE",
"156 106 OFFCURVE",
"156 139 CURVE SMOOTH",
"156 154 OFFCURVE",
"157 170 OFFCURVE",
"158 184 CURVE SMOOTH",
"169 282 OFFCURVE",
"181 379 OFFCURVE",
"189 477 CURVE",
"179 478 OFFCURVE",
"168 479 OFFCURVE",
"158 479 CURVE SMOOTH",
"148 479 OFFCURVE",
"138 480 OFFCURVE",
"127 481 CURVE",
"128 492 OFFCURVE",
"128 501 OFFCURVE",
"129 512 CURVE SMOOTH",
"129 521 OFFCURVE",
"130 531 OFFCURVE",
"131 542 CURVE",
"152 539 OFFCURVE",
"171 537 OFFCURVE",
"192 535 CURVE",
"197 580 OFFCURVE",
"201 623 OFFCURVE",
"205 667 CURVE",
"234 665 OFFCURVE",
"261 664 OFFCURVE",
"291 664 CURVE"
);
}
);
width = 539;
}
);
unicode = 0074;
},
{
glyphname = u;
lastChange = "2014-11-05 03:29:49 -0500";
layers = (
{
anchors = (
{
name = bottom;
position = "{255, -11}";
},
{
name = ogonek;
position = "{346, 12}";
},
{
name = top;
position = "{347, 541}";
}
);
layerId = "16808965-E153-4B2B-ADB3-00196C646C32";
name = "Regular Italic";
paths = (
{
closed = 1;
nodes = (
"126 311 OFFCURVE",
"131 404 OFFCURVE",
"131 499 CURVE SMOOTH",
"131 506 OFFCURVE",
"131 513 OFFCURVE",
"131 521 CURVE",
"131 528 OFFCURVE",
"131 535 OFFCURVE",
"131 542 CURVE",
"141 541 OFFCURVE",
"152 540 OFFCURVE",
"163 539 CURVE SMOOTH",
"174 539 OFFCURVE",
"185 538 OFFCURVE",
"195 536 CURVE",
"194 456 OFFCURVE",
"190 376 OFFCURVE",
"184 296 CURVE",
"184 293 OFFCURVE",
"184 291 OFFCURVE",
"184 288 CURVE",
"184 285 OFFCURVE",
"184 282 OFFCURVE",
"184 279 CURVE SMOOTH",
"184 248 OFFCURVE",
"187 215 OFFCURVE",
"201 187 CURVE",
"220 154 OFFCURVE",
"251 142 OFFCURVE",
"283 142 CURVE SMOOTH",
"326 142 OFFCURVE",
"370 153 OFFCURVE",
"402 188 CURVE SMOOTH",
"434 223 OFFCURVE",
"449 268 OFFCURVE",
"456 313 CURVE",
"464 388 OFFCURVE",
"475 461 OFFCURVE",
"488 535 CURVE",
"520 537 OFFCURVE",
"552 539 OFFCURVE",
"584 542 CURVE",
"545 363 OFFCURVE",
"526 186 OFFCURVE",
"525 6 CURVE",
"499 8 OFFCURVE",
"472 10 OFFCURVE",
"446 11 CURVE",
"448 43 OFFCURVE",
"451 74 OFFCURVE",
"455 106 CURVE",
"435 75 OFFCURVE",
"408 49 OFFCURVE",
"377 30 CURVE SMOOTH",
"346 12 OFFCURVE",
"311 0 OFFCURVE",
"275 0 CURVE SMOOTH",
"271 0 LINE",
"262 0 LINE SMOOTH",
"236 0 OFFCURVE",
"210 4 OFFCURVE",
"187 14 CURVE SMOOTH",
"164 24 OFFCURVE",
"145 39 OFFCURVE",
"133 62 CURVE",
"118 97 OFFCURVE",
"113 131 OFFCURVE",
"113 165 CURVE SMOOTH",
"113 182 OFFCURVE",
"114 199 OFFCURVE",
"116 216 CURVE SMOOTH"
);
}
);
width = 655;
}
);
unicode = 0075;
},
{
glyphname = v;
lastChange = "2014-11-05 03:29:49 -0500";
layers = (
{
layerId = "16808965-E153-4B2B-ADB3-00196C646C32";
name = "Regular Italic";
paths = (
{
closed = 1;
nodes = (
"145 541 OFFCURVE",
"159 540 OFFCURVE",
"173 538 CURVE SMOOTH",
"187 537 OFFCURVE",
"200 536 OFFCURVE",
"214 535 CURVE",
"241 471 OFFCURVE",
"266 405 OFFCURVE",
"288 339 CURVE SMOOTH",
"310 273 OFFCURVE",
"332 207 OFFCURVE",
"354 140 CURVE",
"388 207 OFFCURVE",
"422 273 OFFCURVE",
"456 339 CURVE SMOOTH",
"489 406 OFFCURVE",
"525 471 OFFCURVE",
"563 536 CURVE",
"593 538 OFFCURVE",
"620 540 OFFCURVE",
"649 542 CURVE",
"601 458 OFFCURVE",
"559 370 OFFCURVE",
"520 282 CURVE SMOOTH",
"500 237 OFFCURVE",
"481 193 OFFCURVE",
"463 148 CURVE SMOOTH",
"444 104 OFFCURVE",
"425 59 OFFCURVE",
"406 15 CURVE",
"397 15 OFFCURVE",
"389 15 OFFCURVE",
"380 15 CURVE SMOOTH",
"371 15 OFFCURVE",
"362 15 OFFCURVE",
"353 15 CURVE SMOOTH",
"341 15 OFFCURVE",
"329 15 OFFCURVE",
"317 15 CURVE",
"305 15 OFFCURVE",
"293 15 OFFCURVE",
"281 15 CURVE",
"269 59 OFFCURVE",
"258 104 OFFCURVE",
"247 148 CURVE SMOOTH",
"225 237 OFFCURVE",
"202 325 OFFCURVE",
"175 413 CURVE SMOOTH",
"162 456 OFFCURVE",
"147 500 OFFCURVE",
"131 542 CURVE"
);
}
);
width = 665;
}
);
unicode = 0076;
},
{
glyphname = w;
lastChange = "2014-11-05 03:29:49 -0500";
layers = (
{
anchors = (
{
name = top;
position = "{498, 541}";
}
);
layerId = "16808965-E153-4B2B-ADB3-00196C646C32";
name = "Regular Italic";
paths = (
{
closed = 1;
nodes = (
"157 540 OFFCURVE",
"183 539 OFFCURVE",
"209 537 CURVE",
"252 413 OFFCURVE",
"277 285 OFFCURVE",
"298 154 CURVE",
"319 188 OFFCURVE",
"339 222 OFFCURVE",
"359 255 CURVE SMOOTH",
"378 289 OFFCURVE",
"398 323 OFFCURVE",
"418 357 CURVE",
"444 357 LINE",
"489 357 LINE SMOOTH",
"496 357 OFFCURVE",
"503 357 OFFCURVE",
"510 357 CURVE SMOOTH",
"517 357 OFFCURVE",
"523 357 OFFCURVE",
"531 358 CURVE",
"558 289 OFFCURVE",
"585 222 OFFCURVE",
"615 154 CURVE",
"660 285 OFFCURVE",
"707 414 OFFCURVE",
"772 538 CURVE",
"799 539 OFFCURVE",
"825 540 OFFCURVE",
"853 542 CURVE",
"808 458 OFFCURVE",
"772 371 OFFCURVE",
"742 282 CURVE SMOOTH",
"711 193 OFFCURVE",
"687 102 OFFCURVE",
"666 12 CURVE",
"646 12 OFFCURVE",
"626 13 OFFCURVE",
"606 13 CURVE SMOOTH",
"587 14 OFFCURVE",
"567 14 OFFCURVE",
"547 15 CURVE",
"517 96 OFFCURVE",
"490 178 OFFCURVE",
"466 261 CURVE",
"425 178 OFFCURVE",
"384 96 OFFCURVE",
"338 14 CURVE",
"319 14 OFFCURVE",
"300 14 OFFCURVE",
"282 13 CURVE SMOOTH",
"263 13 OFFCURVE",
"244 12 OFFCURVE",
"225 12 CURVE",
"217 102 OFFCURVE",
"208 192 OFFCURVE",
"194 281 CURVE SMOOTH",
"179 370 OFFCURVE",
"159 458 OFFCURVE",
"131 542 CURVE"
);
}
);
width = 868;
}
);
unicode = 0077;
},
{
glyphname = x;
lastChange = "2014-11-05 03:29:49 -0500";
layers = (
{
layerId = "16808965-E153-4B2B-ADB3-00196C646C32";
name = "Regular Italic";
paths = (
{
closed = 1;
nodes = (
"538 448 OFFCURVE",
"468 354 OFFCURVE",
"396 256 CURVE",
"458 170 OFFCURVE",
"520 87 OFFCURVE",
"587 5 CURVE",
"543 9 OFFCURVE",
"500 11 OFFCURVE",
"456 13 CURVE",
"416 75 OFFCURVE",
"379 137 OFFCURVE",
"344 201 CURVE",
"293 137 OFFCURVE",
"243 75 OFFCURVE",
"190 13 CURVE",
"146 11 OFFCURVE",
"103 8 OFFCURVE",
"58 5 CURVE",
"139 89 OFFCURVE",
"218 173 OFFCURVE",
"295 261 CURVE",
"243 356 OFFCURVE",
"189 448 OFFCURVE",
"130 540 CURVE",
"159 537 OFFCURVE",
"186 536 OFFCURVE",
"214 534 CURVE",
"261 461 OFFCURVE",
"305 388 OFFCURVE",
"348 313 CURVE",
"409 389 OFFCURVE",
"470 462 OFFCURVE",
"535 535 CURVE",
"562 537 OFFCURVE",
"588 538 OFFCURVE",
"615 541 CURVE"
);
}
);
width = 717;
}
);
unicode = 0078;
},
{
glyphname = y;
lastChange = "2014-11-05 03:29:49 -0500";
layers = (
{
anchors = (
{
name = top;
position = "{314, 541}";
}
);
layerId = "16808965-E153-4B2B-ADB3-00196C646C32";
name = "Regular Italic";
paths = (
{
closed = 1;
nodes = (
"362 -52 OFFCURVE",
"355 -64 OFFCURVE",
"349 -76 CURVE",
"335 -100 OFFCURVE",
"320 -123 OFFCURVE",
"302 -143 CURVE SMOOTH",
"284 -164 OFFCURVE",
"259 -183 OFFCURVE",
"229 -192 CURVE SMOOTH",
"200 -201 OFFCURVE",
"169 -205 OFFCURVE",
"138 -206 CURVE SMOOTH",
"123 -207 OFFCURVE",
"107 -208 OFFCURVE",
"92 -210 CURVE",
"95 -192 OFFCURVE",
"98 -173 OFFCURVE",
"101 -155 CURVE SMOOTH",
"103 -137 OFFCURVE",
"106 -119 OFFCURVE",
"109 -101 CURVE",
"119 -100 OFFCURVE",
"129 -100 OFFCURVE",
"140 -99 CURVE",
"160 -99 OFFCURVE",
"180 -97 OFFCURVE",
"199 -91 CURVE SMOOTH",
"218 -85 OFFCURVE",
"235 -70 OFFCURVE",
"252 -53 CURVE SMOOTH",
"260 -45 OFFCURVE",
"268 -36 OFFCURVE",
"276 -28 CURVE",
"283 -15 OFFCURVE",
"291 -2 OFFCURVE",
"298 11 CURVE SMOOTH",
"306 23 OFFCURVE",
"313 36 OFFCURVE",
"321 49 CURVE",
"260 215 OFFCURVE",
"200 379 OFFCURVE",
"131 542 CURVE",
"158 538 OFFCURVE",
"186 535 OFFCURVE",
"214 533 CURVE",
"272 427 OFFCURVE",
"328 323 OFFCURVE",
"382 216 CURVE",
"441 323 OFFCURVE",
"499 428 OFFCURVE",
"563 533 CURVE",
"592 536 OFFCURVE",
"620 539 OFFCURVE",
"649 542 CURVE",
"597 447 OFFCURVE",
"550 350 OFFCURVE",
"504 253 CURVE SMOOTH",
"481 204 OFFCURVE",
"458 155 OFFCURVE",
"436 106 CURVE SMOOTH",
"414 57 OFFCURVE",
"391 8 OFFCURVE",
"368 -41 CURVE"
);
}
);
width = 665;
}
);
unicode = 0079;
},
{
glyphname = z;
lastChange = "2014-11-05 03:29:49 -0500";
layers = (
{
anchors = (
{
name = bottom;
position = "{272, -16}";
},
{
name = top;
position = "{306, 541}";
}
);
layerId = "16808965-E153-4B2B-ADB3-00196C646C32";
name = "Regular Italic";
paths = (
{
closed = 1;
nodes = (
"130 540 LINE",
"194 534 OFFCURVE",
"258 531 OFFCURVE",
"322 531 CURVE SMOOTH",
"396 531 OFFCURVE",
"469 535 OFFCURVE",
"543 542 CURVE",
"538 517 OFFCURVE",
"534 492 OFFCURVE",
"529 466 CURVE",
"473 408 OFFCURVE",
"417 351 OFFCURVE",
"363 293 CURVE SMOOTH",
"308 236 OFFCURVE",
"252 178 OFFCURVE",
"195 121 CURVE",
"230 122 OFFCURVE",
"266 123 OFFCURVE",
"300 123 CURVE SMOOTH",
"364 123 OFFCURVE",
"428 121 OFFCURVE",
"491 117 CURVE",
"490 109 OFFCURVE",
"490 103 OFFCURVE",
"490 96 CURVE SMOOTH",
"490 88 OFFCURVE",
"490 82 OFFCURVE",
"490 74 CURVE SMOOTH",
"490 51 OFFCURVE",
"491 28 OFFCURVE",
"491 5 CURVE",
"421 13 OFFCURVE",
"352 15 OFFCURVE",
"281 15 CURVE SMOOTH",
"208 15 OFFCURVE",
"135 12 OFFCURVE",
"62 5 CURVE",
"71 46 OFFCURVE",
"77 87 OFFCURVE",
"83 129 CURVE",
"206 248 OFFCURVE",
"329 363 OFFCURVE",
"454 479 CURVE",
"406 477 OFFCURVE",
"359 476 OFFCURVE",
"311 476 CURVE SMOOTH",
"250 476 OFFCURVE",
"190 477 OFFCURVE",
"130 482 CURVE",
"130 521 LINE"
);
}
);
width = 621;
}
);
unicode = 007A;
},
{
glyphname = braceleft;
lastChange = "2014-11-05 03:29:49 -0500";
layers = (
{
layerId = "16808965-E153-4B2B-ADB3-00196C646C32";
name = "Regular Italic";
paths = (
{
closed = 1;
nodes = (
"403 -87 OFFCURVE",
"402 -102 OFFCURVE",
"401 -117 CURVE SMOOTH",
"400 -132 OFFCURVE",
"400 -147 OFFCURVE",
"399 -162 CURVE",
"386 -160 OFFCURVE",
"372 -158 OFFCURVE",
"355 -155 CURVE SMOOTH",
"324 -151 OFFCURVE",
"291 -145 OFFCURVE",
"261 -133 CURVE SMOOTH",
"246 -128 OFFCURVE",
"233 -120 OFFCURVE",
"222 -110 CURVE",
"199 -83 OFFCURVE",
"194 -47 OFFCURVE",
"194 -10 CURVE SMOOTH",
"194 17 OFFCURVE",
"197 44 OFFCURVE",
"201 71 CURVE SMOOTH",
"205 99 OFFCURVE",
"208 125 OFFCURVE",
"208 153 CURVE SMOOTH",
"208 182 OFFCURVE",
"206 212 OFFCURVE",
"190 237 CURVE",
"181 250 OFFCURVE",
"167 257 OFFCURVE",
"151 262 CURVE SMOOTH",
"135 266 OFFCURVE",
"118 268 OFFCURVE",
"103 268 CURVE SMOOTH",
"100 268 LINE SMOOTH",
"97 268 OFFCURVE",
"95 268 OFFCURVE",
"92 269 CURVE",
"90 269 OFFCURVE",
"87 269 OFFCURVE",
"84 269 CURVE SMOOTH",
"80 269 LINE",
"80 279 OFFCURVE",
"81 289 OFFCURVE",
"83 299 CURVE SMOOTH",
"84 309 OFFCURVE",
"85 318 OFFCURVE",
"85 329 CURVE",
"89 329 OFFCURVE",
"92 329 OFFCURVE",
"96 328 CURVE SMOOTH",
"99 328 OFFCURVE",
"103 327 OFFCURVE",
"106 327 CURVE SMOOTH",
"122 327 OFFCURVE",
"140 329 OFFCURVE",
"157 333 CURVE SMOOTH",
"174 336 OFFCURVE",
"191 343 OFFCURVE",
"205 354 CURVE",
"218 368 OFFCURVE",
"226 383 OFFCURVE",
"231 400 CURVE SMOOTH",
"236 417 OFFCURVE",
"239 435 OFFCURVE",
"241 452 CURVE",
"242 471 OFFCURVE",
"244 490 OFFCURVE",
"247 508 CURVE SMOOTH",
"249 527 OFFCURVE",
"250 545 OFFCURVE",
"252 564 CURVE",
"255 587 OFFCURVE",
"258 612 OFFCURVE",
"266 636 CURVE SMOOTH",
"273 659 OFFCURVE",
"285 681 OFFCURVE",
"304 697 CURVE",
"333 714 OFFCURVE",
"365 724 OFFCURVE",
"398 731 CURVE SMOOTH",
"415 734 OFFCURVE",
"431 737 OFFCURVE",
"448 740 CURVE SMOOTH",
"464 742 OFFCURVE",
"480 745 OFFCURVE",
"496 749 CURVE",
"492 728 OFFCURVE",
"489 708 OFFCURVE",
"485 688 CURVE",
"476 685 OFFCURVE",
"465 683 OFFCURVE",
"454 682 CURVE SMOOTH",
"432 679 OFFCURVE",
"410 674 OFFCURVE",
"389 667 CURVE SMOOTH",
"378 663 OFFCURVE",
"368 658 OFFCURVE",
"359 650 CURVE",
"348 638 OFFCURVE",
"342 624 OFFCURVE",
"338 608 CURVE",
"335 601 OFFCURVE",
"334 593 OFFCURVE",
"333 585 CURVE",
"332 577 OFFCURVE",
"331 569 OFFCURVE",
"329 562 CURVE",
"327 542 OFFCURVE",
"325 522 OFFCURVE",
"323 503 CURVE SMOOTH",
"318 465 OFFCURVE",
"314 428 OFFCURVE",
"307 392 CURVE SMOOTH",
"303 374 OFFCURVE",
"295 357 OFFCURVE",
"285 341 CURVE",
"267 317 OFFCURVE",
"238 305 OFFCURVE",
"210 299 CURVE",
"209 291 LINE",
"222 287 OFFCURVE",
"235 283 OFFCURVE",
"247 275 CURVE",
"258 268 OFFCURVE",
"268 258 OFFCURVE",
"273 246 CURVE SMOOTH",
"283 221 OFFCURVE",
"285 195 OFFCURVE",
"285 167 CURVE SMOOTH",
"285 150 LINE",
"285 150 LINE",
"283 131 OFFCURVE",
"281 111 OFFCURVE",
"279 92 CURVE SMOOTH",
"277 73 OFFCURVE",
"275 53 OFFCURVE",
"273 34 CURVE",
"273 9 OFFCURVE",
"275 -18 OFFCURVE",
"290 -38 CURVE",
"290 -37 LINE",
"300 -49 OFFCURVE",
"314 -55 OFFCURVE",
"330 -59 CURVE",
"337 -62 OFFCURVE",
"345 -63 OFFCURVE",
"353 -64 CURVE SMOOTH",
"361 -66 OFFCURVE",
"369 -67 OFFCURVE",
"376 -68 CURVE",
"380 -69 OFFCURVE",
"385 -69 OFFCURVE",
"390 -70 CURVE SMOOTH",
"395 -71 OFFCURVE",
"399 -72 OFFCURVE",
"404 -72 CURVE"
);
}
);
width = 564;
}
);
unicode = 007B;
},
{
glyphname = bar;
lastChange = "2014-11-05 03:29:49 -0500";
layers = (
{
layerId = "16808965-E153-4B2B-ADB3-00196C646C32";
name = "Regular Italic";
paths = (
{
closed = 1;
nodes = (
"120 -213 OFFCURVE",
"113 -212 OFFCURVE",
"106 -212 CURVE SMOOTH",
"84 -212 OFFCURVE",
"63 -219 OFFCURVE",
"44 -231 CURVE",
"69 -69 OFFCURVE",
"91 89 OFFCURVE",
"112 251 CURVE",
"124 251 OFFCURVE",
"135 251 OFFCURVE",
"146 251 CURVE SMOOTH",
"158 251 OFFCURVE",
"169 251 OFFCURVE",
"181 251 CURVE",
"163 95 OFFCURVE",
"146 -59 OFFCURVE",
"128 -215 CURVE"
);
},
{
closed = 1;
nodes = (
"127 383 OFFCURVE",
"137 455 OFFCURVE",
"146 526 CURVE SMOOTH",
"154 597 OFFCURVE",
"164 668 OFFCURVE",
"173 740 CURVE",
"175 740 OFFCURVE",
"177 739 OFFCURVE",
"180 739 CURVE SMOOTH",
"182 739 OFFCURVE",
"184 739 OFFCURVE",
"187 739 CURVE SMOOTH",
"208 739 OFFCURVE",
"230 746 OFFCURVE",
"248 759 CURVE",
"227 609 OFFCURVE",
"206 462 OFFCURVE",
"187 312 CURVE",
"181 311 OFFCURVE",
"175 311 OFFCURVE",
"169 311 CURVE SMOOTH",
"164 311 OFFCURVE",
"158 311 OFFCURVE",
"152 311 CURVE SMOOTH",
"147 311 OFFCURVE",
"141 311 OFFCURVE",
"135 311 CURVE SMOOTH",
"129 311 OFFCURVE",
"124 311 OFFCURVE",
"118 311 CURVE"
);
}
);
width = 305;
}
);
unicode = 007C;
},
{
glyphname = braceright;
lastChange = "2014-11-05 03:29:49 -0500";
layers = (
{
layerId = "16808965-E153-4B2B-ADB3-00196C646C32";
name = "Regular Italic";
paths = (
{
closed = 1;
nodes = (
"114 -91 OFFCURVE",
"124 -90 OFFCURVE",
"134 -88 CURVE",
"156 -86 OFFCURVE",
"178 -82 OFFCURVE",
"199 -74 CURVE SMOOTH",
"210 -70 OFFCURVE",
"220 -64 OFFCURVE",
"228 -58 CURVE",
"240 -45 OFFCURVE",
"247 -30 OFFCURVE",
"251 -14 CURVE SMOOTH",
"255 1 OFFCURVE",
"257 18 OFFCURVE",
"259 34 CURVE",
"262 73 OFFCURVE",
"266 111 OFFCURVE",
"270 150 CURVE SMOOTH",
"271 166 OFFCURVE",
"273 184 OFFCURVE",
"278 201 CURVE SMOOTH",
"282 218 OFFCURVE",
"288 234 OFFCURVE",
"298 249 CURVE SMOOTH",
"315 274 OFFCURVE",
"345 286 OFFCURVE",
"373 293 CURVE",
"374 302 LINE",
"347 308 OFFCURVE",
"320 320 OFFCURVE",
"307 345 CURVE",
"295 364 OFFCURVE",
"294 388 OFFCURVE",
"294 411 CURVE SMOOTH",
"294 441 OFFCURVE",
"297 473 OFFCURVE",
"300 504 CURVE SMOOTH",
"304 536 OFFCURVE",
"307 566 OFFCURVE",
"307 597 CURVE SMOOTH",
"307 619 OFFCURVE",
"304 640 OFFCURVE",
"291 657 CURVE",
"276 670 OFFCURVE",
"255 679 OFFCURVE",
"233 684 CURVE SMOOTH",
"222 686 OFFCURVE",
"211 688 OFFCURVE",
"201 689 CURVE SMOOTH",
"191 691 OFFCURVE",
"182 692 OFFCURVE",
"174 694 CURVE",
"174 704 OFFCURVE",
"175 714 OFFCURVE",
"175 725 CURVE",
"175 734 OFFCURVE",
"176 745 OFFCURVE",
"176 755 CURVE",
"190 751 OFFCURVE",
"205 749 OFFCURVE",
"221 746 CURVE SMOOTH",
"253 742 OFFCURVE",
"286 735 OFFCURVE",
"315 725 CURVE SMOOTH",
"331 719 OFFCURVE",
"344 711 OFFCURVE",
"356 702 CURVE",
"379 677 OFFCURVE",
"384 645 OFFCURVE",
"384 610 CURVE SMOOTH",
"384 595 OFFCURVE",
"383 582 OFFCURVE",
"382 567 CURVE SMOOTH",
"372 455 LINE SMOOTH",
"371 445 OFFCURVE",
"371 435 OFFCURVE",
"371 425 CURVE SMOOTH",
"371 399 OFFCURVE",
"374 375 OFFCURVE",
"389 355 CURVE",
"400 343 OFFCURVE",
"415 336 OFFCURVE",
"431 333 CURVE",
"446 329 OFFCURVE",
"463 328 OFFCURVE",
"479 328 CURVE SMOOTH",
"483 328 OFFCURVE",
"487 328 OFFCURVE",
"492 329 CURVE SMOOTH",
"496 329 OFFCURVE",
"500 329 OFFCURVE",
"503 329 CURVE",
"499 269 LINE",
"482 269 LINE SMOOTH",
"465 269 OFFCURVE",
"447 269 OFFCURVE",
"429 265 CURVE SMOOTH",
"411 261 OFFCURVE",
"394 254 OFFCURVE",
"379 240 CURVE",
"366 227 OFFCURVE",
"359 210 OFFCURVE",
"354 192 CURVE SMOOTH",
"348 175 OFFCURVE",
"346 157 OFFCURVE",
"344 139 CURVE",
"341 102 OFFCURVE",
"338 64 OFFCURVE",
"335 27 CURVE SMOOTH",
"333 4 OFFCURVE",
"330 -21 OFFCURVE",
"323 -44 CURVE SMOOTH",
"316 -68 OFFCURVE",
"305 -90 OFFCURVE",
"286 -107 CURVE",
"261 -125 OFFCURVE",
"234 -133 OFFCURVE",
"206 -139 CURVE SMOOTH",
"192 -142 OFFCURVE",
"178 -144 OFFCURVE",
"164 -146 CURVE SMOOTH",
"150 -148 OFFCURVE",
"136 -151 OFFCURVE",
"122 -154 CURVE",
"118 -154 OFFCURVE",
"113 -155 OFFCURVE",
"109 -156 CURVE",
"104 -157 OFFCURVE",
"101 -158 OFFCURVE",
"96 -158 CURVE",
"98 -147 OFFCURVE",
"100 -136 OFFCURVE",
"101 -125 CURVE SMOOTH",
"103 -114 OFFCURVE",
"104 -104 OFFCURVE",
"105 -92 CURVE"
);
}
);
width = 572;
}
);
unicode = 007D;
},
{
glyphname = asciitilde;
lastChange = "2014-11-05 03:29:49 -0500";
layers = (
{
layerId = "16808965-E153-4B2B-ADB3-00196C646C32";
name = "Regular Italic";
paths = (
{
closed = 1;
nodes = (
"681 376 OFFCURVE",
"672 351 OFFCURVE",
"669 325 CURVE",
"656 315 OFFCURVE",
"642 305 OFFCURVE",
"629 294 CURVE SMOOTH",
"602 272 OFFCURVE",
"574 254 OFFCURVE",
"544 242 CURVE SMOOTH",
"515 230 OFFCURVE",
"484 232 OFFCURVE",
"461 239 CURVE SMOOTH",
"438 245 OFFCURVE",
"416 255 OFFCURVE",
"395 266 CURVE SMOOTH",
"384 271 OFFCURVE",
"373 276 OFFCURVE",
"362 281 CURVE",
"363 281 LINE",
"328 301 OFFCURVE",
"292 319 OFFCURVE",
"250 321 CURVE",
"219 320 OFFCURVE",
"190 306 OFFCURVE",
"164 289 CURVE SMOOTH",
"131 266 OFFCURVE",
"97 244 OFFCURVE",
"63 224 CURVE",
"80 251 OFFCURVE",
"88 281 OFFCURVE",
"90 313 CURVE",
"113 332 OFFCURVE",
"139 349 OFFCURVE",
"167 361 CURVE SMOOTH",
"194 373 OFFCURVE",
"223 380 OFFCURVE",
"252 380 CURVE SMOOTH",
"296 380 OFFCURVE",
"340 370 OFFCURVE",
"379 353 CURVE",
"381 351 OFFCURVE",
"384 350 OFFCURVE",
"386 350 CURVE",
"386 350 LINE",
"390 349 OFFCURVE",
"393 347 OFFCURVE",
"396 346 CURVE",
"396 346 LINE",
"433 331 OFFCURVE",
"469 316 OFFCURVE",
"510 316 CURVE SMOOTH",
"545 316 OFFCURVE",
"578 328 OFFCURVE",
"609 343 CURVE SMOOTH",
"625 351 OFFCURVE",
"640 360 OFFCURVE",
"655 369 CURVE SMOOTH",
"670 378 OFFCURVE",
"685 387 OFFCURVE",
"700 396 CURVE",
"699 397 OFFCURVE",
"698 398 OFFCURVE",
"695 399 CURVE"
);
}
);
width = 747;
}
);
unicode = 007E;
},
{
glyphname = exclamdown;
lastChange = "2014-11-05 03:29:49 -0500";
layers = (
{
layerId = "16808965-E153-4B2B-ADB3-00196C646C32";
name = "Regular Italic";
paths = (
{
closed = 1;
nodes = (
"265 598 LINE",
"247 593 OFFCURVE",
"229 589 OFFCURVE",
"210 589 CURVE SMOOTH",
"193 589 OFFCURVE",
"176 592 OFFCURVE",
"160 598 CURVE",
"162 619 OFFCURVE",
"163 639 OFFCURVE",
"165 660 CURVE SMOOTH",
"166 680 OFFCURVE",
"167 701 OFFCURVE",
"169 722 CURVE",
"185 714 OFFCURVE",
"202 710 OFFCURVE",
"221 710 CURVE SMOOTH",
"241 710 OFFCURVE",
"260 713 OFFCURVE",
"278 723 CURVE"
);
},
{
closed = 1;
nodes = (
"203 14 OFFCURVE",
"183 19 OFFCURVE",
"162 19 CURVE SMOOTH",
"141 19 OFFCURVE",
"120 14 OFFCURVE",
"101 5 CURVE",
"114 110 OFFCURVE",
"126 214 OFFCURVE",
"137 319 CURVE SMOOTH",
"141 347 OFFCURVE",
"145 375 OFFCURVE",
"149 403 CURVE SMOOTH",
"153 431 OFFCURVE",
"157 458 OFFCURVE",
"161 486 CURVE",
"174 484 OFFCURVE",
"187 483 OFFCURVE",
"200 483 CURVE SMOOTH",
"215 483 OFFCURVE",
"230 485 OFFCURVE",
"246 487 CURVE",
"244 459 OFFCURVE",
"243 431 OFFCURVE",
"243 403 CURVE SMOOTH",
"242 375 OFFCURVE",
"241 348 OFFCURVE",
"240 320 CURVE",
"240 320 LINE",
"232 214 OFFCURVE",
"226 110 OFFCURVE",
"220 4 CURVE"
);
}
);
width = 350;
}
);
unicode = 00A1;
},
{
glyphname = cent;
lastChange = "2014-11-05 03:29:49 -0500";
layers = (
{
layerId = "16808965-E153-4B2B-ADB3-00196C646C32";
name = "Regular Italic";
paths = (
{
closed = 1;
nodes = (
"298 169 OFFCURVE",
"305 233 OFFCURVE",
"312 296 CURVE SMOOTH",
"318 360 OFFCURVE",
"325 424 OFFCURVE",
"332 488 CURVE",
"291 486 OFFCURVE",
"258 470 OFFCURVE",
"232 445 CURVE SMOOTH",
"206 421 OFFCURVE",
"187 388 OFFCURVE",
"174 353 CURVE SMOOTH",
"162 318 OFFCURVE",
"156 281 OFFCURVE",
"156 248 CURVE SMOOTH",
"156 205 OFFCURVE",
"169 170 OFFCURVE",
"192 146 CURVE SMOOTH",
"215 121 OFFCURVE",
"248 106 OFFCURVE",
"287 101 CURVE",
"288 101 OFFCURVE",
"289 102 OFFCURVE",
"290 103 CURVE SMOOTH",
"290 104 OFFCURVE",
"291 104 OFFCURVE",
"292 105 CURVE"
);
},
{
closed = 1;
nodes = (
"502 507 OFFCURVE",
"501 497 OFFCURVE",
"500 487 CURVE SMOOTH",
"499 477 OFFCURVE",
"497 467 OFFCURVE",
"496 457 CURVE",
"458 477 OFFCURVE",
"416 488 OFFCURVE",
"371 490 CURVE",
"355 358 OFFCURVE",
"342 228 OFFCURVE",
"329 97 CURVE",
"374 99 OFFCURVE",
"418 109 OFFCURVE",
"460 128 CURVE",
"459 109 OFFCURVE",
"458 91 OFFCURVE",
"456 73 CURVE SMOOTH",
"454 55 OFFCURVE",
"453 36 OFFCURVE",
"452 18 CURVE",
"409 2 OFFCURVE",
"365 -3 OFFCURVE",
"320 -5 CURVE",
"318 -27 OFFCURVE",
"316 -50 OFFCURVE",
"314 -72 CURVE SMOOTH",
"312 -94 OFFCURVE",
"310 -116 OFFCURVE",
"309 -139 CURVE",
"302 -138 OFFCURVE",
"295 -138 OFFCURVE",
"289 -137 CURVE",
"282 -137 OFFCURVE",
"275 -137 OFFCURVE",
"269 -136 CURVE",
"271 -114 OFFCURVE",
"273 -91 OFFCURVE",
"275 -68 CURVE SMOOTH",
"277 -46 OFFCURVE",
"279 -23 OFFCURVE",
"281 -1 CURVE",
"250 2 OFFCURVE",
"217 9 OFFCURVE",
"188 22 CURVE SMOOTH",
"159 35 OFFCURVE",
"133 52 OFFCURVE",
"114 78 CURVE SMOOTH",
"84 119 OFFCURVE",
"75 171 OFFCURVE",
"75 224 CURVE SMOOTH",
"75 262 OFFCURVE",
"79 306 OFFCURVE",
"91 349 CURVE SMOOTH",
"103 391 OFFCURVE",
"123 432 OFFCURVE",
"154 463 CURVE",
"178 488 OFFCURVE",
"208 506 OFFCURVE",
"240 518 CURVE SMOOTH",
"272 529 OFFCURVE",
"306 535 OFFCURVE",
"338 539 CURVE",
"341 561 OFFCURVE",
"344 583 OFFCURVE",
"346 606 CURVE SMOOTH",
"349 629 OFFCURVE",
"352 651 OFFCURVE",
"354 674 CURVE",
"361 674 OFFCURVE",
"368 674 OFFCURVE",
"375 674 CURVE",
"381 674 OFFCURVE",
"388 674 OFFCURVE",
"395 674 CURVE",
"389 629 OFFCURVE",
"383 584 OFFCURVE",
"378 539 CURVE",
"423 537 OFFCURVE",
"467 530 OFFCURVE",
"506 513 CURVE",
"506 514 OFFCURVE",
"506 515 OFFCURVE",
"505 515 CURVE SMOOTH",
"505 516 OFFCURVE",
"504 517 OFFCURVE",
"504 517 CURVE"
);
}
);
width = 579;
}
);
unicode = 00A2;
},
{
glyphname = sterling;
lastChange = "2014-11-05 03:29:49 -0500";
layers = (
{
layerId = "16808965-E153-4B2B-ADB3-00196C646C32";
name = "Regular Italic";
paths = (
{
closed = 1;
nodes = (
"563 690 OFFCURVE",
"561 677 OFFCURVE",
"558 664 CURVE",
"555 650 OFFCURVE",
"553 637 OFFCURVE",
"550 623 CURVE",
"515 640 OFFCURVE",
"478 653 OFFCURVE",
"437 653 CURVE SMOOTH",
"417 653 OFFCURVE",
"396 649 OFFCURVE",
"377 643 CURVE SMOOTH",
"357 637 OFFCURVE",
"338 625 OFFCURVE",
"324 611 CURVE",
"308 592 OFFCURVE",
"298 570 OFFCURVE",
"292 546 CURVE SMOOTH",
"287 523 OFFCURVE",
"283 499 OFFCURVE",
"281 476 CURVE SMOOTH",
"278 458 OFFCURVE",
"276 440 OFFCURVE",
"274 423 CURVE SMOOTH",
"272 406 OFFCURVE",
"271 388 OFFCURVE",
"269 371 CURVE",
"329 369 OFFCURVE",
"387 368 OFFCURVE",
"447 368 CURVE",
"446 359 OFFCURVE",
"445 351 OFFCURVE",
"445 343 CURVE",
"444 335 OFFCURVE",
"443 327 OFFCURVE",
"442 319 CURVE",
"412 319 OFFCURVE",
"382 320 OFFCURVE",
"353 321 CURVE SMOOTH",
"323 321 OFFCURVE",
"293 322 OFFCURVE",
"263 322 CURVE",
"259 287 OFFCURVE",
"255 251 OFFCURVE",
"251 215 CURVE SMOOTH",
"247 180 OFFCURVE",
"242 144 OFFCURVE",
"238 108 CURVE",
"326 108 OFFCURVE",
"413 105 OFFCURVE",
"500 95 CURVE",
"499 79 OFFCURVE",
"499 63 OFFCURVE",
"498 46 CURVE SMOOTH",
"498 30 OFFCURVE",
"497 14 OFFCURVE",
"497 -2 CURVE",
"408 9 OFFCURVE",
"320 15 OFFCURVE",
"229 15 CURVE SMOOTH",
"160 15 OFFCURVE",
"91 11 OFFCURVE",
"22 5 CURVE",
"30 38 OFFCURVE",
"35 70 OFFCURVE",
"41 104 CURVE",
"78 106 OFFCURVE",
"115 107 OFFCURVE",
"152 108 CURVE",
"163 181 OFFCURVE",
"172 251 OFFCURVE",
"180 323 CURVE",
"149 323 OFFCURVE",
"120 324 OFFCURVE",
"89 324 CURVE",
"95 374 LINE",
"110 374 OFFCURVE",
"125 373 OFFCURVE",
"141 373 CURVE SMOOTH",
"156 373 OFFCURVE",
"171 373 OFFCURVE",
"186 372 CURVE",
"188 392 OFFCURVE",
"190 411 OFFCURVE",
"192 431 CURVE SMOOTH",
"196 470 OFFCURVE",
"199 504 OFFCURVE",
"205 535 CURVE SMOOTH",
"210 566 OFFCURVE",
"220 596 OFFCURVE",
"236 624 CURVE SMOOTH",
"243 637 OFFCURVE",
"253 650 OFFCURVE",
"265 662 CURVE",
"288 683 OFFCURVE",
"317 697 OFFCURVE",
"349 707 CURVE SMOOTH",
"379 716 OFFCURVE",
"412 720 OFFCURVE",
"440 720 CURVE SMOOTH",
"485 720 OFFCURVE",
"527 712 OFFCURVE",
"568 700 CURVE",
"567 702 OFFCURVE",
"566 703 OFFCURVE",
"566 704 CURVE"
);
}
);
width = 628;
}
);
unicode = 00A3;
},
{
glyphname = currency;
lastChange = "2014-11-05 03:29:49 -0500";
layers = (
{
layerId = "16808965-E153-4B2B-ADB3-00196C646C32";
name = "Regular Italic";
paths = (
{
closed = 1;
nodes = (
"534 509 OFFCURVE",
"571 543 OFFCURVE",
"609 576 CURVE",
"615 569 OFFCURVE",
"622 561 OFFCURVE",
"628 554 CURVE SMOOTH",
"635 546 OFFCURVE",
"641 538 OFFCURVE",
"647 530 CURVE",
"628 513 OFFCURVE",
"610 496 OFFCURVE",
"591 479 CURVE SMOOTH",
"573 462 OFFCURVE",
"554 445 OFFCURVE",
"536 427 CURVE",
"551 397 OFFCURVE",
"559 365 OFFCURVE",
"559 331 CURVE SMOOTH",
"559 284 OFFCURVE",
"542 239 OFFCURVE",
"513 201 CURVE",
"544 166 OFFCURVE",
"575 131 OFFCURVE",
"608 98 CURVE",
"600 90 OFFCURVE",
"592 83 OFFCURVE",
"585 75 CURVE SMOOTH",
"578 67 OFFCURVE",
"570 60 OFFCURVE",
"562 52 CURVE",
"528 87 OFFCURVE",
"497 120 OFFCURVE",
"464 155 CURVE",
"430 132 OFFCURVE",
"391 118 OFFCURVE",
"351 118 CURVE SMOOTH",
"311 118 OFFCURVE",
"273 133 OFFCURVE",
"241 153 CURVE",
"222 136 OFFCURVE",
"203 119 OFFCURVE",
"185 102 CURVE SMOOTH",
"166 84 OFFCURVE",
"146 67 OFFCURVE",
"127 50 CURVE",
"121 58 OFFCURVE",
"114 65 OFFCURVE",
"108 74 CURVE",
"102 82 OFFCURVE",
"96 89 OFFCURVE",
"89 97 CURVE",
"127 130 OFFCURVE",
"164 165 OFFCURVE",
"201 199 CURVE",
"187 230 OFFCURVE",
"177 264 OFFCURVE",
"177 299 CURVE SMOOTH",
"177 344 OFFCURVE",
"194 388 OFFCURVE",
"222 425 CURVE",
"206 442 OFFCURVE",
"190 459 OFFCURVE",
"175 477 CURVE SMOOTH",
"159 494 OFFCURVE",
"144 511 OFFCURVE",
"128 528 CURVE",
"136 536 OFFCURVE",
"145 543 OFFCURVE",
"152 551 CURVE SMOOTH",
"159 559 OFFCURVE",
"167 566 OFFCURVE",
"175 574 CURVE",
"191 557 OFFCURVE",
"207 540 OFFCURVE",
"223 523 CURVE SMOOTH",
"239 506 OFFCURVE",
"255 489 OFFCURVE",
"271 471 CURVE",
"305 495 OFFCURVE",
"345 507 OFFCURVE",
"385 507 CURVE SMOOTH",
"424 507 OFFCURVE",
"460 496 OFFCURVE",
"492 475 CURVE",
"493 475 OFFCURVE",
"494 475 OFFCURVE",
"495 475 CURVE",
"495 475 OFFCURVE",
"496 475 OFFCURVE",
"497 475 CURVE"
);
},
{
closed = 1;
nodes = (
"496 316 OFFCURVE",
"496 318 OFFCURVE",
"496 320 CURVE SMOOTH",
"496 323 OFFCURVE",
"496 325 OFFCURVE",
"496 328 CURVE SMOOTH",
"496 361 OFFCURVE",
"483 391 OFFCURVE",
"462 411 CURVE SMOOTH",
"440 431 OFFCURVE",
"411 442 OFFCURVE",
"377 442 CURVE SMOOTH",
"339 442 OFFCURVE",
"305 426 OFFCURVE",
"280 400 CURVE SMOOTH",
"254 374 OFFCURVE",
"239 338 OFFCURVE",
"239 299 CURVE SMOOTH",
"239 265 OFFCURVE",
"252 236 OFFCURVE",
"273 215 CURVE SMOOTH",
"295 195 OFFCURVE",
"325 183 OFFCURVE",
"358 183 CURVE SMOOTH",
"394 183 OFFCURVE",
"427 198 OFFCURVE",
"452 222 CURVE SMOOTH",
"477 245 OFFCURVE",
"493 278 OFFCURVE",
"496 313 CURVE"
);
}
);
width = 718;
}
);
unicode = 00A4;
},
{
glyphname = yen;
lastChange = "2014-11-05 03:29:49 -0500";
layers = (
{
layerId = "16808965-E153-4B2B-ADB3-00196C646C32";
name = "Regular Italic";
paths = (
{
closed = 1;
nodes = (
"573 212 OFFCURVE",
"510 213 OFFCURVE",
"446 213 CURVE",
"444 148 OFFCURVE",
"442 83 OFFCURVE",
"442 18 CURVE",
"434 19 OFFCURVE",
"426 19 OFFCURVE",
"417 19 CURVE SMOOTH",
"409 19 OFFCURVE",
"401 19 OFFCURVE",
"393 19 CURVE SMOOTH",
"381 19 OFFCURVE",
"370 19 OFFCURVE",
"359 19 CURVE",
"348 18 OFFCURVE",
"336 18 OFFCURVE",
"325 18 CURVE",
"336 83 OFFCURVE",
"347 148 OFFCURVE",
"358 213 CURVE",
"293 213 OFFCURVE",
"229 211 OFFCURVE",
"165 209 CURVE",
"168 232 OFFCURVE",
"170 255 OFFCURVE",
"172 278 CURVE",
"237 279 OFFCURVE",
"300 280 OFFCURVE",
"364 280 CURVE",
"364 285 OFFCURVE",
"365 290 OFFCURVE",
"365 295 CURVE SMOOTH",
"366 300 OFFCURVE",
"366 305 OFFCURVE",
"367 311 CURVE",
"360 323 OFFCURVE",
"353 336 OFFCURVE",
"345 349 CURVE",
"337 361 OFFCURVE",
"330 374 OFFCURVE",
"323 387 CURVE",
"298 387 OFFCURVE",
"273 387 OFFCURVE",
"249 387 CURVE SMOOTH",
"224 387 OFFCURVE",
"199 387 OFFCURVE",
"174 388 CURVE",
"175 396 OFFCURVE",
"175 404 OFFCURVE",
"176 413 CURVE SMOOTH",
"176 421 OFFCURVE",
"177 429 OFFCURVE",
"178 438 CURVE",
"219 436 OFFCURVE",
"260 435 OFFCURVE",
"301 435 CURVE",
"260 533 OFFCURVE",
"216 628 OFFCURVE",
"170 725 CURVE",
"201 721 OFFCURVE",
"229 717 OFFCURVE",
"260 716 CURVE",
"315 603 OFFCURVE",
"364 491 OFFCURVE",
"414 376 CURVE",
"482 491 OFFCURVE",
"552 604 OFFCURVE",
"626 716 CURVE",
"658 718 OFFCURVE",
"688 721 OFFCURVE",
"719 725 CURVE",
"652 629 OFFCURVE",
"591 533 OFFCURVE",
"530 435 CURVE",
"551 436 OFFCURVE",
"572 436 OFFCURVE",
"593 437 CURVE SMOOTH",
"613 437 OFFCURVE",
"634 437 OFFCURVE",
"655 438 CURVE",
"654 429 OFFCURVE",
"653 421 OFFCURVE",
"652 413 CURVE SMOOTH",
"651 405 OFFCURVE",
"650 396 OFFCURVE",
"650 388 CURVE",
"500 387 LINE",
"493 374 OFFCURVE",
"485 361 OFFCURVE",
"477 349 CURVE SMOOTH",
"469 336 OFFCURVE",
"461 323 OFFCURVE",
"453 311 CURVE",
"451 280 LINE",
"515 280 OFFCURVE",
"578 280 OFFCURVE",
"641 278 CURVE",
"640 267 OFFCURVE",
"639 255 OFFCURVE",
"639 244 CURVE SMOOTH",
"638 232 OFFCURVE",
"637 220 OFFCURVE",
"637 209 CURVE"
);
}
);
width = 723;
}
);
unicode = 00A5;
},
{
glyphname = brokenbar;
lastChange = "2014-11-05 03:29:49 -0500";
layers = (
{
layerId = "16808965-E153-4B2B-ADB3-00196C646C32";
name = "Regular Italic";
paths = (
{
closed = 1;
nodes = (
"180 73 OFFCURVE",
"171 -45 OFFCURVE",
"162 -166 CURVE",
"153 -155 OFFCURVE",
"140 -150 OFFCURVE",
"126 -150 CURVE SMOOTH",
"113 -150 OFFCURVE",
"99 -156 OFFCURVE",
"88 -166 CURVE",
"100 -46 OFFCURVE",
"111 74 OFFCURVE",
"122 194 CURVE",
"135 196 OFFCURVE",
"148 196 OFFCURVE",
"161 196 CURVE SMOOTH",
"171 196 OFFCURVE",
"181 196 OFFCURVE",
"190 194 CURVE"
);
},
{
closed = 1;
nodes = (
"225 573 OFFCURVE",
"214 455 OFFCURVE",
"203 333 CURVE",
"190 332 OFFCURVE",
"178 330 OFFCURVE",
"166 330 CURVE SMOOTH",
"154 330 OFFCURVE",
"144 331 OFFCURVE",
"134 334 CURVE",
"145 454 OFFCURVE",
"154 574 OFFCURVE",
"164 694 CURVE",
"171 683 OFFCURVE",
"184 677 OFFCURVE",
"198 677 CURVE SMOOTH",
"212 677 OFFCURVE",
"227 683 OFFCURVE",
"237 694 CURVE"
);
}
);
width = 328;
}
);
unicode = 00A6;
},
{
glyphname = section;
lastChange = "2014-11-05 03:29:49 -0500";
layers = (
{
layerId = "16808965-E153-4B2B-ADB3-00196C646C32";
name = "Regular Italic";
paths = (
{
closed = 1;
nodes = (
"231 466 LINE",
"214 455 OFFCURVE",
"198 441 OFFCURVE",
"185 425 CURVE SMOOTH",
"172 409 OFFCURVE",
"164 391 OFFCURVE",
"164 370 CURVE SMOOTH",
"164 345 OFFCURVE",
"176 324 OFFCURVE",
"194 305 CURVE SMOOTH",
"211 285 OFFCURVE",
"236 269 OFFCURVE",
"261 253 CURVE SMOOTH",
"273 246 OFFCURVE",
"286 238 OFFCURVE",
"298 231 CURVE SMOOTH",
"311 224 OFFCURVE",
"322 217 OFFCURVE",
"333 210 CURVE",
"349 221 OFFCURVE",
"366 235 OFFCURVE",
"380 251 CURVE SMOOTH",
"394 267 OFFCURVE",
"403 286 OFFCURVE",
"403 306 CURVE SMOOTH",
"403 342 OFFCURVE",
"377 373 OFFCURVE",
"344 399 CURVE SMOOTH",
"327 412 OFFCURVE",
"309 424 OFFCURVE",
"290 435 CURVE SMOOTH",
"270 446 OFFCURVE",
"252 457 OFFCURVE",
"236 466 CURVE"
);
},
{
closed = 1;
nodes = (
"466 707 LINE",
"464 695 OFFCURVE",
"463 683 OFFCURVE",
"461 671 CURVE SMOOTH",
"460 659 OFFCURVE",
"458 647 OFFCURVE",
"456 635 CURVE",
"413 650 OFFCURVE",
"371 662 OFFCURVE",
"322 662 CURVE SMOOTH",
"300 662 OFFCURVE",
"275 656 OFFCURVE",
"255 645 CURVE SMOOTH",
"236 632 OFFCURVE",
"221 613 OFFCURVE",
"221 588 CURVE",
"225 561 OFFCURVE",
"242 539 OFFCURVE",
"263 520 CURVE SMOOTH",
"285 500 OFFCURVE",
"310 486 OFFCURVE",
"329 476 CURVE",
"344 466 OFFCURVE",
"359 457 OFFCURVE",
"376 447 CURVE SMOOTH",
"409 427 OFFCURVE",
"437 402 OFFCURVE",
"455 371 CURVE SMOOTH",
"464 355 OFFCURVE",
"468 337 OFFCURVE",
"468 317 CURVE SMOOTH",
"468 285 OFFCURVE",
"458 256 OFFCURVE",
"440 231 CURVE SMOOTH",
"422 206 OFFCURVE",
"397 186 OFFCURVE",
"369 172 CURVE",
"397 145 OFFCURVE",
"420 110 OFFCURVE",
"420 69 CURVE SMOOTH",
"420 49 OFFCURVE",
"417 28 OFFCURVE",
"409 9 CURVE SMOOTH",
"401 -11 OFFCURVE",
"388 -28 OFFCURVE",
"369 -40 CURVE",
"349 -55 OFFCURVE",
"326 -63 OFFCURVE",
"303 -68 CURVE SMOOTH",
"279 -74 OFFCURVE",
"255 -75 OFFCURVE",
"232 -75 CURVE SMOOTH",
"183 -75 OFFCURVE",
"137 -67 OFFCURVE",
"90 -58 CURVE",
"92 -42 OFFCURVE",
"94 -27 OFFCURVE",
"96 -12 CURVE SMOOTH",
"98 3 OFFCURVE",
"100 19 OFFCURVE",
"102 34 CURVE",
"144 19 OFFCURVE",
"187 7 OFFCURVE",
"233 7 CURVE SMOOTH",
"255 7 OFFCURVE",
"278 9 OFFCURVE",
"299 15 CURVE SMOOTH",
"329 23 OFFCURVE",
"344 48 OFFCURVE",
"344 72 CURVE",
"340 98 OFFCURVE",
"323 119 OFFCURVE",
"302 137 CURVE SMOOTH",
"281 155 OFFCURVE",
"256 169 OFFCURVE",
"236 180 CURVE",
"237 180 LINE",
"206 198 OFFCURVE",
"171 218 OFFCURVE",
"144 242 CURVE SMOOTH",
"117 267 OFFCURVE",
"97 296 OFFCURVE",
"97 339 CURVE SMOOTH",
"97 371 OFFCURVE",
"107 400 OFFCURVE",
"125 426 CURVE SMOOTH",
"142 451 OFFCURVE",
"167 471 OFFCURVE",
"196 484 CURVE",
"165 509 OFFCURVE",
"144 547 OFFCURVE",
"144 588 CURVE SMOOTH",
"144 607 OFFCURVE",
"148 627 OFFCURVE",
"156 645 CURVE SMOOTH",
"165 662 OFFCURVE",
"178 677 OFFCURVE",
"195 688 CURVE SMOOTH",
"215 702 OFFCURVE",
"237 710 OFFCURVE",
"261 715 CURVE SMOOTH",
"284 720 OFFCURVE",
"307 721 OFFCURVE",
"330 721 CURVE SMOOTH",
"377 721 OFFCURVE",
"423 715 OFFCURVE",
"468 703 CURVE",
"466 707 LINE"
);
}
);
width = 541;
}
);
unicode = 00A7;
},
{
glyphname = dieresis;
lastChange = "2014-11-05 03:29:49 -0500";
layers = (
{
anchors = (
{
name = _top;
position = "{324, 645}";
}
);
layerId = "16808965-E153-4B2B-ADB3-00196C646C32";
name = "Regular Italic";
paths = (
{
closed = 1;
nodes = (
"398 759 OFFCURVE",
"415 760 OFFCURVE",
"431 760 CURVE SMOOTH",
"447 760 OFFCURVE",
"463 760 OFFCURVE",
"479 761 CURVE",
"469 742 OFFCURVE",
"464 722 OFFCURVE",
"464 701 CURVE SMOOTH",
"464 688 OFFCURVE",
"466 675 OFFCURVE",
"470 664 CURVE",
"454 665 OFFCURVE",
"438 665 OFFCURVE",
"422 665 CURVE SMOOTH",
"406 665 OFFCURVE",
"390 666 OFFCURVE",
"374 666 CURVE",
"374 669 OFFCURVE",
"373 673 OFFCURVE",
"373 677 CURVE SMOOTH",
"373 681 OFFCURVE",
"373 685 OFFCURVE",
"373 688 CURVE SMOOTH",
"373 712 OFFCURVE",
"376 735 OFFCURVE",
"382 759 CURVE"
);
},
{
closed = 1;
nodes = (
"193 760 OFFCURVE",
"209 760 OFFCURVE",
"226 760 CURVE SMOOTH",
"241 759 OFFCURVE",
"257 759 OFFCURVE",
"273 759 CURVE",
"273 755 OFFCURVE",
"273 752 OFFCURVE",
"273 750 CURVE SMOOTH",
"273 746 OFFCURVE",
"273 743 OFFCURVE",
"273 740 CURVE SMOOTH",
"273 715 OFFCURVE",
"271 691 OFFCURVE",
"266 666 CURVE",
"250 666 OFFCURVE",
"233 666 OFFCURVE",
"217 666 CURVE SMOOTH",
"201 665 OFFCURVE",
"185 665 OFFCURVE",
"168 664 CURVE",
"178 683 OFFCURVE",
"183 703 OFFCURVE",
"183 724 CURVE SMOOTH",
"183 737 OFFCURVE",
"181 749 OFFCURVE",
"177 761 CURVE"
);
}
);
width = 460;
}
);
unicode = 00A8;
},
{
glyphname = copyright;
lastChange = "2014-11-05 03:29:49 -0500";
layers = (
{
layerId = "16808965-E153-4B2B-ADB3-00196C646C32";
name = "Regular Italic";
paths = (
{
closed = 1;
nodes = (
"507 706 OFFCURVE",
"551 699 OFFCURVE",
"592 683 CURVE SMOOTH",
"632 667 OFFCURVE",
"668 643 OFFCURVE",
"697 609 CURVE SMOOTH",
"746 554 OFFCURVE",
"767 480 OFFCURVE",
"767 403 CURVE SMOOTH",
"767 353 OFFCURVE",
"759 299 OFFCURVE",
"740 250 CURVE SMOOTH",
"722 200 OFFCURVE",
"693 153 OFFCURVE",
"653 116 CURVE",
"618 82 OFFCURVE",
"577 57 OFFCURVE",
"533 42 CURVE SMOOTH",
"489 26 OFFCURVE",
"442 19 OFFCURVE",
"396 19 CURVE SMOOTH",
"352 19 OFFCURVE",
"308 26 OFFCURVE",
"269 42 CURVE SMOOTH",
"229 59 OFFCURVE",
"193 83 OFFCURVE",
"165 115 CURVE SMOOTH",
"116 171 OFFCURVE",
"95 245 OFFCURVE",
"95 322 CURVE SMOOTH",
"95 373 OFFCURVE",
"103 425 OFFCURVE",
"121 475 CURVE SMOOTH",
"139 525 OFFCURVE",
"167 571 OFFCURVE",
"208 608 CURVE",
"242 642 OFFCURVE",
"283 667 OFFCURVE",
"327 683 CURVE SMOOTH",
"370 698 OFFCURVE",
"417 706 OFFCURVE",
"462 706 CURVE SMOOTH"
);
},
{
closed = 1;
nodes = (
"417 667 OFFCURVE",
"377 659 OFFCURVE",
"339 645 CURVE SMOOTH",
"301 631 OFFCURVE",
"266 609 OFFCURVE",
"235 580 CURVE SMOOTH",
"200 548 OFFCURVE",
"174 508 OFFCURVE",
"157 465 CURVE SMOOTH",
"140 422 OFFCURVE",
"131 376 OFFCURVE",
"131 332 CURVE SMOOTH",
"131 266 OFFCURVE",
"153 202 OFFCURVE",
"199 158 CURVE",
"258 115 OFFCURVE",
"332 95 OFFCURVE",
"408 95 CURVE SMOOTH",
"484 95 OFFCURVE",
"561 115 OFFCURVE",
"627 158 CURVE",
"665 186 OFFCURVE",
"691 225 OFFCURVE",
"707 268 CURVE SMOOTH",
"723 310 OFFCURVE",
"729 356 OFFCURVE",
"729 398 CURVE SMOOTH",
"729 465 OFFCURVE",
"709 531 OFFCURVE",
"666 580 CURVE SMOOTH",
"641 610 OFFCURVE",
"608 631 OFFCURVE",
"573 646 CURVE SMOOTH",
"538 660 OFFCURVE",
"498 667 OFFCURVE",
"458 667 CURVE SMOOTH"
);
},
{
closed = 1;
nodes = (
"583 548 LINE",
"581 534 OFFCURVE",
"579 521 OFFCURVE",
"578 509 CURVE",
"542 526 OFFCURVE",
"502 535 OFFCURVE",
"461 535 CURVE SMOOTH",
"419 535 OFFCURVE",
"377 519 OFFCURVE",
"348 486 CURVE SMOOTH",
"315 449 OFFCURVE",
"298 398 OFFCURVE",
"298 352 CURVE SMOOTH",
"298 311 OFFCURVE",
"316 281 OFFCURVE",
"343 260 CURVE SMOOTH",
"370 240 OFFCURVE",
"406 229 OFFCURVE",
"443 229 CURVE SMOOTH",
"480 229 OFFCURVE",
"519 240 OFFCURVE",
"554 256 CURVE",
"554 243 OFFCURVE",
"553 230 OFFCURVE",
"552 217 CURVE SMOOTH",
"550 204 OFFCURVE",
"549 191 OFFCURVE",
"549 178 CURVE",
"508 161 OFFCURVE",
"464 155 OFFCURVE",
"421 155 CURVE SMOOTH",
"394 155 OFFCURVE",
"366 159 OFFCURVE",
"341 167 CURVE SMOOTH",
"315 175 OFFCURVE",
"292 189 OFFCURVE",
"274 209 CURVE SMOOTH",
"243 242 OFFCURVE",
"231 287 OFFCURVE",
"231 333 CURVE SMOOTH",
"231 365 OFFCURVE",
"236 398 OFFCURVE",
"247 430 CURVE SMOOTH",
"257 461 OFFCURVE",
"275 490 OFFCURVE",
"300 513 CURVE SMOOTH",
"324 534 OFFCURVE",
"351 548 OFFCURVE",
"378 556 CURVE SMOOTH",
"406 564 OFFCURVE",
"436 568 OFFCURVE",
"464 568 CURVE SMOOTH",
"506 568 OFFCURVE",
"547 559 OFFCURVE",
"584 544 CURVE"
);
}
);
width = 822;
}
);
unicode = 00A9;
},
{
glyphname = ordfeminine;
lastChange = "2014-11-05 03:29:49 -0500";
layers = (
{
layerId = "16808965-E153-4B2B-ADB3-00196C646C32";
name = "Regular Italic";
paths = (
{
closed = 1;
nodes = (
"167 289 OFFCURVE",
"221 292 OFFCURVE",
"274 292 CURVE SMOOTH",
"327 292 OFFCURVE",
"380 289 OFFCURVE",
"432 284 CURVE",
"432 282 OFFCURVE",
"432 279 OFFCURVE",
"432 277 CURVE SMOOTH",
"432 274 OFFCURVE",
"432 272 OFFCURVE",
"432 270 CURVE SMOOTH",
"432 265 OFFCURVE",
"432 260 OFFCURVE",
"432 255 CURVE",
"432 250 OFFCURVE",
"432 245 OFFCURVE",
"432 240 CURVE SMOOTH",
"432 234 LINE",
"377 240 OFFCURVE",
"323 243 OFFCURVE",
"267 243 CURVE SMOOTH",
"213 243 OFFCURVE",
"161 241 OFFCURVE",
"106 235 CURVE",
"110 252 OFFCURVE",
"112 268 OFFCURVE",
"114 285 CURVE"
);
},
{
closed = 1;
nodes = (
"443 497 OFFCURVE",
"437 426 OFFCURVE",
"433 355 CURVE",
"423 356 OFFCURVE",
"414 357 OFFCURVE",
"404 357 CURVE SMOOTH",
"394 358 OFFCURVE",
"384 358 OFFCURVE",
"374 359 CURVE",
"378 422 LINE",
"361 398 OFFCURVE",
"339 380 OFFCURVE",
"314 369 CURVE SMOOTH",
"289 356 OFFCURVE",
"261 351 OFFCURVE",
"234 351 CURVE SMOOTH",
"205 351 OFFCURVE",
"177 357 OFFCURVE",
"157 373 CURVE SMOOTH",
"137 388 OFFCURVE",
"124 413 OFFCURVE",
"124 448 CURVE SMOOTH",
"124 467 OFFCURVE",
"127 488 OFFCURVE",
"135 507 CURVE SMOOTH",
"143 527 OFFCURVE",
"155 544 OFFCURVE",
"174 556 CURVE SMOOTH",
"218 582 OFFCURVE",
"263 586 OFFCURVE",
"304 586 CURVE SMOOTH",
"334 586 OFFCURVE",
"364 586 OFFCURVE",
"394 588 CURVE",
"394 594 LINE",
"395 596 OFFCURVE",
"395 598 OFFCURVE",
"395 601 CURVE SMOOTH",
"395 603 OFFCURVE",
"395 604 OFFCURVE",
"395 607 CURVE SMOOTH",
"395 642 OFFCURVE",
"377 661 OFFCURVE",
"356 671 CURVE SMOOTH",
"334 681 OFFCURVE",
"308 682 OFFCURVE",
"289 683 CURVE",
"247 682 OFFCURVE",
"206 672 OFFCURVE",
"165 658 CURVE",
"166 666 OFFCURVE",
"166 675 OFFCURVE",
"166 683 CURVE SMOOTH",
"166 691 OFFCURVE",
"166 700 OFFCURVE",
"167 708 CURVE",
"211 722 OFFCURVE",
"257 728 OFFCURVE",
"303 728 CURVE SMOOTH",
"323 728 OFFCURVE",
"344 727 OFFCURVE",
"364 723 CURVE SMOOTH",
"384 718 OFFCURVE",
"403 710 OFFCURVE",
"419 698 CURVE",
"445 673 OFFCURVE",
"453 639 OFFCURVE",
"453 606 CURVE SMOOTH",
"453 593 OFFCURVE",
"452 581 OFFCURVE",
"450 569 CURVE SMOOTH"
);
},
{
closed = 1;
nodes = (
"305 571 OFFCURVE",
"283 571 OFFCURVE",
"262 568 CURVE SMOOTH",
"240 565 OFFCURVE",
"220 559 OFFCURVE",
"205 547 CURVE SMOOTH",
"190 535 OFFCURVE",
"181 517 OFFCURVE",
"181 490 CURVE SMOOTH",
"181 471 OFFCURVE",
"190 456 OFFCURVE",
"204 444 CURVE SMOOTH",
"218 433 OFFCURVE",
"236 427 OFFCURVE",
"255 427 CURVE SMOOTH",
"289 427 OFFCURVE",
"321 437 OFFCURVE",
"346 463 CURVE SMOOTH",
"369 488 OFFCURVE",
"382 521 OFFCURVE",
"385 555 CURVE",
"386 558 OFFCURVE",
"386 561 OFFCURVE",
"386 564 CURVE",
"386 567 OFFCURVE",
"387 570 OFFCURVE",
"387 573 CURVE",
"366 573 OFFCURVE",
"345 572 OFFCURVE",
"324 572 CURVE SMOOTH"
);
}
);
width = 513;
}
);
unicode = 00AA;
},
{
glyphname = guillemotleft;
lastChange = "2014-11-05 03:29:49 -0500";
layers = (
{
layerId = "16808965-E153-4B2B-ADB3-00196C646C32";
name = "Regular Italic";
paths = (
{
closed = 1;
nodes = (
"527 463 OFFCURVE",
"521 437 OFFCURVE",
"516 409 CURVE",
"489 388 OFFCURVE",
"462 367 OFFCURVE",
"436 346 CURVE SMOOTH",
"410 325 OFFCURVE",
"383 303 OFFCURVE",
"355 282 CURVE",
"377 259 OFFCURVE",
"398 236 OFFCURVE",
"419 213 CURVE SMOOTH",
"440 190 OFFCURVE",
"461 168 OFFCURVE",
"482 146 CURVE",
"475 112 OFFCURVE",
"468 79 OFFCURVE",
"463 46 CURVE",
"396 112 OFFCURVE",
"333 179 OFFCURVE",
"268 248 CURVE",
"271 257 OFFCURVE",
"275 266 OFFCURVE",
"280 274 CURVE SMOOTH",
"284 283 OFFCURVE",
"288 292 OFFCURVE",
"291 300 CURVE",
"332 332 OFFCURVE",
"373 364 OFFCURVE",
"413 396 CURVE SMOOTH",
"453 427 OFFCURVE",
"494 458 OFFCURVE",
"534 490 CURVE"
);
},
{
closed = 1;
nodes = (
"313 411 LINE",
"260 370 OFFCURVE",
"209 330 OFFCURVE",
"157 289 CURVE",
"198 244 OFFCURVE",
"239 201 OFFCURVE",
"281 157 CURVE",
"277 140 OFFCURVE",
"272 124 OFFCURVE",
"267 108 CURVE SMOOTH",
"262 92 OFFCURVE",
"257 76 OFFCURVE",
"252 59 CURVE",
"189 123 OFFCURVE",
"129 187 OFFCURVE",
"70 255 CURVE",
"73 264 OFFCURVE",
"77 273 OFFCURVE",
"82 282 CURVE SMOOTH",
"86 291 OFFCURVE",
"89 299 OFFCURVE",
"92 309 CURVE",
"169 371 OFFCURVE",
"245 429 OFFCURVE",
"324 488 CURVE"
);
}
);
width = 584;
}
);
unicode = 00AB;
},
{
glyphname = logicalnot;
lastChange = "2014-11-05 03:29:49 -0500";
layers = (
{
layerId = "16808965-E153-4B2B-ADB3-00196C646C32";
name = "Regular Italic";
paths = (
{
closed = 1;
nodes = (
"208 413 OFFCURVE",
"309 411 OFFCURVE",
"413 411 CURVE SMOOTH",
"516 411 OFFCURVE",
"618 413 OFFCURVE",
"722 416 CURVE",
"705 365 OFFCURVE",
"695 312 OFFCURVE",
"695 259 CURVE SMOOTH",
"695 220 OFFCURVE",
"700 182 OFFCURVE",
"711 145 CURVE",
"675 146 OFFCURVE",
"639 147 OFFCURVE",
"602 148 CURVE",
"602 150 OFFCURVE",
"602 152 OFFCURVE",
"602 155 CURVE",
"601 157 OFFCURVE",
"601 159 OFFCURVE",
"601 162 CURVE SMOOTH",
"601 223 OFFCURVE",
"613 283 OFFCURVE",
"630 342 CURVE",
"457 336 OFFCURVE",
"288 333 OFFCURVE",
"114 333 CURVE",
"113 362 OFFCURVE",
"110 389 OFFCURVE",
"104 417 CURVE"
);
}
);
width = 812;
}
);
unicode = 00AC;
},
{
glyphname = registered;
lastChange = "2014-11-05 03:29:49 -0500";
layers = (
{
layerId = "16808965-E153-4B2B-ADB3-00196C646C32";
name = "Regular Italic";
paths = (
{
closed = 1;
nodes = (
"378 667 OFFCURVE",
"298 643 OFFCURVE",
"235 586 CURVE SMOOTH",
"201 557 OFFCURVE",
"176 521 OFFCURVE",
"159 482 CURVE SMOOTH",
"142 442 OFFCURVE",
"134 399 OFFCURVE",
"134 358 CURVE SMOOTH",
"134 278 OFFCURVE",
"166 215 OFFCURVE",
"216 171 CURVE SMOOTH",
"267 127 OFFCURVE",
"336 103 OFFCURVE",
"410 103 CURVE SMOOTH",
"488 103 OFFCURVE",
"568 129 OFFCURVE",
"629 184 CURVE SMOOTH",
"694 246 OFFCURVE",
"731 331 OFFCURVE",
"731 417 CURVE SMOOTH",
"731 481 OFFCURVE",
"711 543 OFFCURVE",
"667 587 CURVE SMOOTH",
"641 615 OFFCURVE",
"608 635 OFFCURVE",
"572 648 CURVE SMOOTH",
"537 661 OFFCURVE",
"498 667 OFFCURVE",
"458 667 CURVE SMOOTH"
);
},
{
closed = 1;
nodes = (
"507 706 OFFCURVE",
"551 699 OFFCURVE",
"592 683 CURVE SMOOTH",
"632 667 OFFCURVE",
"668 643 OFFCURVE",
"697 609 CURVE SMOOTH",
"746 554 OFFCURVE",
"767 480 OFFCURVE",
"767 403 CURVE SMOOTH",
"767 353 OFFCURVE",
"759 299 OFFCURVE",
"740 250 CURVE SMOOTH",
"722 200 OFFCURVE",
"693 153 OFFCURVE",
"653 116 CURVE",
"618 82 OFFCURVE",
"577 57 OFFCURVE",
"533 42 CURVE SMOOTH",
"489 26 OFFCURVE",
"442 19 OFFCURVE",
"396 19 CURVE SMOOTH",
"352 19 OFFCURVE",
"308 26 OFFCURVE",
"269 42 CURVE SMOOTH",
"229 59 OFFCURVE",
"193 83 OFFCURVE",
"165 115 CURVE SMOOTH",
"116 171 OFFCURVE",
"95 245 OFFCURVE",
"95 322 CURVE SMOOTH",
"95 373 OFFCURVE",
"103 425 OFFCURVE",
"121 475 CURVE SMOOTH",
"139 525 OFFCURVE",
"167 571 OFFCURVE",
"208 608 CURVE",
"242 642 OFFCURVE",
"283 667 OFFCURVE",
"327 683 CURVE SMOOTH",
"370 698 OFFCURVE",
"417 706 OFFCURVE",
"462 706 CURVE SMOOTH"
);
},
{
closed = 1;
nodes = (
"447 544 OFFCURVE",
"437 544 OFFCURVE",
"427 544 CURVE",
"417 543 OFFCURVE",
"406 543 OFFCURVE",
"396 543 CURVE",
"395 521 OFFCURVE",
"393 498 OFFCURVE",
"391 475 CURVE SMOOTH",
"388 452 OFFCURVE",
"386 429 OFFCURVE",
"384 405 CURVE",
"405 405 LINE",
"445 405 LINE SMOOTH",
"470 405 OFFCURVE",
"497 406 OFFCURVE",
"520 421 CURVE SMOOTH",
"530 428 OFFCURVE",
"538 439 OFFCURVE",
"542 451 CURVE",
"546 462 OFFCURVE",
"548 475 OFFCURVE",
"548 486 CURVE SMOOTH",
"548 515 OFFCURVE",
"533 529 OFFCURVE",
"515 536 CURVE SMOOTH",
"496 543 OFFCURVE",
"473 543 OFFCURVE",
"458 544 CURVE SMOOTH"
);
},
{
closed = 1;
nodes = (
"477 559 OFFCURVE",
"515 556 OFFCURVE",
"548 538 CURVE",
"576 521 OFFCURVE",
"587 493 OFFCURVE",
"587 466 CURVE SMOOTH",
"587 437 OFFCURVE",
"576 411 OFFCURVE",
"558 392 CURVE SMOOTH",
"540 372 OFFCURVE",
"514 359 OFFCURVE",
"486 355 CURVE",
"485 348 LINE",
"499 340 OFFCURVE",
"510 329 OFFCURVE",
"519 315 CURVE SMOOTH",
"523 309 OFFCURVE",
"527 302 OFFCURVE",
"531 295 CURVE",
"534 288 OFFCURVE",
"538 281 OFFCURVE",
"542 274 CURVE",
"542 274 LINE",
"550 258 OFFCURVE",
"559 241 OFFCURVE",
"567 225 CURVE SMOOTH",
"576 209 OFFCURVE",
"585 192 OFFCURVE",
"594 176 CURVE",
"583 176 OFFCURVE",
"571 176 OFFCURVE",
"559 177 CURVE",
"547 177 OFFCURVE",
"536 177 OFFCURVE",
"524 177 CURVE",
"516 193 OFFCURVE",
"507 209 OFFCURVE",
"499 225 CURVE SMOOTH",
"491 241 OFFCURVE",
"482 257 OFFCURVE",
"474 273 CURVE",
"474 273 LINE",
"470 280 OFFCURVE",
"466 287 OFFCURVE",
"462 295 CURVE SMOOTH",
"453 311 OFFCURVE",
"442 325 OFFCURVE",
"430 335 CURVE",
"424 340 OFFCURVE",
"417 343 OFFCURVE",
"409 344 CURVE",
"404 344 OFFCURVE",
"399 344 OFFCURVE",
"394 344 CURVE SMOOTH",
"389 344 OFFCURVE",
"384 344 OFFCURVE",
"379 344 CURVE",
"376 316 OFFCURVE",
"374 288 OFFCURVE",
"372 261 CURVE SMOOTH",
"369 233 OFFCURVE",
"366 205 OFFCURVE",
"364 177 CURVE",
"352 177 LINE SMOOTH",
"339 177 OFFCURVE",
"327 177 OFFCURVE",
"314 177 CURVE SMOOTH",
"302 176 OFFCURVE",
"290 176 OFFCURVE",
"277 176 CURVE",
"292 305 OFFCURVE",
"303 432 OFFCURVE",
"311 561 CURVE",
"354 560 OFFCURVE",
"396 559 OFFCURVE",
"439 559 CURVE SMOOTH"
);
}
);
width = 822;
}
);
unicode = 00AE;
},
{
glyphname = macron;
lastChange = "2014-11-05 03:29:49 -0500";
layers = (
{
anchors = (
{
name = _top;
position = "{298, 541}";
}
);
layerId = "16808965-E153-4B2B-ADB3-00196C646C32";
name = "Regular Italic";
paths = (
{
closed = 1;
nodes = (
"220 739 OFFCURVE",
"267 739 OFFCURVE",
"314 739 CURVE SMOOTH",
"360 739 OFFCURVE",
"408 739 OFFCURVE",
"455 740 CURVE",
"447 729 OFFCURVE",
"443 717 OFFCURVE",
"443 703 CURVE SMOOTH",
"443 694 OFFCURVE",
"444 685 OFFCURVE",
"450 678 CURVE",
"402 678 OFFCURVE",
"355 679 OFFCURVE",
"309 679 CURVE SMOOTH",
"262 679 OFFCURVE",
"214 678 OFFCURVE",
"167 678 CURVE",
"175 689 OFFCURVE",
"179 701 OFFCURVE",
"179 714 CURVE SMOOTH",
"179 724 OFFCURVE",
"177 733 OFFCURVE",
"173 740 CURVE"
);
}
);
width = 437;
}
);
unicode = 00AF;
},
{
glyphname = degree;
lastChange = "2014-11-05 03:29:49 -0500";
layers = (
{
layerId = "16808965-E153-4B2B-ADB3-00196C646C32";
name = "Regular Italic";
paths = (
{
closed = 1;
nodes = (
"268 704 OFFCURVE",
"243 694 OFFCURVE",
"224 678 CURVE SMOOTH",
"206 662 OFFCURVE",
"193 638 OFFCURVE",
"193 611 CURVE SMOOTH",
"193 586 OFFCURVE",
"203 567 OFFCURVE",
"218 554 CURVE SMOOTH",
"234 541 OFFCURVE",
"255 533 OFFCURVE",
"278 533 CURVE SMOOTH",
"304 533 OFFCURVE",
"329 542 OFFCURVE",
"347 560 CURVE SMOOTH",
"365 577 OFFCURVE",
"377 600 OFFCURVE",
"377 628 CURVE SMOOTH",
"377 651 OFFCURVE",
"368 670 OFFCURVE",
"352 684 CURVE SMOOTH",
"336 697 OFFCURVE",
"315 704 OFFCURVE",
"293 704 CURVE SMOOTH"
);
},
{
closed = 1;
nodes = (
"333 732 OFFCURVE",
"366 719 OFFCURVE",
"388 697 CURVE SMOOTH",
"411 674 OFFCURVE",
"424 641 OFFCURVE",
"424 602 CURVE SMOOTH",
"424 581 OFFCURVE",
"420 559 OFFCURVE",
"412 538 CURVE SMOOTH",
"404 517 OFFCURVE",
"392 498 OFFCURVE",
"376 482 CURVE SMOOTH",
"347 454 OFFCURVE",
"308 443 OFFCURVE",
"270 443 CURVE SMOOTH",
"231 443 OFFCURVE",
"193 453 OFFCURVE",
"169 481 CURVE SMOOTH",
"148 505 OFFCURVE",
"141 536 OFFCURVE",
"141 569 CURVE SMOOTH",
"141 590 OFFCURVE",
"145 612 OFFCURVE",
"152 634 CURVE SMOOTH",
"160 655 OFFCURVE",
"171 675 OFFCURVE",
"188 691 CURVE",
"217 720 OFFCURVE",
"257 732 OFFCURVE",
"296 732 CURVE SMOOTH"
);
}
);
width = 431;
}
);
unicode = 00B0;
},
{
glyphname = plusminus;
lastChange = "2014-11-05 03:29:49 -0500";
layers = (
{
layerId = "16808965-E153-4B2B-ADB3-00196C646C32";
name = "Regular Italic";
paths = (
{
closed = 1;
nodes = (
"451 609 LINE",
"444 548 OFFCURVE",
"438 488 OFFCURVE",
"432 427 CURVE",
"518 428 OFFCURVE",
"603 429 OFFCURVE",
"689 432 CURVE",
"688 420 OFFCURVE",
"687 408 OFFCURVE",
"685 396 CURVE SMOOTH",
"684 384 OFFCURVE",
"682 372 OFFCURVE",
"681 359 CURVE",
"596 358 OFFCURVE",
"512 357 OFFCURVE",
"426 357 CURVE",
"424 327 OFFCURVE",
"421 297 OFFCURVE",
"418 267 CURVE SMOOTH",
"416 237 OFFCURVE",
"413 207 OFFCURVE",
"411 176 CURVE",
"342 176 LINE",
"348 237 OFFCURVE",
"353 296 OFFCURVE",
"358 357 CURVE",
"273 357 OFFCURVE",
"189 358 OFFCURVE",
"104 360 CURVE",
"105 385 OFFCURVE",
"107 409 OFFCURVE",
"108 433 CURVE",
"193 429 OFFCURVE",
"278 428 OFFCURVE",
"364 427 CURVE",
"367 458 OFFCURVE",
"369 488 OFFCURVE",
"372 519 CURVE SMOOTH",
"374 548 OFFCURVE",
"376 579 OFFCURVE",
"379 609 CURVE"
);
},
{
closed = 1;
nodes = (
"172 94 OFFCURVE",
"271 97 OFFCURVE",
"373 97 CURVE SMOOTH",
"471 97 OFFCURVE",
"569 94 OFFCURVE",
"667 88 CURVE",
"667 61 OFFCURVE",
"668 33 OFFCURVE",
"670 5 CURVE",
"569 13 OFFCURVE",
"467 17 OFFCURVE",
"365 17 CURVE SMOOTH",
"261 17 OFFCURVE",
"158 13 OFFCURVE",
"54 5 CURVE",
"60 33 OFFCURVE",
"66 61 OFFCURVE",
"70 88 CURVE"
);
}
);
width = 800;
}
);
unicode = 00B1;
},
{
glyphname = twosuperior;
lastChange = "2014-11-05 03:29:49 -0500";
layers = (
{
layerId = "16808965-E153-4B2B-ADB3-00196C646C32";
name = "Regular Italic";
paths = (
{
closed = 1;
nodes = (
"225 383 OFFCURVE",
"235 383 OFFCURVE",
"246 383 CURVE SMOOTH",
"256 383 OFFCURVE",
"267 383 OFFCURVE",
"278 383 CURVE SMOOTH",
"323 383 OFFCURVE",
"366 382 OFFCURVE",
"410 377 CURVE",
"410 370 OFFCURVE",
"410 362 OFFCURVE",
"410 354 CURVE SMOOTH",
"410 346 OFFCURVE",
"410 338 OFFCURVE",
"411 331 CURVE",
"364 336 OFFCURVE",
"319 339 OFFCURVE",
"272 339 CURVE SMOOTH",
"224 339 OFFCURVE",
"177 336 OFFCURVE",
"128 331 CURVE",
"130 339 OFFCURVE",
"131 347 OFFCURVE",
"133 355 CURVE",
"134 363 OFFCURVE",
"135 371 OFFCURVE",
"136 378 CURVE",
"145 386 OFFCURVE",
"153 393 OFFCURVE",
"161 400 CURVE SMOOTH",
"169 408 OFFCURVE",
"178 415 OFFCURVE",
"186 421 CURVE",
"202 436 OFFCURVE",
"219 451 OFFCURVE",
"236 465 CURVE SMOOTH",
"271 494 OFFCURVE",
"303 524 OFFCURVE",
"331 558 CURVE SMOOTH",
"344 575 OFFCURVE",
"355 594 OFFCURVE",
"364 614 CURVE",
"364 615 OFFCURVE",
"364 617 OFFCURVE",
"364 619 CURVE SMOOTH",
"364 620 OFFCURVE",
"364 622 OFFCURVE",
"364 623 CURVE SMOOTH",
"364 643 OFFCURVE",
"354 659 OFFCURVE",
"339 670 CURVE SMOOTH",
"323 682 OFFCURVE",
"304 687 OFFCURVE",
"285 687 CURVE SMOOTH",
"244 687 OFFCURVE",
"205 677 OFFCURVE",
"166 662 CURVE",
"166 670 OFFCURVE",
"167 678 OFFCURVE",
"167 687 CURVE",
"166 694 OFFCURVE",
"167 703 OFFCURVE",
"167 711 CURVE",
"208 722 OFFCURVE",
"250 729 OFFCURVE",
"292 729 CURVE SMOOTH",
"321 729 OFFCURVE",
"354 725 OFFCURVE",
"381 712 CURVE SMOOTH",
"408 698 OFFCURVE",
"427 676 OFFCURVE",
"427 641 CURVE SMOOTH",
"427 635 OFFCURVE",
"426 630 OFFCURVE",
"425 625 CURVE",
"413 582 OFFCURVE",
"387 547 OFFCURVE",
"356 515 CURVE SMOOTH",
"341 499 OFFCURVE",
"324 484 OFFCURVE",
"307 470 CURVE SMOOTH",
"290 455 OFFCURVE",
"273 441 OFFCURVE",
"257 427 CURVE",
"242 415 OFFCURVE",
"227 403 OFFCURVE",
"211 391 CURVE",
"213 387 OFFCURVE",
"213 386 OFFCURVE",
"214 382 CURVE"
);
}
);
width = 471;
}
);
unicode = 00B2;
},
{
glyphname = threesuperior;
lastChange = "2014-11-05 03:29:49 -0500";
layers = (
{
layerId = "16808965-E153-4B2B-ADB3-00196C646C32";
name = "Regular Italic";
paths = (
{
closed = 1;
nodes = (
"336 542 LINE",
"358 539 OFFCURVE",
"378 528 OFFCURVE",
"392 513 CURVE SMOOTH",
"406 498 OFFCURVE",
"414 477 OFFCURVE",
"414 455 CURVE SMOOTH",
"414 438 OFFCURVE",
"411 420 OFFCURVE",
"405 405 CURVE SMOOTH",
"399 389 OFFCURVE",
"389 374 OFFCURVE",
"373 363 CURVE",
"350 350 OFFCURVE",
"328 341 OFFCURVE",
"305 337 CURVE SMOOTH",
"281 333 OFFCURVE",
"259 332 OFFCURVE",
"237 331 CURVE SMOOTH",
"198 331 OFFCURVE",
"160 335 OFFCURVE",
"122 343 CURVE",
"124 351 OFFCURVE",
"125 358 OFFCURVE",
"126 367 CURVE SMOOTH",
"127 375 OFFCURVE",
"128 382 OFFCURVE",
"129 390 CURVE",
"165 375 OFFCURVE",
"202 374 OFFCURVE",
"240 374 CURVE SMOOTH",
"266 374 OFFCURVE",
"294 378 OFFCURVE",
"316 392 CURVE SMOOTH",
"338 405 OFFCURVE",
"354 426 OFFCURVE",
"354 458 CURVE SMOOTH",
"354 479 OFFCURVE",
"342 496 OFFCURVE",
"325 507 CURVE SMOOTH",
"308 519 OFFCURVE",
"286 523 OFFCURVE",
"265 523 CURVE SMOOTH",
"263 523 OFFCURVE",
"261 523 OFFCURVE",
"259 523 CURVE SMOOTH",
"257 523 OFFCURVE",
"255 523 OFFCURVE",
"254 523 CURVE",
"247 523 LINE",
"226 523 LINE",
"218 523 LINE",
"219 530 OFFCURVE",
"220 537 OFFCURVE",
"221 544 CURVE",
"221 551 OFFCURVE",
"222 558 OFFCURVE",
"222 564 CURVE",
"230 564 LINE",
"252 564 LINE SMOOTH",
"255 564 OFFCURVE",
"258 564 OFFCURVE",
"261 564 CURVE",
"264 564 OFFCURVE",
"267 564 OFFCURVE",
"269 564 CURVE SMOOTH",
"291 564 OFFCURVE",
"313 569 OFFCURVE",
"331 581 CURVE SMOOTH",
"348 592 OFFCURVE",
"360 610 OFFCURVE",
"360 635 CURVE SMOOTH",
"360 656 OFFCURVE",
"348 669 OFFCURVE",
"331 677 CURVE SMOOTH",
"313 685 OFFCURVE",
"292 687 OFFCURVE",
"274 687 CURVE SMOOTH",
"238 687 OFFCURVE",
"204 682 OFFCURVE",
"167 674 CURVE",
"167 681 OFFCURVE",
"167 688 OFFCURVE",
"168 694 CURVE SMOOTH",
"168 700 OFFCURVE",
"168 707 OFFCURVE",
"168 713 CURVE SMOOTH",
"168 719 LINE",
"209 725 OFFCURVE",
"248 729 OFFCURVE",
"288 729 CURVE SMOOTH",
"316 729 OFFCURVE",
"350 726 OFFCURVE",
"376 714 CURVE SMOOTH",
"403 703 OFFCURVE",
"422 682 OFFCURVE",
"422 648 CURVE SMOOTH",
"422 624 OFFCURVE",
"413 602 OFFCURVE",
"398 584 CURVE SMOOTH",
"382 567 OFFCURVE",
"361 555 OFFCURVE",
"337 551 CURVE"
);
}
);
width = 452;
}
);
unicode = 00B3;
},
{
glyphname = acute;
lastChange = "2014-11-05 03:29:49 -0500";
layers = (
{
anchors = (
{
name = _top;
position = "{204, 491}";
}
);
layerId = "16808965-E153-4B2B-ADB3-00196C646C32";
name = "Regular Italic";
paths = (
{
closed = 1;
nodes = (
"336 792 OFFCURVE",
"368 792 OFFCURVE",
"400 795 CURVE",
"367 764 OFFCURVE",
"337 732 OFFCURVE",
"307 700 CURVE SMOOTH",
"277 667 OFFCURVE",
"246 634 OFFCURVE",
"214 604 CURVE",
"190 603 OFFCURVE",
"167 602 OFFCURVE",
"144 601 CURVE",
"172 631 OFFCURVE",
"199 663 OFFCURVE",
"225 695 CURVE SMOOTH",
"251 728 OFFCURVE",
"277 759 OFFCURVE",
"305 791 CURVE"
);
}
);
width = 362;
}
);
unicode = 00B4;
},
{
glyphname = mu;
lastChange = "2014-11-05 03:29:49 -0500";
layers = (
{
layerId = "16808965-E153-4B2B-ADB3-00196C646C32";
name = "Regular Italic";
paths = (
{
closed = 1;
nodes = (
"114 32 OFFCURVE",
"131 263 OFFCURVE",
"131 497 CURVE SMOOTH",
"131 542 LINE",
"144 541 OFFCURVE",
"157 541 OFFCURVE",
"170 540 CURVE SMOOTH",
"183 540 OFFCURVE",
"196 539 OFFCURVE",
"209 538 CURVE",
"208 460 OFFCURVE",
"207 384 OFFCURVE",
"203 306 CURVE SMOOTH",
"203 299 OFFCURVE",
"202 292 OFFCURVE",
"202 286 CURVE SMOOTH",
"202 255 OFFCURVE",
"208 226 OFFCURVE",
"225 202 CURVE",
"238 185 OFFCURVE",
"254 175 OFFCURVE",
"272 169 CURVE SMOOTH",
"290 163 OFFCURVE",
"308 162 OFFCURVE",
"327 162 CURVE SMOOTH",
"364 162 OFFCURVE",
"403 173 OFFCURVE",
"432 202 CURVE",
"465 241 OFFCURVE",
"474 283 OFFCURVE",
"479 324 CURVE SMOOTH",
"487 393 OFFCURVE",
"496 460 OFFCURVE",
"507 529 CURVE",
"521 530 OFFCURVE",
"534 530 OFFCURVE",
"547 531 CURVE SMOOTH",
"561 532 OFFCURVE",
"574 533 OFFCURVE",
"587 534 CURVE",
"564 397 OFFCURVE",
"548 264 OFFCURVE",
"535 127 CURVE",
"535 125 LINE SMOOTH",
"535 111 OFFCURVE",
"543 103 OFFCURVE",
"554 98 CURVE",
"565 92 OFFCURVE",
"578 89 OFFCURVE",
"589 89 CURVE SMOOTH",
"594 89 OFFCURVE",
"598 90 OFFCURVE",
"603 92 CURVE",
"607 94 OFFCURVE",
"611 96 OFFCURVE",
"616 97 CURVE",
"615 87 OFFCURVE",
"614 77 OFFCURVE",
"614 66 CURVE SMOOTH",
"613 56 OFFCURVE",
"612 46 OFFCURVE",
"612 36 CURVE",
"604 32 OFFCURVE",
"598 27 OFFCURVE",
"590 23 CURVE",
"576 13 OFFCURVE",
"562 5 OFFCURVE",
"547 0 CURVE SMOOTH",
"540 -3 OFFCURVE",
"532 -5 OFFCURVE",
"525 -5 CURVE SMOOTH",
"503 -5 OFFCURVE",
"487 6 OFFCURVE",
"477 22 CURVE SMOOTH",
"466 39 OFFCURVE",
"459 59 OFFCURVE",
"459 79 CURVE",
"443 55 OFFCURVE",
"422 35 OFFCURVE",
"398 21 CURVE SMOOTH",
"374 6 OFFCURVE",
"346 -2 OFFCURVE",
"318 -2 CURVE SMOOTH",
"314 -2 LINE",
"307 -2 LINE SMOOTH",
"282 -2 OFFCURVE",
"257 3 OFFCURVE",
"237 16 CURVE SMOOTH",
"216 27 OFFCURVE",
"199 45 OFFCURVE",
"191 69 CURVE",
"183 67 LINE",
"175 -21 OFFCURVE",
"167 -107 OFFCURVE",
"155 -195 CURVE",
"127 -197 OFFCURVE",
"102 -199 OFFCURVE",
"75 -202 CURVE"
);
}
);
width = 735;
}
);
unicode = 00B5;
},
{
glyphname = paragraph;
lastChange = "2014-11-05 03:29:49 -0500";
layers = (
{
layerId = "16808965-E153-4B2B-ADB3-00196C646C32";
name = "Regular Italic";
paths = (
{
closed = 1;
nodes = (
"368 708 OFFCURVE",
"375 708 OFFCURVE",
"383 708 CURVE SMOOTH",
"391 708 OFFCURVE",
"398 708 OFFCURVE",
"406 708 CURVE SMOOTH",
"460 708 OFFCURVE",
"515 709 OFFCURVE",
"570 713 CURVE",
"570 670 OFFCURVE",
"569 627 OFFCURVE",
"569 584 CURVE SMOOTH",
"569 355 OFFCURVE",
"577 132 OFFCURVE",
"606 -91 CURVE",
"551 -84 OFFCURVE",
"497 -80 OFFCURVE",
"442 -78 CURVE",
"455 169 OFFCURVE",
"478 413 OFFCURVE",
"509 661 CURVE",
"476 659 OFFCURVE",
"442 659 OFFCURVE",
"409 659 CURVE",
"386 412 OFFCURVE",
"364 170 OFFCURVE",
"344 -76 CURVE",
"295 -76 OFFCURVE",
"246 -77 OFFCURVE",
"196 -80 CURVE",
"226 53 OFFCURVE",
"249 186 OFFCURVE",
"272 320 CURVE",
"231 328 OFFCURVE",
"199 352 OFFCURVE",
"173 381 CURVE SMOOTH",
"142 416 OFFCURVE",
"130 460 OFFCURVE",
"130 507 CURVE SMOOTH",
"130 535 OFFCURVE",
"134 564 OFFCURVE",
"144 591 CURVE SMOOTH",
"153 618 OFFCURVE",
"169 643 OFFCURVE",
"194 662 CURVE SMOOTH",
"243 699 OFFCURVE",
"303 708 OFFCURVE",
"360 708 CURVE"
);
}
);
width = 757;
}
);
unicode = 00B6;
},
